%TF.GenerationSoftware,KiCad,Pcbnew,9.0.8-1.fc43*%
%TF.CreationDate,2026-05-01T18:24:24-05:00*%
%TF.ProjectId,AltWarriorsOfRock,416c7457-6172-4726-996f-72734f66526f,rev?*%
%TF.SameCoordinates,Original*%
%TF.FileFunction,Legend,Top*%
%TF.FilePolarity,Positive*%
%FSLAX46Y46*%
G04 Gerber Fmt 4.6, Leading zero omitted, Abs format (unit mm)*
G04 Created by KiCad (PCBNEW 9.0.8-1.fc43) date 2026-05-01 18:24:24*
%MOMM*%
%LPD*%
G01*
G04 APERTURE LIST*
G04 Aperture macros list*
%AMRoundRect*
0 Rectangle with rounded corners*
0 $1 Rounding radius*
0 $2 $3 $4 $5 $6 $7 $8 $9 X,Y pos of 4 corners*
0 Add a 4 corners polygon primitive as box body*
4,1,4,$2,$3,$4,$5,$6,$7,$8,$9,$2,$3,0*
0 Add four circle primitives for the rounded corners*
1,1,$1+$1,$2,$3*
1,1,$1+$1,$4,$5*
1,1,$1+$1,$6,$7*
1,1,$1+$1,$8,$9*
0 Add four rect primitives between the rounded corners*
20,1,$1+$1,$2,$3,$4,$5,0*
20,1,$1+$1,$4,$5,$6,$7,0*
20,1,$1+$1,$6,$7,$8,$9,0*
20,1,$1+$1,$8,$9,$2,$3,0*%
G04 Aperture macros list end*
%ADD10C,0.125000*%
%ADD11C,0.200000*%
%ADD12C,0.250000*%
%ADD13C,0.150000*%
%ADD14C,0.120000*%
%ADD15C,0.127000*%
%ADD16RoundRect,0.250000X-0.400000X-0.625000X0.400000X-0.625000X0.400000X0.625000X-0.400000X0.625000X0*%
%ADD17RoundRect,0.225000X-0.375000X0.225000X-0.375000X-0.225000X0.375000X-0.225000X0.375000X0.225000X0*%
%ADD18RoundRect,0.250000X-0.250000X0.250000X-0.250000X-0.250000X0.250000X-0.250000X0.250000X0.250000X0*%
%ADD19RoundRect,0.250000X0.625000X-0.400000X0.625000X0.400000X-0.625000X0.400000X-0.625000X-0.400000X0*%
%ADD20C,2.200000*%
%ADD21RoundRect,0.155000X-0.212500X-0.155000X0.212500X-0.155000X0.212500X0.155000X-0.212500X0.155000X0*%
%ADD22C,1.800000*%
%ADD23R,1.800000X1.800000*%
%ADD24C,1.700000*%
%ADD25R,1.700000X1.700000*%
%ADD26RoundRect,0.250000X-0.625000X0.400000X-0.625000X-0.400000X0.625000X-0.400000X0.625000X0.400000X0*%
%ADD27RoundRect,0.250000X0.337500X0.475000X-0.337500X0.475000X-0.337500X-0.475000X0.337500X-0.475000X0*%
%ADD28RoundRect,0.250000X0.250000X-0.250000X0.250000X0.250000X-0.250000X0.250000X-0.250000X-0.250000X0*%
%ADD29C,1.702000*%
%ADD30RoundRect,0.102000X-0.749000X-0.749000X0.749000X-0.749000X0.749000X0.749000X-0.749000X0.749000X0*%
%ADD31RoundRect,0.375000X-0.625000X-0.375000X0.625000X-0.375000X0.625000X0.375000X-0.625000X0.375000X0*%
%ADD32RoundRect,0.500000X-0.500000X-1.400000X0.500000X-1.400000X0.500000X1.400000X-0.500000X1.400000X0*%
%ADD33C,1.600000*%
%ADD34C,0.600000*%
%ADD35R,3.900000X3.900000*%
%ADD36R,0.900000X1.500000*%
%ADD37R,1.500000X0.900000*%
%ADD38RoundRect,0.102000X-0.150000X-0.575000X0.150000X-0.575000X0.150000X0.575000X-0.150000X0.575000X0*%
%ADD39RoundRect,0.102000X-0.300000X-0.575000X0.300000X-0.575000X0.300000X0.575000X-0.300000X0.575000X0*%
%ADD40C,0.650000*%
%ADD41O,1.204000X2.304000*%
%ADD42O,1.204000X2.004000*%
%ADD43RoundRect,0.250000X0.400000X0.625000X-0.400000X0.625000X-0.400000X-0.625000X0.400000X-0.625000X0*%
G04 APERTURE END LIST*
D10*
X150471119Y-107408240D02*
X149994928Y-107741573D01*
X150471119Y-107979668D02*
X149471119Y-107979668D01*
X149471119Y-107979668D02*
X149471119Y-107598716D01*
X149471119Y-107598716D02*
X149518738Y-107503478D01*
X149518738Y-107503478D02*
X149566357Y-107455859D01*
X149566357Y-107455859D02*
X149661595Y-107408240D01*
X149661595Y-107408240D02*
X149804452Y-107408240D01*
X149804452Y-107408240D02*
X149899690Y-107455859D01*
X149899690Y-107455859D02*
X149947309Y-107503478D01*
X149947309Y-107503478D02*
X149994928Y-107598716D01*
X149994928Y-107598716D02*
X149994928Y-107979668D01*
X149471119Y-107074906D02*
X150471119Y-106408240D01*
X149471119Y-106408240D02*
X150471119Y-107074906D01*
X149471119Y-105522525D02*
X149471119Y-104951097D01*
X150471119Y-105236811D02*
X149471119Y-105236811D01*
X149471119Y-104713001D02*
X150471119Y-104046335D01*
X149471119Y-104046335D02*
X150471119Y-104713001D01*
D11*
X150569673Y-101667219D02*
X150569673Y-102476742D01*
X150569673Y-102476742D02*
X150617292Y-102571980D01*
X150617292Y-102571980D02*
X150664911Y-102619600D01*
X150664911Y-102619600D02*
X150760149Y-102667219D01*
X150760149Y-102667219D02*
X150950625Y-102667219D01*
X150950625Y-102667219D02*
X151045863Y-102619600D01*
X151045863Y-102619600D02*
X151093482Y-102571980D01*
X151093482Y-102571980D02*
X151141101Y-102476742D01*
X151141101Y-102476742D02*
X151141101Y-101667219D01*
X151569673Y-102381504D02*
X152045863Y-102381504D01*
X151474435Y-102667219D02*
X151807768Y-101667219D01*
X151807768Y-101667219D02*
X152141101Y-102667219D01*
X153045863Y-102667219D02*
X152712530Y-102191028D01*
X152474435Y-102667219D02*
X152474435Y-101667219D01*
X152474435Y-101667219D02*
X152855387Y-101667219D01*
X152855387Y-101667219D02*
X152950625Y-101714838D01*
X152950625Y-101714838D02*
X152998244Y-101762457D01*
X152998244Y-101762457D02*
X153045863Y-101857695D01*
X153045863Y-101857695D02*
X153045863Y-102000552D01*
X153045863Y-102000552D02*
X152998244Y-102095790D01*
X152998244Y-102095790D02*
X152950625Y-102143409D01*
X152950625Y-102143409D02*
X152855387Y-102191028D01*
X152855387Y-102191028D02*
X152474435Y-102191028D01*
X153331578Y-101667219D02*
X153903006Y-101667219D01*
X153617292Y-102667219D02*
X153617292Y-101667219D01*
X145969673Y-102467219D02*
X145969673Y-101467219D01*
X145969673Y-101467219D02*
X146350625Y-101467219D01*
X146350625Y-101467219D02*
X146445863Y-101514838D01*
X146445863Y-101514838D02*
X146493482Y-101562457D01*
X146493482Y-101562457D02*
X146541101Y-101657695D01*
X146541101Y-101657695D02*
X146541101Y-101800552D01*
X146541101Y-101800552D02*
X146493482Y-101895790D01*
X146493482Y-101895790D02*
X146445863Y-101943409D01*
X146445863Y-101943409D02*
X146350625Y-101991028D01*
X146350625Y-101991028D02*
X145969673Y-101991028D01*
X146874435Y-101467219D02*
X147112530Y-102467219D01*
X147112530Y-102467219D02*
X147303006Y-101752933D01*
X147303006Y-101752933D02*
X147493482Y-102467219D01*
X147493482Y-102467219D02*
X147731578Y-101467219D01*
X148683958Y-102467219D02*
X148350625Y-101991028D01*
X148112530Y-102467219D02*
X148112530Y-101467219D01*
X148112530Y-101467219D02*
X148493482Y-101467219D01*
X148493482Y-101467219D02*
X148588720Y-101514838D01*
X148588720Y-101514838D02*
X148636339Y-101562457D01*
X148636339Y-101562457D02*
X148683958Y-101657695D01*
X148683958Y-101657695D02*
X148683958Y-101800552D01*
X148683958Y-101800552D02*
X148636339Y-101895790D01*
X148636339Y-101895790D02*
X148588720Y-101943409D01*
X148588720Y-101943409D02*
X148493482Y-101991028D01*
X148493482Y-101991028D02*
X148112530Y-101991028D01*
D12*
X123842238Y-115949812D02*
X125842238Y-115473622D01*
X125842238Y-115473622D02*
X124413666Y-115092669D01*
X124413666Y-115092669D02*
X125842238Y-114711717D01*
X125842238Y-114711717D02*
X123842238Y-114235527D01*
X125842238Y-112616479D02*
X124794619Y-112616479D01*
X124794619Y-112616479D02*
X124604142Y-112711717D01*
X124604142Y-112711717D02*
X124508904Y-112902193D01*
X124508904Y-112902193D02*
X124508904Y-113283146D01*
X124508904Y-113283146D02*
X124604142Y-113473622D01*
X125747000Y-112616479D02*
X125842238Y-112806955D01*
X125842238Y-112806955D02*
X125842238Y-113283146D01*
X125842238Y-113283146D02*
X125747000Y-113473622D01*
X125747000Y-113473622D02*
X125556523Y-113568860D01*
X125556523Y-113568860D02*
X125366047Y-113568860D01*
X125366047Y-113568860D02*
X125175571Y-113473622D01*
X125175571Y-113473622D02*
X125080333Y-113283146D01*
X125080333Y-113283146D02*
X125080333Y-112806955D01*
X125080333Y-112806955D02*
X124985095Y-112616479D01*
X125842238Y-111664098D02*
X124508904Y-111664098D01*
X124889857Y-111664098D02*
X124699380Y-111568860D01*
X124699380Y-111568860D02*
X124604142Y-111473622D01*
X124604142Y-111473622D02*
X124508904Y-111283146D01*
X124508904Y-111283146D02*
X124508904Y-111092669D01*
X125842238Y-110426003D02*
X124508904Y-110426003D01*
X124889857Y-110426003D02*
X124699380Y-110330765D01*
X124699380Y-110330765D02*
X124604142Y-110235527D01*
X124604142Y-110235527D02*
X124508904Y-110045051D01*
X124508904Y-110045051D02*
X124508904Y-109854574D01*
X125842238Y-109187908D02*
X124508904Y-109187908D01*
X123842238Y-109187908D02*
X123937476Y-109283146D01*
X123937476Y-109283146D02*
X124032714Y-109187908D01*
X124032714Y-109187908D02*
X123937476Y-109092670D01*
X123937476Y-109092670D02*
X123842238Y-109187908D01*
X123842238Y-109187908D02*
X124032714Y-109187908D01*
X125842238Y-107949813D02*
X125747000Y-108140289D01*
X125747000Y-108140289D02*
X125651761Y-108235527D01*
X125651761Y-108235527D02*
X125461285Y-108330765D01*
X125461285Y-108330765D02*
X124889857Y-108330765D01*
X124889857Y-108330765D02*
X124699380Y-108235527D01*
X124699380Y-108235527D02*
X124604142Y-108140289D01*
X124604142Y-108140289D02*
X124508904Y-107949813D01*
X124508904Y-107949813D02*
X124508904Y-107664098D01*
X124508904Y-107664098D02*
X124604142Y-107473622D01*
X124604142Y-107473622D02*
X124699380Y-107378384D01*
X124699380Y-107378384D02*
X124889857Y-107283146D01*
X124889857Y-107283146D02*
X125461285Y-107283146D01*
X125461285Y-107283146D02*
X125651761Y-107378384D01*
X125651761Y-107378384D02*
X125747000Y-107473622D01*
X125747000Y-107473622D02*
X125842238Y-107664098D01*
X125842238Y-107664098D02*
X125842238Y-107949813D01*
X125842238Y-106426003D02*
X124508904Y-106426003D01*
X124889857Y-106426003D02*
X124699380Y-106330765D01*
X124699380Y-106330765D02*
X124604142Y-106235527D01*
X124604142Y-106235527D02*
X124508904Y-106045051D01*
X124508904Y-106045051D02*
X124508904Y-105854574D01*
X125747000Y-105283146D02*
X125842238Y-105092670D01*
X125842238Y-105092670D02*
X125842238Y-104711718D01*
X125842238Y-104711718D02*
X125747000Y-104521241D01*
X125747000Y-104521241D02*
X125556523Y-104426003D01*
X125556523Y-104426003D02*
X125461285Y-104426003D01*
X125461285Y-104426003D02*
X125270809Y-104521241D01*
X125270809Y-104521241D02*
X125175571Y-104711718D01*
X125175571Y-104711718D02*
X125175571Y-104997432D01*
X125175571Y-104997432D02*
X125080333Y-105187908D01*
X125080333Y-105187908D02*
X124889857Y-105283146D01*
X124889857Y-105283146D02*
X124794619Y-105283146D01*
X124794619Y-105283146D02*
X124604142Y-105187908D01*
X124604142Y-105187908D02*
X124508904Y-104997432D01*
X124508904Y-104997432D02*
X124508904Y-104711718D01*
X124508904Y-104711718D02*
X124604142Y-104521241D01*
X125842238Y-101759336D02*
X125747000Y-101949812D01*
X125747000Y-101949812D02*
X125651761Y-102045050D01*
X125651761Y-102045050D02*
X125461285Y-102140288D01*
X125461285Y-102140288D02*
X124889857Y-102140288D01*
X124889857Y-102140288D02*
X124699380Y-102045050D01*
X124699380Y-102045050D02*
X124604142Y-101949812D01*
X124604142Y-101949812D02*
X124508904Y-101759336D01*
X124508904Y-101759336D02*
X124508904Y-101473621D01*
X124508904Y-101473621D02*
X124604142Y-101283145D01*
X124604142Y-101283145D02*
X124699380Y-101187907D01*
X124699380Y-101187907D02*
X124889857Y-101092669D01*
X124889857Y-101092669D02*
X125461285Y-101092669D01*
X125461285Y-101092669D02*
X125651761Y-101187907D01*
X125651761Y-101187907D02*
X125747000Y-101283145D01*
X125747000Y-101283145D02*
X125842238Y-101473621D01*
X125842238Y-101473621D02*
X125842238Y-101759336D01*
X124508904Y-100521240D02*
X124508904Y-99759336D01*
X125842238Y-100235526D02*
X124127952Y-100235526D01*
X124127952Y-100235526D02*
X123937476Y-100140288D01*
X123937476Y-100140288D02*
X123842238Y-99949812D01*
X123842238Y-99949812D02*
X123842238Y-99759336D01*
X125842238Y-96426002D02*
X124889857Y-97092669D01*
X125842238Y-97568859D02*
X123842238Y-97568859D01*
X123842238Y-97568859D02*
X123842238Y-96806954D01*
X123842238Y-96806954D02*
X123937476Y-96616478D01*
X123937476Y-96616478D02*
X124032714Y-96521240D01*
X124032714Y-96521240D02*
X124223190Y-96426002D01*
X124223190Y-96426002D02*
X124508904Y-96426002D01*
X124508904Y-96426002D02*
X124699380Y-96521240D01*
X124699380Y-96521240D02*
X124794619Y-96616478D01*
X124794619Y-96616478D02*
X124889857Y-96806954D01*
X124889857Y-96806954D02*
X124889857Y-97568859D01*
X125842238Y-95283145D02*
X125747000Y-95473621D01*
X125747000Y-95473621D02*
X125651761Y-95568859D01*
X125651761Y-95568859D02*
X125461285Y-95664097D01*
X125461285Y-95664097D02*
X124889857Y-95664097D01*
X124889857Y-95664097D02*
X124699380Y-95568859D01*
X124699380Y-95568859D02*
X124604142Y-95473621D01*
X124604142Y-95473621D02*
X124508904Y-95283145D01*
X124508904Y-95283145D02*
X124508904Y-94997430D01*
X124508904Y-94997430D02*
X124604142Y-94806954D01*
X124604142Y-94806954D02*
X124699380Y-94711716D01*
X124699380Y-94711716D02*
X124889857Y-94616478D01*
X124889857Y-94616478D02*
X125461285Y-94616478D01*
X125461285Y-94616478D02*
X125651761Y-94711716D01*
X125651761Y-94711716D02*
X125747000Y-94806954D01*
X125747000Y-94806954D02*
X125842238Y-94997430D01*
X125842238Y-94997430D02*
X125842238Y-95283145D01*
X125747000Y-92902192D02*
X125842238Y-93092668D01*
X125842238Y-93092668D02*
X125842238Y-93473621D01*
X125842238Y-93473621D02*
X125747000Y-93664097D01*
X125747000Y-93664097D02*
X125651761Y-93759335D01*
X125651761Y-93759335D02*
X125461285Y-93854573D01*
X125461285Y-93854573D02*
X124889857Y-93854573D01*
X124889857Y-93854573D02*
X124699380Y-93759335D01*
X124699380Y-93759335D02*
X124604142Y-93664097D01*
X124604142Y-93664097D02*
X124508904Y-93473621D01*
X124508904Y-93473621D02*
X124508904Y-93092668D01*
X124508904Y-93092668D02*
X124604142Y-92902192D01*
X125842238Y-92045049D02*
X123842238Y-92045049D01*
X125080333Y-91854573D02*
X125842238Y-91283144D01*
X124508904Y-91283144D02*
X125270809Y-92045049D01*
X125080333Y-88902191D02*
X125080333Y-87378382D01*
X123842238Y-85092667D02*
X125842238Y-84616477D01*
X125842238Y-84616477D02*
X124413666Y-84235524D01*
X124413666Y-84235524D02*
X125842238Y-83854572D01*
X125842238Y-83854572D02*
X123842238Y-83378382D01*
X125842238Y-82616477D02*
X124508904Y-82616477D01*
X123842238Y-82616477D02*
X123937476Y-82711715D01*
X123937476Y-82711715D02*
X124032714Y-82616477D01*
X124032714Y-82616477D02*
X123937476Y-82521239D01*
X123937476Y-82521239D02*
X123842238Y-82616477D01*
X123842238Y-82616477D02*
X124032714Y-82616477D01*
X125842238Y-81664096D02*
X124508904Y-81664096D01*
X124889857Y-81664096D02*
X124699380Y-81568858D01*
X124699380Y-81568858D02*
X124604142Y-81473620D01*
X124604142Y-81473620D02*
X124508904Y-81283144D01*
X124508904Y-81283144D02*
X124508904Y-81092667D01*
X125747000Y-79664096D02*
X125842238Y-79854572D01*
X125842238Y-79854572D02*
X125842238Y-80235525D01*
X125842238Y-80235525D02*
X125747000Y-80426001D01*
X125747000Y-80426001D02*
X125556523Y-80521239D01*
X125556523Y-80521239D02*
X124794619Y-80521239D01*
X124794619Y-80521239D02*
X124604142Y-80426001D01*
X124604142Y-80426001D02*
X124508904Y-80235525D01*
X124508904Y-80235525D02*
X124508904Y-79854572D01*
X124508904Y-79854572D02*
X124604142Y-79664096D01*
X124604142Y-79664096D02*
X124794619Y-79568858D01*
X124794619Y-79568858D02*
X124985095Y-79568858D01*
X124985095Y-79568858D02*
X125175571Y-80521239D01*
X125842238Y-77854572D02*
X123842238Y-77854572D01*
X125747000Y-77854572D02*
X125842238Y-78045048D01*
X125842238Y-78045048D02*
X125842238Y-78426001D01*
X125842238Y-78426001D02*
X125747000Y-78616477D01*
X125747000Y-78616477D02*
X125651761Y-78711715D01*
X125651761Y-78711715D02*
X125461285Y-78806953D01*
X125461285Y-78806953D02*
X124889857Y-78806953D01*
X124889857Y-78806953D02*
X124699380Y-78711715D01*
X124699380Y-78711715D02*
X124604142Y-78616477D01*
X124604142Y-78616477D02*
X124508904Y-78426001D01*
X124508904Y-78426001D02*
X124508904Y-78045048D01*
X124508904Y-78045048D02*
X124604142Y-77854572D01*
X125080333Y-75378381D02*
X125080333Y-73854572D01*
X125842238Y-70235524D02*
X124889857Y-70902191D01*
X125842238Y-71378381D02*
X123842238Y-71378381D01*
X123842238Y-71378381D02*
X123842238Y-70616476D01*
X123842238Y-70616476D02*
X123937476Y-70426000D01*
X123937476Y-70426000D02*
X124032714Y-70330762D01*
X124032714Y-70330762D02*
X124223190Y-70235524D01*
X124223190Y-70235524D02*
X124508904Y-70235524D01*
X124508904Y-70235524D02*
X124699380Y-70330762D01*
X124699380Y-70330762D02*
X124794619Y-70426000D01*
X124794619Y-70426000D02*
X124889857Y-70616476D01*
X124889857Y-70616476D02*
X124889857Y-71378381D01*
X125747000Y-68616476D02*
X125842238Y-68806952D01*
X125842238Y-68806952D02*
X125842238Y-69187905D01*
X125842238Y-69187905D02*
X125747000Y-69378381D01*
X125747000Y-69378381D02*
X125556523Y-69473619D01*
X125556523Y-69473619D02*
X124794619Y-69473619D01*
X124794619Y-69473619D02*
X124604142Y-69378381D01*
X124604142Y-69378381D02*
X124508904Y-69187905D01*
X124508904Y-69187905D02*
X124508904Y-68806952D01*
X124508904Y-68806952D02*
X124604142Y-68616476D01*
X124604142Y-68616476D02*
X124794619Y-68521238D01*
X124794619Y-68521238D02*
X124985095Y-68521238D01*
X124985095Y-68521238D02*
X125175571Y-69473619D01*
X124508904Y-67854571D02*
X125842238Y-67378381D01*
X125842238Y-67378381D02*
X124508904Y-66902190D01*
X125651761Y-66140285D02*
X125747000Y-66045047D01*
X125747000Y-66045047D02*
X125842238Y-66140285D01*
X125842238Y-66140285D02*
X125747000Y-66235523D01*
X125747000Y-66235523D02*
X125651761Y-66140285D01*
X125651761Y-66140285D02*
X125842238Y-66140285D01*
X125842238Y-62616475D02*
X125842238Y-63759332D01*
X125842238Y-63187904D02*
X123842238Y-63187904D01*
X123842238Y-63187904D02*
X124127952Y-63378380D01*
X124127952Y-63378380D02*
X124318428Y-63568856D01*
X124318428Y-63568856D02*
X124413666Y-63759332D01*
D13*
X144457142Y-123254819D02*
X144123809Y-122778628D01*
X143885714Y-123254819D02*
X143885714Y-122254819D01*
X143885714Y-122254819D02*
X144266666Y-122254819D01*
X144266666Y-122254819D02*
X144361904Y-122302438D01*
X144361904Y-122302438D02*
X144409523Y-122350057D01*
X144409523Y-122350057D02*
X144457142Y-122445295D01*
X144457142Y-122445295D02*
X144457142Y-122588152D01*
X144457142Y-122588152D02*
X144409523Y-122683390D01*
X144409523Y-122683390D02*
X144361904Y-122731009D01*
X144361904Y-122731009D02*
X144266666Y-122778628D01*
X144266666Y-122778628D02*
X143885714Y-122778628D01*
X145409523Y-123254819D02*
X144838095Y-123254819D01*
X145123809Y-123254819D02*
X145123809Y-122254819D01*
X145123809Y-122254819D02*
X145028571Y-122397676D01*
X145028571Y-122397676D02*
X144933333Y-122492914D01*
X144933333Y-122492914D02*
X144838095Y-122540533D01*
X146266666Y-122254819D02*
X146076190Y-122254819D01*
X146076190Y-122254819D02*
X145980952Y-122302438D01*
X145980952Y-122302438D02*
X145933333Y-122350057D01*
X145933333Y-122350057D02*
X145838095Y-122492914D01*
X145838095Y-122492914D02*
X145790476Y-122683390D01*
X145790476Y-122683390D02*
X145790476Y-123064342D01*
X145790476Y-123064342D02*
X145838095Y-123159580D01*
X145838095Y-123159580D02*
X145885714Y-123207200D01*
X145885714Y-123207200D02*
X145980952Y-123254819D01*
X145980952Y-123254819D02*
X146171428Y-123254819D01*
X146171428Y-123254819D02*
X146266666Y-123207200D01*
X146266666Y-123207200D02*
X146314285Y-123159580D01*
X146314285Y-123159580D02*
X146361904Y-123064342D01*
X146361904Y-123064342D02*
X146361904Y-122826247D01*
X146361904Y-122826247D02*
X146314285Y-122731009D01*
X146314285Y-122731009D02*
X146266666Y-122683390D01*
X146266666Y-122683390D02*
X146171428Y-122635771D01*
X146171428Y-122635771D02*
X145980952Y-122635771D01*
X145980952Y-122635771D02*
X145885714Y-122683390D01*
X145885714Y-122683390D02*
X145838095Y-122731009D01*
X145838095Y-122731009D02*
X145790476Y-122826247D01*
X152654819Y-116838094D02*
X151654819Y-116838094D01*
X151654819Y-116838094D02*
X151654819Y-116599999D01*
X151654819Y-116599999D02*
X151702438Y-116457142D01*
X151702438Y-116457142D02*
X151797676Y-116361904D01*
X151797676Y-116361904D02*
X151892914Y-116314285D01*
X151892914Y-116314285D02*
X152083390Y-116266666D01*
X152083390Y-116266666D02*
X152226247Y-116266666D01*
X152226247Y-116266666D02*
X152416723Y-116314285D01*
X152416723Y-116314285D02*
X152511961Y-116361904D01*
X152511961Y-116361904D02*
X152607200Y-116457142D01*
X152607200Y-116457142D02*
X152654819Y-116599999D01*
X152654819Y-116599999D02*
X152654819Y-116838094D01*
X152654819Y-115790475D02*
X152654819Y-115599999D01*
X152654819Y-115599999D02*
X152607200Y-115504761D01*
X152607200Y-115504761D02*
X152559580Y-115457142D01*
X152559580Y-115457142D02*
X152416723Y-115361904D01*
X152416723Y-115361904D02*
X152226247Y-115314285D01*
X152226247Y-115314285D02*
X151845295Y-115314285D01*
X151845295Y-115314285D02*
X151750057Y-115361904D01*
X151750057Y-115361904D02*
X151702438Y-115409523D01*
X151702438Y-115409523D02*
X151654819Y-115504761D01*
X151654819Y-115504761D02*
X151654819Y-115695237D01*
X151654819Y-115695237D02*
X151702438Y-115790475D01*
X151702438Y-115790475D02*
X151750057Y-115838094D01*
X151750057Y-115838094D02*
X151845295Y-115885713D01*
X151845295Y-115885713D02*
X152083390Y-115885713D01*
X152083390Y-115885713D02*
X152178628Y-115838094D01*
X152178628Y-115838094D02*
X152226247Y-115790475D01*
X152226247Y-115790475D02*
X152273866Y-115695237D01*
X152273866Y-115695237D02*
X152273866Y-115504761D01*
X152273866Y-115504761D02*
X152226247Y-115409523D01*
X152226247Y-115409523D02*
X152178628Y-115361904D01*
X152178628Y-115361904D02*
X152083390Y-115314285D01*
X151204819Y-111788094D02*
X150204819Y-111788094D01*
X150204819Y-111788094D02*
X150204819Y-111549999D01*
X150204819Y-111549999D02*
X150252438Y-111407142D01*
X150252438Y-111407142D02*
X150347676Y-111311904D01*
X150347676Y-111311904D02*
X150442914Y-111264285D01*
X150442914Y-111264285D02*
X150633390Y-111216666D01*
X150633390Y-111216666D02*
X150776247Y-111216666D01*
X150776247Y-111216666D02*
X150966723Y-111264285D01*
X150966723Y-111264285D02*
X151061961Y-111311904D01*
X151061961Y-111311904D02*
X151157200Y-111407142D01*
X151157200Y-111407142D02*
X151204819Y-111549999D01*
X151204819Y-111549999D02*
X151204819Y-111788094D01*
X150633390Y-110645237D02*
X150585771Y-110740475D01*
X150585771Y-110740475D02*
X150538152Y-110788094D01*
X150538152Y-110788094D02*
X150442914Y-110835713D01*
X150442914Y-110835713D02*
X150395295Y-110835713D01*
X150395295Y-110835713D02*
X150300057Y-110788094D01*
X150300057Y-110788094D02*
X150252438Y-110740475D01*
X150252438Y-110740475D02*
X150204819Y-110645237D01*
X150204819Y-110645237D02*
X150204819Y-110454761D01*
X150204819Y-110454761D02*
X150252438Y-110359523D01*
X150252438Y-110359523D02*
X150300057Y-110311904D01*
X150300057Y-110311904D02*
X150395295Y-110264285D01*
X150395295Y-110264285D02*
X150442914Y-110264285D01*
X150442914Y-110264285D02*
X150538152Y-110311904D01*
X150538152Y-110311904D02*
X150585771Y-110359523D01*
X150585771Y-110359523D02*
X150633390Y-110454761D01*
X150633390Y-110454761D02*
X150633390Y-110645237D01*
X150633390Y-110645237D02*
X150681009Y-110740475D01*
X150681009Y-110740475D02*
X150728628Y-110788094D01*
X150728628Y-110788094D02*
X150823866Y-110835713D01*
X150823866Y-110835713D02*
X151014342Y-110835713D01*
X151014342Y-110835713D02*
X151109580Y-110788094D01*
X151109580Y-110788094D02*
X151157200Y-110740475D01*
X151157200Y-110740475D02*
X151204819Y-110645237D01*
X151204819Y-110645237D02*
X151204819Y-110454761D01*
X151204819Y-110454761D02*
X151157200Y-110359523D01*
X151157200Y-110359523D02*
X151109580Y-110311904D01*
X151109580Y-110311904D02*
X151014342Y-110264285D01*
X151014342Y-110264285D02*
X150823866Y-110264285D01*
X150823866Y-110264285D02*
X150728628Y-110311904D01*
X150728628Y-110311904D02*
X150681009Y-110359523D01*
X150681009Y-110359523D02*
X150633390Y-110454761D01*
X132154819Y-105242857D02*
X131678628Y-105576190D01*
X132154819Y-105814285D02*
X131154819Y-105814285D01*
X131154819Y-105814285D02*
X131154819Y-105433333D01*
X131154819Y-105433333D02*
X131202438Y-105338095D01*
X131202438Y-105338095D02*
X131250057Y-105290476D01*
X131250057Y-105290476D02*
X131345295Y-105242857D01*
X131345295Y-105242857D02*
X131488152Y-105242857D01*
X131488152Y-105242857D02*
X131583390Y-105290476D01*
X131583390Y-105290476D02*
X131631009Y-105338095D01*
X131631009Y-105338095D02*
X131678628Y-105433333D01*
X131678628Y-105433333D02*
X131678628Y-105814285D01*
X132154819Y-104290476D02*
X132154819Y-104861904D01*
X132154819Y-104576190D02*
X131154819Y-104576190D01*
X131154819Y-104576190D02*
X131297676Y-104671428D01*
X131297676Y-104671428D02*
X131392914Y-104766666D01*
X131392914Y-104766666D02*
X131440533Y-104861904D01*
X132154819Y-103814285D02*
X132154819Y-103623809D01*
X132154819Y-103623809D02*
X132107200Y-103528571D01*
X132107200Y-103528571D02*
X132059580Y-103480952D01*
X132059580Y-103480952D02*
X131916723Y-103385714D01*
X131916723Y-103385714D02*
X131726247Y-103338095D01*
X131726247Y-103338095D02*
X131345295Y-103338095D01*
X131345295Y-103338095D02*
X131250057Y-103385714D01*
X131250057Y-103385714D02*
X131202438Y-103433333D01*
X131202438Y-103433333D02*
X131154819Y-103528571D01*
X131154819Y-103528571D02*
X131154819Y-103719047D01*
X131154819Y-103719047D02*
X131202438Y-103814285D01*
X131202438Y-103814285D02*
X131250057Y-103861904D01*
X131250057Y-103861904D02*
X131345295Y-103909523D01*
X131345295Y-103909523D02*
X131583390Y-103909523D01*
X131583390Y-103909523D02*
X131678628Y-103861904D01*
X131678628Y-103861904D02*
X131726247Y-103814285D01*
X131726247Y-103814285D02*
X131773866Y-103719047D01*
X131773866Y-103719047D02*
X131773866Y-103528571D01*
X131773866Y-103528571D02*
X131726247Y-103433333D01*
X131726247Y-103433333D02*
X131678628Y-103385714D01*
X131678628Y-103385714D02*
X131583390Y-103338095D01*
X145324642Y-114759580D02*
X145277023Y-114807200D01*
X145277023Y-114807200D02*
X145134166Y-114854819D01*
X145134166Y-114854819D02*
X145038928Y-114854819D01*
X145038928Y-114854819D02*
X144896071Y-114807200D01*
X144896071Y-114807200D02*
X144800833Y-114711961D01*
X144800833Y-114711961D02*
X144753214Y-114616723D01*
X144753214Y-114616723D02*
X144705595Y-114426247D01*
X144705595Y-114426247D02*
X144705595Y-114283390D01*
X144705595Y-114283390D02*
X144753214Y-114092914D01*
X144753214Y-114092914D02*
X144800833Y-113997676D01*
X144800833Y-113997676D02*
X144896071Y-113902438D01*
X144896071Y-113902438D02*
X145038928Y-113854819D01*
X145038928Y-113854819D02*
X145134166Y-113854819D01*
X145134166Y-113854819D02*
X145277023Y-113902438D01*
X145277023Y-113902438D02*
X145324642Y-113950057D01*
X146277023Y-114854819D02*
X145705595Y-114854819D01*
X145991309Y-114854819D02*
X145991309Y-113854819D01*
X145991309Y-113854819D02*
X145896071Y-113997676D01*
X145896071Y-113997676D02*
X145800833Y-114092914D01*
X145800833Y-114092914D02*
X145705595Y-114140533D01*
X146896071Y-113854819D02*
X146991309Y-113854819D01*
X146991309Y-113854819D02*
X147086547Y-113902438D01*
X147086547Y-113902438D02*
X147134166Y-113950057D01*
X147134166Y-113950057D02*
X147181785Y-114045295D01*
X147181785Y-114045295D02*
X147229404Y-114235771D01*
X147229404Y-114235771D02*
X147229404Y-114473866D01*
X147229404Y-114473866D02*
X147181785Y-114664342D01*
X147181785Y-114664342D02*
X147134166Y-114759580D01*
X147134166Y-114759580D02*
X147086547Y-114807200D01*
X147086547Y-114807200D02*
X146991309Y-114854819D01*
X146991309Y-114854819D02*
X146896071Y-114854819D01*
X146896071Y-114854819D02*
X146800833Y-114807200D01*
X146800833Y-114807200D02*
X146753214Y-114759580D01*
X146753214Y-114759580D02*
X146705595Y-114664342D01*
X146705595Y-114664342D02*
X146657976Y-114473866D01*
X146657976Y-114473866D02*
X146657976Y-114235771D01*
X146657976Y-114235771D02*
X146705595Y-114045295D01*
X146705595Y-114045295D02*
X146753214Y-113950057D01*
X146753214Y-113950057D02*
X146800833Y-113902438D01*
X146800833Y-113902438D02*
X146896071Y-113854819D01*
X133489642Y-90859580D02*
X133442023Y-90907200D01*
X133442023Y-90907200D02*
X133299166Y-90954819D01*
X133299166Y-90954819D02*
X133203928Y-90954819D01*
X133203928Y-90954819D02*
X133061071Y-90907200D01*
X133061071Y-90907200D02*
X132965833Y-90811961D01*
X132965833Y-90811961D02*
X132918214Y-90716723D01*
X132918214Y-90716723D02*
X132870595Y-90526247D01*
X132870595Y-90526247D02*
X132870595Y-90383390D01*
X132870595Y-90383390D02*
X132918214Y-90192914D01*
X132918214Y-90192914D02*
X132965833Y-90097676D01*
X132965833Y-90097676D02*
X133061071Y-90002438D01*
X133061071Y-90002438D02*
X133203928Y-89954819D01*
X133203928Y-89954819D02*
X133299166Y-89954819D01*
X133299166Y-89954819D02*
X133442023Y-90002438D01*
X133442023Y-90002438D02*
X133489642Y-90050057D01*
X134442023Y-90954819D02*
X133870595Y-90954819D01*
X134156309Y-90954819D02*
X134156309Y-89954819D01*
X134156309Y-89954819D02*
X134061071Y-90097676D01*
X134061071Y-90097676D02*
X133965833Y-90192914D01*
X133965833Y-90192914D02*
X133870595Y-90240533D01*
X135394404Y-90954819D02*
X134822976Y-90954819D01*
X135108690Y-90954819D02*
X135108690Y-89954819D01*
X135108690Y-89954819D02*
X135013452Y-90097676D01*
X135013452Y-90097676D02*
X134918214Y-90192914D01*
X134918214Y-90192914D02*
X134822976Y-90240533D01*
X133357142Y-100659580D02*
X133309523Y-100707200D01*
X133309523Y-100707200D02*
X133166666Y-100754819D01*
X133166666Y-100754819D02*
X133071428Y-100754819D01*
X133071428Y-100754819D02*
X132928571Y-100707200D01*
X132928571Y-100707200D02*
X132833333Y-100611961D01*
X132833333Y-100611961D02*
X132785714Y-100516723D01*
X132785714Y-100516723D02*
X132738095Y-100326247D01*
X132738095Y-100326247D02*
X132738095Y-100183390D01*
X132738095Y-100183390D02*
X132785714Y-99992914D01*
X132785714Y-99992914D02*
X132833333Y-99897676D01*
X132833333Y-99897676D02*
X132928571Y-99802438D01*
X132928571Y-99802438D02*
X133071428Y-99754819D01*
X133071428Y-99754819D02*
X133166666Y-99754819D01*
X133166666Y-99754819D02*
X133309523Y-99802438D01*
X133309523Y-99802438D02*
X133357142Y-99850057D01*
X134309523Y-100754819D02*
X133738095Y-100754819D01*
X134023809Y-100754819D02*
X134023809Y-99754819D01*
X134023809Y-99754819D02*
X133928571Y-99897676D01*
X133928571Y-99897676D02*
X133833333Y-99992914D01*
X133833333Y-99992914D02*
X133738095Y-100040533D01*
X134690476Y-99850057D02*
X134738095Y-99802438D01*
X134738095Y-99802438D02*
X134833333Y-99754819D01*
X134833333Y-99754819D02*
X135071428Y-99754819D01*
X135071428Y-99754819D02*
X135166666Y-99802438D01*
X135166666Y-99802438D02*
X135214285Y-99850057D01*
X135214285Y-99850057D02*
X135261904Y-99945295D01*
X135261904Y-99945295D02*
X135261904Y-100040533D01*
X135261904Y-100040533D02*
X135214285Y-100183390D01*
X135214285Y-100183390D02*
X134642857Y-100754819D01*
X134642857Y-100754819D02*
X135261904Y-100754819D01*
X145257142Y-111459580D02*
X145209523Y-111507200D01*
X145209523Y-111507200D02*
X145066666Y-111554819D01*
X145066666Y-111554819D02*
X144971428Y-111554819D01*
X144971428Y-111554819D02*
X144828571Y-111507200D01*
X144828571Y-111507200D02*
X144733333Y-111411961D01*
X144733333Y-111411961D02*
X144685714Y-111316723D01*
X144685714Y-111316723D02*
X144638095Y-111126247D01*
X144638095Y-111126247D02*
X144638095Y-110983390D01*
X144638095Y-110983390D02*
X144685714Y-110792914D01*
X144685714Y-110792914D02*
X144733333Y-110697676D01*
X144733333Y-110697676D02*
X144828571Y-110602438D01*
X144828571Y-110602438D02*
X144971428Y-110554819D01*
X144971428Y-110554819D02*
X145066666Y-110554819D01*
X145066666Y-110554819D02*
X145209523Y-110602438D01*
X145209523Y-110602438D02*
X145257142Y-110650057D01*
X146209523Y-111554819D02*
X145638095Y-111554819D01*
X145923809Y-111554819D02*
X145923809Y-110554819D01*
X145923809Y-110554819D02*
X145828571Y-110697676D01*
X145828571Y-110697676D02*
X145733333Y-110792914D01*
X145733333Y-110792914D02*
X145638095Y-110840533D01*
X147066666Y-110888152D02*
X147066666Y-111554819D01*
X146828571Y-110507200D02*
X146590476Y-111221485D01*
X146590476Y-111221485D02*
X147209523Y-111221485D01*
X146085714Y-108454819D02*
X146085714Y-107454819D01*
X146085714Y-107454819D02*
X146323809Y-107454819D01*
X146323809Y-107454819D02*
X146466666Y-107502438D01*
X146466666Y-107502438D02*
X146561904Y-107597676D01*
X146561904Y-107597676D02*
X146609523Y-107692914D01*
X146609523Y-107692914D02*
X146657142Y-107883390D01*
X146657142Y-107883390D02*
X146657142Y-108026247D01*
X146657142Y-108026247D02*
X146609523Y-108216723D01*
X146609523Y-108216723D02*
X146561904Y-108311961D01*
X146561904Y-108311961D02*
X146466666Y-108407200D01*
X146466666Y-108407200D02*
X146323809Y-108454819D01*
X146323809Y-108454819D02*
X146085714Y-108454819D01*
X147609523Y-108454819D02*
X147038095Y-108454819D01*
X147323809Y-108454819D02*
X147323809Y-107454819D01*
X147323809Y-107454819D02*
X147228571Y-107597676D01*
X147228571Y-107597676D02*
X147133333Y-107692914D01*
X147133333Y-107692914D02*
X147038095Y-107740533D01*
X148228571Y-107454819D02*
X148323809Y-107454819D01*
X148323809Y-107454819D02*
X148419047Y-107502438D01*
X148419047Y-107502438D02*
X148466666Y-107550057D01*
X148466666Y-107550057D02*
X148514285Y-107645295D01*
X148514285Y-107645295D02*
X148561904Y-107835771D01*
X148561904Y-107835771D02*
X148561904Y-108073866D01*
X148561904Y-108073866D02*
X148514285Y-108264342D01*
X148514285Y-108264342D02*
X148466666Y-108359580D01*
X148466666Y-108359580D02*
X148419047Y-108407200D01*
X148419047Y-108407200D02*
X148323809Y-108454819D01*
X148323809Y-108454819D02*
X148228571Y-108454819D01*
X148228571Y-108454819D02*
X148133333Y-108407200D01*
X148133333Y-108407200D02*
X148085714Y-108359580D01*
X148085714Y-108359580D02*
X148038095Y-108264342D01*
X148038095Y-108264342D02*
X147990476Y-108073866D01*
X147990476Y-108073866D02*
X147990476Y-107835771D01*
X147990476Y-107835771D02*
X148038095Y-107645295D01*
X148038095Y-107645295D02*
X148085714Y-107550057D01*
X148085714Y-107550057D02*
X148133333Y-107502438D01*
X148133333Y-107502438D02*
X148228571Y-107454819D01*
X147994819Y-56833333D02*
X148709104Y-56833333D01*
X148709104Y-56833333D02*
X148851961Y-56880952D01*
X148851961Y-56880952D02*
X148947200Y-56976190D01*
X148947200Y-56976190D02*
X148994819Y-57119047D01*
X148994819Y-57119047D02*
X148994819Y-57214285D01*
X148994819Y-55833333D02*
X148994819Y-56404761D01*
X148994819Y-56119047D02*
X147994819Y-56119047D01*
X147994819Y-56119047D02*
X148137676Y-56214285D01*
X148137676Y-56214285D02*
X148232914Y-56309523D01*
X148232914Y-56309523D02*
X148280533Y-56404761D01*
X151666666Y-109124819D02*
X151666666Y-109839104D01*
X151666666Y-109839104D02*
X151619047Y-109981961D01*
X151619047Y-109981961D02*
X151523809Y-110077200D01*
X151523809Y-110077200D02*
X151380952Y-110124819D01*
X151380952Y-110124819D02*
X151285714Y-110124819D01*
X152619047Y-109124819D02*
X152142857Y-109124819D01*
X152142857Y-109124819D02*
X152095238Y-109601009D01*
X152095238Y-109601009D02*
X152142857Y-109553390D01*
X152142857Y-109553390D02*
X152238095Y-109505771D01*
X152238095Y-109505771D02*
X152476190Y-109505771D01*
X152476190Y-109505771D02*
X152571428Y-109553390D01*
X152571428Y-109553390D02*
X152619047Y-109601009D01*
X152619047Y-109601009D02*
X152666666Y-109696247D01*
X152666666Y-109696247D02*
X152666666Y-109934342D01*
X152666666Y-109934342D02*
X152619047Y-110029580D01*
X152619047Y-110029580D02*
X152571428Y-110077200D01*
X152571428Y-110077200D02*
X152476190Y-110124819D01*
X152476190Y-110124819D02*
X152238095Y-110124819D01*
X152238095Y-110124819D02*
X152142857Y-110077200D01*
X152142857Y-110077200D02*
X152095238Y-110029580D01*
X132257142Y-66754819D02*
X131923809Y-66278628D01*
X131685714Y-66754819D02*
X131685714Y-65754819D01*
X131685714Y-65754819D02*
X132066666Y-65754819D01*
X132066666Y-65754819D02*
X132161904Y-65802438D01*
X132161904Y-65802438D02*
X132209523Y-65850057D01*
X132209523Y-65850057D02*
X132257142Y-65945295D01*
X132257142Y-65945295D02*
X132257142Y-66088152D01*
X132257142Y-66088152D02*
X132209523Y-66183390D01*
X132209523Y-66183390D02*
X132161904Y-66231009D01*
X132161904Y-66231009D02*
X132066666Y-66278628D01*
X132066666Y-66278628D02*
X131685714Y-66278628D01*
X133209523Y-66754819D02*
X132638095Y-66754819D01*
X132923809Y-66754819D02*
X132923809Y-65754819D01*
X132923809Y-65754819D02*
X132828571Y-65897676D01*
X132828571Y-65897676D02*
X132733333Y-65992914D01*
X132733333Y-65992914D02*
X132638095Y-66040533D01*
X134066666Y-66088152D02*
X134066666Y-66754819D01*
X133828571Y-65707200D02*
X133590476Y-66421485D01*
X133590476Y-66421485D02*
X134209523Y-66421485D01*
X135557142Y-66754819D02*
X135223809Y-66278628D01*
X134985714Y-66754819D02*
X134985714Y-65754819D01*
X134985714Y-65754819D02*
X135366666Y-65754819D01*
X135366666Y-65754819D02*
X135461904Y-65802438D01*
X135461904Y-65802438D02*
X135509523Y-65850057D01*
X135509523Y-65850057D02*
X135557142Y-65945295D01*
X135557142Y-65945295D02*
X135557142Y-66088152D01*
X135557142Y-66088152D02*
X135509523Y-66183390D01*
X135509523Y-66183390D02*
X135461904Y-66231009D01*
X135461904Y-66231009D02*
X135366666Y-66278628D01*
X135366666Y-66278628D02*
X134985714Y-66278628D01*
X136509523Y-66754819D02*
X135938095Y-66754819D01*
X136223809Y-66754819D02*
X136223809Y-65754819D01*
X136223809Y-65754819D02*
X136128571Y-65897676D01*
X136128571Y-65897676D02*
X136033333Y-65992914D01*
X136033333Y-65992914D02*
X135938095Y-66040533D01*
X136842857Y-65754819D02*
X137461904Y-65754819D01*
X137461904Y-65754819D02*
X137128571Y-66135771D01*
X137128571Y-66135771D02*
X137271428Y-66135771D01*
X137271428Y-66135771D02*
X137366666Y-66183390D01*
X137366666Y-66183390D02*
X137414285Y-66231009D01*
X137414285Y-66231009D02*
X137461904Y-66326247D01*
X137461904Y-66326247D02*
X137461904Y-66564342D01*
X137461904Y-66564342D02*
X137414285Y-66659580D01*
X137414285Y-66659580D02*
X137366666Y-66707200D01*
X137366666Y-66707200D02*
X137271428Y-66754819D01*
X137271428Y-66754819D02*
X136985714Y-66754819D01*
X136985714Y-66754819D02*
X136890476Y-66707200D01*
X136890476Y-66707200D02*
X136842857Y-66659580D01*
X138857142Y-66754819D02*
X138523809Y-66278628D01*
X138285714Y-66754819D02*
X138285714Y-65754819D01*
X138285714Y-65754819D02*
X138666666Y-65754819D01*
X138666666Y-65754819D02*
X138761904Y-65802438D01*
X138761904Y-65802438D02*
X138809523Y-65850057D01*
X138809523Y-65850057D02*
X138857142Y-65945295D01*
X138857142Y-65945295D02*
X138857142Y-66088152D01*
X138857142Y-66088152D02*
X138809523Y-66183390D01*
X138809523Y-66183390D02*
X138761904Y-66231009D01*
X138761904Y-66231009D02*
X138666666Y-66278628D01*
X138666666Y-66278628D02*
X138285714Y-66278628D01*
X139809523Y-66754819D02*
X139238095Y-66754819D01*
X139523809Y-66754819D02*
X139523809Y-65754819D01*
X139523809Y-65754819D02*
X139428571Y-65897676D01*
X139428571Y-65897676D02*
X139333333Y-65992914D01*
X139333333Y-65992914D02*
X139238095Y-66040533D01*
X140190476Y-65850057D02*
X140238095Y-65802438D01*
X140238095Y-65802438D02*
X140333333Y-65754819D01*
X140333333Y-65754819D02*
X140571428Y-65754819D01*
X140571428Y-65754819D02*
X140666666Y-65802438D01*
X140666666Y-65802438D02*
X140714285Y-65850057D01*
X140714285Y-65850057D02*
X140761904Y-65945295D01*
X140761904Y-65945295D02*
X140761904Y-66040533D01*
X140761904Y-66040533D02*
X140714285Y-66183390D01*
X140714285Y-66183390D02*
X140142857Y-66754819D01*
X140142857Y-66754819D02*
X140761904Y-66754819D01*
X142157142Y-66754819D02*
X141823809Y-66278628D01*
X141585714Y-66754819D02*
X141585714Y-65754819D01*
X141585714Y-65754819D02*
X141966666Y-65754819D01*
X141966666Y-65754819D02*
X142061904Y-65802438D01*
X142061904Y-65802438D02*
X142109523Y-65850057D01*
X142109523Y-65850057D02*
X142157142Y-65945295D01*
X142157142Y-65945295D02*
X142157142Y-66088152D01*
X142157142Y-66088152D02*
X142109523Y-66183390D01*
X142109523Y-66183390D02*
X142061904Y-66231009D01*
X142061904Y-66231009D02*
X141966666Y-66278628D01*
X141966666Y-66278628D02*
X141585714Y-66278628D01*
X143109523Y-66754819D02*
X142538095Y-66754819D01*
X142823809Y-66754819D02*
X142823809Y-65754819D01*
X142823809Y-65754819D02*
X142728571Y-65897676D01*
X142728571Y-65897676D02*
X142633333Y-65992914D01*
X142633333Y-65992914D02*
X142538095Y-66040533D01*
X144061904Y-66754819D02*
X143490476Y-66754819D01*
X143776190Y-66754819D02*
X143776190Y-65754819D01*
X143776190Y-65754819D02*
X143680952Y-65897676D01*
X143680952Y-65897676D02*
X143585714Y-65992914D01*
X143585714Y-65992914D02*
X143490476Y-66040533D01*
X145457142Y-66754819D02*
X145123809Y-66278628D01*
X144885714Y-66754819D02*
X144885714Y-65754819D01*
X144885714Y-65754819D02*
X145266666Y-65754819D01*
X145266666Y-65754819D02*
X145361904Y-65802438D01*
X145361904Y-65802438D02*
X145409523Y-65850057D01*
X145409523Y-65850057D02*
X145457142Y-65945295D01*
X145457142Y-65945295D02*
X145457142Y-66088152D01*
X145457142Y-66088152D02*
X145409523Y-66183390D01*
X145409523Y-66183390D02*
X145361904Y-66231009D01*
X145361904Y-66231009D02*
X145266666Y-66278628D01*
X145266666Y-66278628D02*
X144885714Y-66278628D01*
X146409523Y-66754819D02*
X145838095Y-66754819D01*
X146123809Y-66754819D02*
X146123809Y-65754819D01*
X146123809Y-65754819D02*
X146028571Y-65897676D01*
X146028571Y-65897676D02*
X145933333Y-65992914D01*
X145933333Y-65992914D02*
X145838095Y-66040533D01*
X147028571Y-65754819D02*
X147123809Y-65754819D01*
X147123809Y-65754819D02*
X147219047Y-65802438D01*
X147219047Y-65802438D02*
X147266666Y-65850057D01*
X147266666Y-65850057D02*
X147314285Y-65945295D01*
X147314285Y-65945295D02*
X147361904Y-66135771D01*
X147361904Y-66135771D02*
X147361904Y-66373866D01*
X147361904Y-66373866D02*
X147314285Y-66564342D01*
X147314285Y-66564342D02*
X147266666Y-66659580D01*
X147266666Y-66659580D02*
X147219047Y-66707200D01*
X147219047Y-66707200D02*
X147123809Y-66754819D01*
X147123809Y-66754819D02*
X147028571Y-66754819D01*
X147028571Y-66754819D02*
X146933333Y-66707200D01*
X146933333Y-66707200D02*
X146885714Y-66659580D01*
X146885714Y-66659580D02*
X146838095Y-66564342D01*
X146838095Y-66564342D02*
X146790476Y-66373866D01*
X146790476Y-66373866D02*
X146790476Y-66135771D01*
X146790476Y-66135771D02*
X146838095Y-65945295D01*
X146838095Y-65945295D02*
X146885714Y-65850057D01*
X146885714Y-65850057D02*
X146933333Y-65802438D01*
X146933333Y-65802438D02*
X147028571Y-65754819D01*
X139284819Y-128216666D02*
X138808628Y-128549999D01*
X139284819Y-128788094D02*
X138284819Y-128788094D01*
X138284819Y-128788094D02*
X138284819Y-128407142D01*
X138284819Y-128407142D02*
X138332438Y-128311904D01*
X138332438Y-128311904D02*
X138380057Y-128264285D01*
X138380057Y-128264285D02*
X138475295Y-128216666D01*
X138475295Y-128216666D02*
X138618152Y-128216666D01*
X138618152Y-128216666D02*
X138713390Y-128264285D01*
X138713390Y-128264285D02*
X138761009Y-128311904D01*
X138761009Y-128311904D02*
X138808628Y-128407142D01*
X138808628Y-128407142D02*
X138808628Y-128788094D01*
X138284819Y-127359523D02*
X138284819Y-127549999D01*
X138284819Y-127549999D02*
X138332438Y-127645237D01*
X138332438Y-127645237D02*
X138380057Y-127692856D01*
X138380057Y-127692856D02*
X138522914Y-127788094D01*
X138522914Y-127788094D02*
X138713390Y-127835713D01*
X138713390Y-127835713D02*
X139094342Y-127835713D01*
X139094342Y-127835713D02*
X139189580Y-127788094D01*
X139189580Y-127788094D02*
X139237200Y-127740475D01*
X139237200Y-127740475D02*
X139284819Y-127645237D01*
X139284819Y-127645237D02*
X139284819Y-127454761D01*
X139284819Y-127454761D02*
X139237200Y-127359523D01*
X139237200Y-127359523D02*
X139189580Y-127311904D01*
X139189580Y-127311904D02*
X139094342Y-127264285D01*
X139094342Y-127264285D02*
X138856247Y-127264285D01*
X138856247Y-127264285D02*
X138761009Y-127311904D01*
X138761009Y-127311904D02*
X138713390Y-127359523D01*
X138713390Y-127359523D02*
X138665771Y-127454761D01*
X138665771Y-127454761D02*
X138665771Y-127645237D01*
X138665771Y-127645237D02*
X138713390Y-127740475D01*
X138713390Y-127740475D02*
X138761009Y-127788094D01*
X138761009Y-127788094D02*
X138856247Y-127835713D01*
X130951486Y-128216666D02*
X130475295Y-128549999D01*
X130951486Y-128788094D02*
X129951486Y-128788094D01*
X129951486Y-128788094D02*
X129951486Y-128407142D01*
X129951486Y-128407142D02*
X129999105Y-128311904D01*
X129999105Y-128311904D02*
X130046724Y-128264285D01*
X130046724Y-128264285D02*
X130141962Y-128216666D01*
X130141962Y-128216666D02*
X130284819Y-128216666D01*
X130284819Y-128216666D02*
X130380057Y-128264285D01*
X130380057Y-128264285D02*
X130427676Y-128311904D01*
X130427676Y-128311904D02*
X130475295Y-128407142D01*
X130475295Y-128407142D02*
X130475295Y-128788094D01*
X130380057Y-127645237D02*
X130332438Y-127740475D01*
X130332438Y-127740475D02*
X130284819Y-127788094D01*
X130284819Y-127788094D02*
X130189581Y-127835713D01*
X130189581Y-127835713D02*
X130141962Y-127835713D01*
X130141962Y-127835713D02*
X130046724Y-127788094D01*
X130046724Y-127788094D02*
X129999105Y-127740475D01*
X129999105Y-127740475D02*
X129951486Y-127645237D01*
X129951486Y-127645237D02*
X129951486Y-127454761D01*
X129951486Y-127454761D02*
X129999105Y-127359523D01*
X129999105Y-127359523D02*
X130046724Y-127311904D01*
X130046724Y-127311904D02*
X130141962Y-127264285D01*
X130141962Y-127264285D02*
X130189581Y-127264285D01*
X130189581Y-127264285D02*
X130284819Y-127311904D01*
X130284819Y-127311904D02*
X130332438Y-127359523D01*
X130332438Y-127359523D02*
X130380057Y-127454761D01*
X130380057Y-127454761D02*
X130380057Y-127645237D01*
X130380057Y-127645237D02*
X130427676Y-127740475D01*
X130427676Y-127740475D02*
X130475295Y-127788094D01*
X130475295Y-127788094D02*
X130570533Y-127835713D01*
X130570533Y-127835713D02*
X130761009Y-127835713D01*
X130761009Y-127835713D02*
X130856247Y-127788094D01*
X130856247Y-127788094D02*
X130903867Y-127740475D01*
X130903867Y-127740475D02*
X130951486Y-127645237D01*
X130951486Y-127645237D02*
X130951486Y-127454761D01*
X130951486Y-127454761D02*
X130903867Y-127359523D01*
X130903867Y-127359523D02*
X130856247Y-127311904D01*
X130856247Y-127311904D02*
X130761009Y-127264285D01*
X130761009Y-127264285D02*
X130570533Y-127264285D01*
X130570533Y-127264285D02*
X130475295Y-127311904D01*
X130475295Y-127311904D02*
X130427676Y-127359523D01*
X130427676Y-127359523D02*
X130380057Y-127454761D01*
X135118152Y-128216666D02*
X134641961Y-128549999D01*
X135118152Y-128788094D02*
X134118152Y-128788094D01*
X134118152Y-128788094D02*
X134118152Y-128407142D01*
X134118152Y-128407142D02*
X134165771Y-128311904D01*
X134165771Y-128311904D02*
X134213390Y-128264285D01*
X134213390Y-128264285D02*
X134308628Y-128216666D01*
X134308628Y-128216666D02*
X134451485Y-128216666D01*
X134451485Y-128216666D02*
X134546723Y-128264285D01*
X134546723Y-128264285D02*
X134594342Y-128311904D01*
X134594342Y-128311904D02*
X134641961Y-128407142D01*
X134641961Y-128407142D02*
X134641961Y-128788094D01*
X134118152Y-127883332D02*
X134118152Y-127216666D01*
X134118152Y-127216666D02*
X135118152Y-127645237D01*
X126784819Y-128216666D02*
X126308628Y-128549999D01*
X126784819Y-128788094D02*
X125784819Y-128788094D01*
X125784819Y-128788094D02*
X125784819Y-128407142D01*
X125784819Y-128407142D02*
X125832438Y-128311904D01*
X125832438Y-128311904D02*
X125880057Y-128264285D01*
X125880057Y-128264285D02*
X125975295Y-128216666D01*
X125975295Y-128216666D02*
X126118152Y-128216666D01*
X126118152Y-128216666D02*
X126213390Y-128264285D01*
X126213390Y-128264285D02*
X126261009Y-128311904D01*
X126261009Y-128311904D02*
X126308628Y-128407142D01*
X126308628Y-128407142D02*
X126308628Y-128788094D01*
X126784819Y-127740475D02*
X126784819Y-127549999D01*
X126784819Y-127549999D02*
X126737200Y-127454761D01*
X126737200Y-127454761D02*
X126689580Y-127407142D01*
X126689580Y-127407142D02*
X126546723Y-127311904D01*
X126546723Y-127311904D02*
X126356247Y-127264285D01*
X126356247Y-127264285D02*
X125975295Y-127264285D01*
X125975295Y-127264285D02*
X125880057Y-127311904D01*
X125880057Y-127311904D02*
X125832438Y-127359523D01*
X125832438Y-127359523D02*
X125784819Y-127454761D01*
X125784819Y-127454761D02*
X125784819Y-127645237D01*
X125784819Y-127645237D02*
X125832438Y-127740475D01*
X125832438Y-127740475D02*
X125880057Y-127788094D01*
X125880057Y-127788094D02*
X125975295Y-127835713D01*
X125975295Y-127835713D02*
X126213390Y-127835713D01*
X126213390Y-127835713D02*
X126308628Y-127788094D01*
X126308628Y-127788094D02*
X126356247Y-127740475D01*
X126356247Y-127740475D02*
X126403866Y-127645237D01*
X126403866Y-127645237D02*
X126403866Y-127454761D01*
X126403866Y-127454761D02*
X126356247Y-127359523D01*
X126356247Y-127359523D02*
X126308628Y-127311904D01*
X126308628Y-127311904D02*
X126213390Y-127264285D01*
X151284819Y-126716666D02*
X150808628Y-127049999D01*
X151284819Y-127288094D02*
X150284819Y-127288094D01*
X150284819Y-127288094D02*
X150284819Y-126907142D01*
X150284819Y-126907142D02*
X150332438Y-126811904D01*
X150332438Y-126811904D02*
X150380057Y-126764285D01*
X150380057Y-126764285D02*
X150475295Y-126716666D01*
X150475295Y-126716666D02*
X150618152Y-126716666D01*
X150618152Y-126716666D02*
X150713390Y-126764285D01*
X150713390Y-126764285D02*
X150761009Y-126811904D01*
X150761009Y-126811904D02*
X150808628Y-126907142D01*
X150808628Y-126907142D02*
X150808628Y-127288094D01*
X151284819Y-125764285D02*
X151284819Y-126335713D01*
X151284819Y-126049999D02*
X150284819Y-126049999D01*
X150284819Y-126049999D02*
X150427676Y-126145237D01*
X150427676Y-126145237D02*
X150522914Y-126240475D01*
X150522914Y-126240475D02*
X150570533Y-126335713D01*
X132154819Y-95492857D02*
X131678628Y-95826190D01*
X132154819Y-96064285D02*
X131154819Y-96064285D01*
X131154819Y-96064285D02*
X131154819Y-95683333D01*
X131154819Y-95683333D02*
X131202438Y-95588095D01*
X131202438Y-95588095D02*
X131250057Y-95540476D01*
X131250057Y-95540476D02*
X131345295Y-95492857D01*
X131345295Y-95492857D02*
X131488152Y-95492857D01*
X131488152Y-95492857D02*
X131583390Y-95540476D01*
X131583390Y-95540476D02*
X131631009Y-95588095D01*
X131631009Y-95588095D02*
X131678628Y-95683333D01*
X131678628Y-95683333D02*
X131678628Y-96064285D01*
X132154819Y-94540476D02*
X132154819Y-95111904D01*
X132154819Y-94826190D02*
X131154819Y-94826190D01*
X131154819Y-94826190D02*
X131297676Y-94921428D01*
X131297676Y-94921428D02*
X131392914Y-95016666D01*
X131392914Y-95016666D02*
X131440533Y-95111904D01*
X131583390Y-93969047D02*
X131535771Y-94064285D01*
X131535771Y-94064285D02*
X131488152Y-94111904D01*
X131488152Y-94111904D02*
X131392914Y-94159523D01*
X131392914Y-94159523D02*
X131345295Y-94159523D01*
X131345295Y-94159523D02*
X131250057Y-94111904D01*
X131250057Y-94111904D02*
X131202438Y-94064285D01*
X131202438Y-94064285D02*
X131154819Y-93969047D01*
X131154819Y-93969047D02*
X131154819Y-93778571D01*
X131154819Y-93778571D02*
X131202438Y-93683333D01*
X131202438Y-93683333D02*
X131250057Y-93635714D01*
X131250057Y-93635714D02*
X131345295Y-93588095D01*
X131345295Y-93588095D02*
X131392914Y-93588095D01*
X131392914Y-93588095D02*
X131488152Y-93635714D01*
X131488152Y-93635714D02*
X131535771Y-93683333D01*
X131535771Y-93683333D02*
X131583390Y-93778571D01*
X131583390Y-93778571D02*
X131583390Y-93969047D01*
X131583390Y-93969047D02*
X131631009Y-94064285D01*
X131631009Y-94064285D02*
X131678628Y-94111904D01*
X131678628Y-94111904D02*
X131773866Y-94159523D01*
X131773866Y-94159523D02*
X131964342Y-94159523D01*
X131964342Y-94159523D02*
X132059580Y-94111904D01*
X132059580Y-94111904D02*
X132107200Y-94064285D01*
X132107200Y-94064285D02*
X132154819Y-93969047D01*
X132154819Y-93969047D02*
X132154819Y-93778571D01*
X132154819Y-93778571D02*
X132107200Y-93683333D01*
X132107200Y-93683333D02*
X132059580Y-93635714D01*
X132059580Y-93635714D02*
X131964342Y-93588095D01*
X131964342Y-93588095D02*
X131773866Y-93588095D01*
X131773866Y-93588095D02*
X131678628Y-93635714D01*
X131678628Y-93635714D02*
X131631009Y-93683333D01*
X131631009Y-93683333D02*
X131583390Y-93778571D01*
X131259580Y-115466666D02*
X131307200Y-115514285D01*
X131307200Y-115514285D02*
X131354819Y-115657142D01*
X131354819Y-115657142D02*
X131354819Y-115752380D01*
X131354819Y-115752380D02*
X131307200Y-115895237D01*
X131307200Y-115895237D02*
X131211961Y-115990475D01*
X131211961Y-115990475D02*
X131116723Y-116038094D01*
X131116723Y-116038094D02*
X130926247Y-116085713D01*
X130926247Y-116085713D02*
X130783390Y-116085713D01*
X130783390Y-116085713D02*
X130592914Y-116038094D01*
X130592914Y-116038094D02*
X130497676Y-115990475D01*
X130497676Y-115990475D02*
X130402438Y-115895237D01*
X130402438Y-115895237D02*
X130354819Y-115752380D01*
X130354819Y-115752380D02*
X130354819Y-115657142D01*
X130354819Y-115657142D02*
X130402438Y-115514285D01*
X130402438Y-115514285D02*
X130450057Y-115466666D01*
X130783390Y-114895237D02*
X130735771Y-114990475D01*
X130735771Y-114990475D02*
X130688152Y-115038094D01*
X130688152Y-115038094D02*
X130592914Y-115085713D01*
X130592914Y-115085713D02*
X130545295Y-115085713D01*
X130545295Y-115085713D02*
X130450057Y-115038094D01*
X130450057Y-115038094D02*
X130402438Y-114990475D01*
X130402438Y-114990475D02*
X130354819Y-114895237D01*
X130354819Y-114895237D02*
X130354819Y-114704761D01*
X130354819Y-114704761D02*
X130402438Y-114609523D01*
X130402438Y-114609523D02*
X130450057Y-114561904D01*
X130450057Y-114561904D02*
X130545295Y-114514285D01*
X130545295Y-114514285D02*
X130592914Y-114514285D01*
X130592914Y-114514285D02*
X130688152Y-114561904D01*
X130688152Y-114561904D02*
X130735771Y-114609523D01*
X130735771Y-114609523D02*
X130783390Y-114704761D01*
X130783390Y-114704761D02*
X130783390Y-114895237D01*
X130783390Y-114895237D02*
X130831009Y-114990475D01*
X130831009Y-114990475D02*
X130878628Y-115038094D01*
X130878628Y-115038094D02*
X130973866Y-115085713D01*
X130973866Y-115085713D02*
X131164342Y-115085713D01*
X131164342Y-115085713D02*
X131259580Y-115038094D01*
X131259580Y-115038094D02*
X131307200Y-114990475D01*
X131307200Y-114990475D02*
X131354819Y-114895237D01*
X131354819Y-114895237D02*
X131354819Y-114704761D01*
X131354819Y-114704761D02*
X131307200Y-114609523D01*
X131307200Y-114609523D02*
X131259580Y-114561904D01*
X131259580Y-114561904D02*
X131164342Y-114514285D01*
X131164342Y-114514285D02*
X130973866Y-114514285D01*
X130973866Y-114514285D02*
X130878628Y-114561904D01*
X130878628Y-114561904D02*
X130831009Y-114609523D01*
X130831009Y-114609523D02*
X130783390Y-114704761D01*
X137304819Y-117838094D02*
X136304819Y-117838094D01*
X136304819Y-117838094D02*
X136304819Y-117599999D01*
X136304819Y-117599999D02*
X136352438Y-117457142D01*
X136352438Y-117457142D02*
X136447676Y-117361904D01*
X136447676Y-117361904D02*
X136542914Y-117314285D01*
X136542914Y-117314285D02*
X136733390Y-117266666D01*
X136733390Y-117266666D02*
X136876247Y-117266666D01*
X136876247Y-117266666D02*
X137066723Y-117314285D01*
X137066723Y-117314285D02*
X137161961Y-117361904D01*
X137161961Y-117361904D02*
X137257200Y-117457142D01*
X137257200Y-117457142D02*
X137304819Y-117599999D01*
X137304819Y-117599999D02*
X137304819Y-117838094D01*
X136304819Y-116409523D02*
X136304819Y-116599999D01*
X136304819Y-116599999D02*
X136352438Y-116695237D01*
X136352438Y-116695237D02*
X136400057Y-116742856D01*
X136400057Y-116742856D02*
X136542914Y-116838094D01*
X136542914Y-116838094D02*
X136733390Y-116885713D01*
X136733390Y-116885713D02*
X137114342Y-116885713D01*
X137114342Y-116885713D02*
X137209580Y-116838094D01*
X137209580Y-116838094D02*
X137257200Y-116790475D01*
X137257200Y-116790475D02*
X137304819Y-116695237D01*
X137304819Y-116695237D02*
X137304819Y-116504761D01*
X137304819Y-116504761D02*
X137257200Y-116409523D01*
X137257200Y-116409523D02*
X137209580Y-116361904D01*
X137209580Y-116361904D02*
X137114342Y-116314285D01*
X137114342Y-116314285D02*
X136876247Y-116314285D01*
X136876247Y-116314285D02*
X136781009Y-116361904D01*
X136781009Y-116361904D02*
X136733390Y-116409523D01*
X136733390Y-116409523D02*
X136685771Y-116504761D01*
X136685771Y-116504761D02*
X136685771Y-116695237D01*
X136685771Y-116695237D02*
X136733390Y-116790475D01*
X136733390Y-116790475D02*
X136781009Y-116838094D01*
X136781009Y-116838094D02*
X136876247Y-116885713D01*
X131259580Y-113142857D02*
X131307200Y-113190476D01*
X131307200Y-113190476D02*
X131354819Y-113333333D01*
X131354819Y-113333333D02*
X131354819Y-113428571D01*
X131354819Y-113428571D02*
X131307200Y-113571428D01*
X131307200Y-113571428D02*
X131211961Y-113666666D01*
X131211961Y-113666666D02*
X131116723Y-113714285D01*
X131116723Y-113714285D02*
X130926247Y-113761904D01*
X130926247Y-113761904D02*
X130783390Y-113761904D01*
X130783390Y-113761904D02*
X130592914Y-113714285D01*
X130592914Y-113714285D02*
X130497676Y-113666666D01*
X130497676Y-113666666D02*
X130402438Y-113571428D01*
X130402438Y-113571428D02*
X130354819Y-113428571D01*
X130354819Y-113428571D02*
X130354819Y-113333333D01*
X130354819Y-113333333D02*
X130402438Y-113190476D01*
X130402438Y-113190476D02*
X130450057Y-113142857D01*
X131354819Y-112190476D02*
X131354819Y-112761904D01*
X131354819Y-112476190D02*
X130354819Y-112476190D01*
X130354819Y-112476190D02*
X130497676Y-112571428D01*
X130497676Y-112571428D02*
X130592914Y-112666666D01*
X130592914Y-112666666D02*
X130640533Y-112761904D01*
X130354819Y-111857142D02*
X130354819Y-111238095D01*
X130354819Y-111238095D02*
X130735771Y-111571428D01*
X130735771Y-111571428D02*
X130735771Y-111428571D01*
X130735771Y-111428571D02*
X130783390Y-111333333D01*
X130783390Y-111333333D02*
X130831009Y-111285714D01*
X130831009Y-111285714D02*
X130926247Y-111238095D01*
X130926247Y-111238095D02*
X131164342Y-111238095D01*
X131164342Y-111238095D02*
X131259580Y-111285714D01*
X131259580Y-111285714D02*
X131307200Y-111333333D01*
X131307200Y-111333333D02*
X131354819Y-111428571D01*
X131354819Y-111428571D02*
X131354819Y-111714285D01*
X131354819Y-111714285D02*
X131307200Y-111809523D01*
X131307200Y-111809523D02*
X131259580Y-111857142D01*
X131259580Y-109866666D02*
X131307200Y-109914285D01*
X131307200Y-109914285D02*
X131354819Y-110057142D01*
X131354819Y-110057142D02*
X131354819Y-110152380D01*
X131354819Y-110152380D02*
X131307200Y-110295237D01*
X131307200Y-110295237D02*
X131211961Y-110390475D01*
X131211961Y-110390475D02*
X131116723Y-110438094D01*
X131116723Y-110438094D02*
X130926247Y-110485713D01*
X130926247Y-110485713D02*
X130783390Y-110485713D01*
X130783390Y-110485713D02*
X130592914Y-110438094D01*
X130592914Y-110438094D02*
X130497676Y-110390475D01*
X130497676Y-110390475D02*
X130402438Y-110295237D01*
X130402438Y-110295237D02*
X130354819Y-110152380D01*
X130354819Y-110152380D02*
X130354819Y-110057142D01*
X130354819Y-110057142D02*
X130402438Y-109914285D01*
X130402438Y-109914285D02*
X130450057Y-109866666D01*
X131354819Y-109390475D02*
X131354819Y-109199999D01*
X131354819Y-109199999D02*
X131307200Y-109104761D01*
X131307200Y-109104761D02*
X131259580Y-109057142D01*
X131259580Y-109057142D02*
X131116723Y-108961904D01*
X131116723Y-108961904D02*
X130926247Y-108914285D01*
X130926247Y-108914285D02*
X130545295Y-108914285D01*
X130545295Y-108914285D02*
X130450057Y-108961904D01*
X130450057Y-108961904D02*
X130402438Y-109009523D01*
X130402438Y-109009523D02*
X130354819Y-109104761D01*
X130354819Y-109104761D02*
X130354819Y-109295237D01*
X130354819Y-109295237D02*
X130402438Y-109390475D01*
X130402438Y-109390475D02*
X130450057Y-109438094D01*
X130450057Y-109438094D02*
X130545295Y-109485713D01*
X130545295Y-109485713D02*
X130783390Y-109485713D01*
X130783390Y-109485713D02*
X130878628Y-109438094D01*
X130878628Y-109438094D02*
X130926247Y-109390475D01*
X130926247Y-109390475D02*
X130973866Y-109295237D01*
X130973866Y-109295237D02*
X130973866Y-109104761D01*
X130973866Y-109104761D02*
X130926247Y-109009523D01*
X130926247Y-109009523D02*
X130878628Y-108961904D01*
X130878628Y-108961904D02*
X130783390Y-108914285D01*
X143954819Y-117838094D02*
X142954819Y-117838094D01*
X142954819Y-117838094D02*
X142954819Y-117599999D01*
X142954819Y-117599999D02*
X143002438Y-117457142D01*
X143002438Y-117457142D02*
X143097676Y-117361904D01*
X143097676Y-117361904D02*
X143192914Y-117314285D01*
X143192914Y-117314285D02*
X143383390Y-117266666D01*
X143383390Y-117266666D02*
X143526247Y-117266666D01*
X143526247Y-117266666D02*
X143716723Y-117314285D01*
X143716723Y-117314285D02*
X143811961Y-117361904D01*
X143811961Y-117361904D02*
X143907200Y-117457142D01*
X143907200Y-117457142D02*
X143954819Y-117599999D01*
X143954819Y-117599999D02*
X143954819Y-117838094D01*
X142954819Y-116933332D02*
X142954819Y-116266666D01*
X142954819Y-116266666D02*
X143954819Y-116695237D01*
X135683332Y-100279802D02*
X135797618Y-100317897D01*
X135797618Y-100317897D02*
X135988094Y-100317897D01*
X135988094Y-100317897D02*
X136064285Y-100279802D01*
X136064285Y-100279802D02*
X136102380Y-100241706D01*
X136102380Y-100241706D02*
X136140475Y-100165516D01*
X136140475Y-100165516D02*
X136140475Y-100089325D01*
X136140475Y-100089325D02*
X136102380Y-100013135D01*
X136102380Y-100013135D02*
X136064285Y-99975040D01*
X136064285Y-99975040D02*
X135988094Y-99936944D01*
X135988094Y-99936944D02*
X135835713Y-99898849D01*
X135835713Y-99898849D02*
X135759523Y-99860754D01*
X135759523Y-99860754D02*
X135721428Y-99822659D01*
X135721428Y-99822659D02*
X135683332Y-99746468D01*
X135683332Y-99746468D02*
X135683332Y-99670278D01*
X135683332Y-99670278D02*
X135721428Y-99594087D01*
X135721428Y-99594087D02*
X135759523Y-99555992D01*
X135759523Y-99555992D02*
X135835713Y-99517897D01*
X135835713Y-99517897D02*
X136026190Y-99517897D01*
X136026190Y-99517897D02*
X136140475Y-99555992D01*
X136407142Y-99517897D02*
X136597618Y-100317897D01*
X136597618Y-100317897D02*
X136749999Y-99746468D01*
X136749999Y-99746468D02*
X136902380Y-100317897D01*
X136902380Y-100317897D02*
X137092857Y-99517897D01*
X137740476Y-99784563D02*
X137740476Y-100317897D01*
X137550000Y-99479802D02*
X137359523Y-100051230D01*
X137359523Y-100051230D02*
X137854762Y-100051230D01*
X135683332Y-90479802D02*
X135797618Y-90517897D01*
X135797618Y-90517897D02*
X135988094Y-90517897D01*
X135988094Y-90517897D02*
X136064285Y-90479802D01*
X136064285Y-90479802D02*
X136102380Y-90441706D01*
X136102380Y-90441706D02*
X136140475Y-90365516D01*
X136140475Y-90365516D02*
X136140475Y-90289325D01*
X136140475Y-90289325D02*
X136102380Y-90213135D01*
X136102380Y-90213135D02*
X136064285Y-90175040D01*
X136064285Y-90175040D02*
X135988094Y-90136944D01*
X135988094Y-90136944D02*
X135835713Y-90098849D01*
X135835713Y-90098849D02*
X135759523Y-90060754D01*
X135759523Y-90060754D02*
X135721428Y-90022659D01*
X135721428Y-90022659D02*
X135683332Y-89946468D01*
X135683332Y-89946468D02*
X135683332Y-89870278D01*
X135683332Y-89870278D02*
X135721428Y-89794087D01*
X135721428Y-89794087D02*
X135759523Y-89755992D01*
X135759523Y-89755992D02*
X135835713Y-89717897D01*
X135835713Y-89717897D02*
X136026190Y-89717897D01*
X136026190Y-89717897D02*
X136140475Y-89755992D01*
X136407142Y-89717897D02*
X136597618Y-90517897D01*
X136597618Y-90517897D02*
X136749999Y-89946468D01*
X136749999Y-89946468D02*
X136902380Y-90517897D01*
X136902380Y-90517897D02*
X137092857Y-89717897D01*
X137321428Y-89717897D02*
X137816666Y-89717897D01*
X137816666Y-89717897D02*
X137550000Y-90022659D01*
X137550000Y-90022659D02*
X137664285Y-90022659D01*
X137664285Y-90022659D02*
X137740476Y-90060754D01*
X137740476Y-90060754D02*
X137778571Y-90098849D01*
X137778571Y-90098849D02*
X137816666Y-90175040D01*
X137816666Y-90175040D02*
X137816666Y-90365516D01*
X137816666Y-90365516D02*
X137778571Y-90441706D01*
X137778571Y-90441706D02*
X137740476Y-90479802D01*
X137740476Y-90479802D02*
X137664285Y-90517897D01*
X137664285Y-90517897D02*
X137435714Y-90517897D01*
X137435714Y-90517897D02*
X137359523Y-90479802D01*
X137359523Y-90479802D02*
X137321428Y-90441706D01*
X142638095Y-107454819D02*
X142638095Y-108264342D01*
X142638095Y-108264342D02*
X142685714Y-108359580D01*
X142685714Y-108359580D02*
X142733333Y-108407200D01*
X142733333Y-108407200D02*
X142828571Y-108454819D01*
X142828571Y-108454819D02*
X143019047Y-108454819D01*
X143019047Y-108454819D02*
X143114285Y-108407200D01*
X143114285Y-108407200D02*
X143161904Y-108359580D01*
X143161904Y-108359580D02*
X143209523Y-108264342D01*
X143209523Y-108264342D02*
X143209523Y-107454819D01*
X143638095Y-107550057D02*
X143685714Y-107502438D01*
X143685714Y-107502438D02*
X143780952Y-107454819D01*
X143780952Y-107454819D02*
X144019047Y-107454819D01*
X144019047Y-107454819D02*
X144114285Y-107502438D01*
X144114285Y-107502438D02*
X144161904Y-107550057D01*
X144161904Y-107550057D02*
X144209523Y-107645295D01*
X144209523Y-107645295D02*
X144209523Y-107740533D01*
X144209523Y-107740533D02*
X144161904Y-107883390D01*
X144161904Y-107883390D02*
X143590476Y-108454819D01*
X143590476Y-108454819D02*
X144209523Y-108454819D01*
X147784819Y-126716666D02*
X147308628Y-127049999D01*
X147784819Y-127288094D02*
X146784819Y-127288094D01*
X146784819Y-127288094D02*
X146784819Y-126907142D01*
X146784819Y-126907142D02*
X146832438Y-126811904D01*
X146832438Y-126811904D02*
X146880057Y-126764285D01*
X146880057Y-126764285D02*
X146975295Y-126716666D01*
X146975295Y-126716666D02*
X147118152Y-126716666D01*
X147118152Y-126716666D02*
X147213390Y-126764285D01*
X147213390Y-126764285D02*
X147261009Y-126811904D01*
X147261009Y-126811904D02*
X147308628Y-126907142D01*
X147308628Y-126907142D02*
X147308628Y-127288094D01*
X146880057Y-126335713D02*
X146832438Y-126288094D01*
X146832438Y-126288094D02*
X146784819Y-126192856D01*
X146784819Y-126192856D02*
X146784819Y-125954761D01*
X146784819Y-125954761D02*
X146832438Y-125859523D01*
X146832438Y-125859523D02*
X146880057Y-125811904D01*
X146880057Y-125811904D02*
X146975295Y-125764285D01*
X146975295Y-125764285D02*
X147070533Y-125764285D01*
X147070533Y-125764285D02*
X147213390Y-125811904D01*
X147213390Y-125811904D02*
X147784819Y-126383332D01*
X147784819Y-126383332D02*
X147784819Y-125764285D01*
X135103707Y-121720762D02*
X134627516Y-122054095D01*
X135103707Y-122292190D02*
X134103707Y-122292190D01*
X134103707Y-122292190D02*
X134103707Y-121911238D01*
X134103707Y-121911238D02*
X134151326Y-121816000D01*
X134151326Y-121816000D02*
X134198945Y-121768381D01*
X134198945Y-121768381D02*
X134294183Y-121720762D01*
X134294183Y-121720762D02*
X134437040Y-121720762D01*
X134437040Y-121720762D02*
X134532278Y-121768381D01*
X134532278Y-121768381D02*
X134579897Y-121816000D01*
X134579897Y-121816000D02*
X134627516Y-121911238D01*
X134627516Y-121911238D02*
X134627516Y-122292190D01*
X134103707Y-121387428D02*
X134103707Y-120768381D01*
X134103707Y-120768381D02*
X134484659Y-121101714D01*
X134484659Y-121101714D02*
X134484659Y-120958857D01*
X134484659Y-120958857D02*
X134532278Y-120863619D01*
X134532278Y-120863619D02*
X134579897Y-120816000D01*
X134579897Y-120816000D02*
X134675135Y-120768381D01*
X134675135Y-120768381D02*
X134913230Y-120768381D01*
X134913230Y-120768381D02*
X135008468Y-120816000D01*
X135008468Y-120816000D02*
X135056088Y-120863619D01*
X135056088Y-120863619D02*
X135103707Y-120958857D01*
X135103707Y-120958857D02*
X135103707Y-121244571D01*
X135103707Y-121244571D02*
X135056088Y-121339809D01*
X135056088Y-121339809D02*
X135008468Y-121387428D01*
X130929263Y-121666666D02*
X130453072Y-121999999D01*
X130929263Y-122238094D02*
X129929263Y-122238094D01*
X129929263Y-122238094D02*
X129929263Y-121857142D01*
X129929263Y-121857142D02*
X129976882Y-121761904D01*
X129976882Y-121761904D02*
X130024501Y-121714285D01*
X130024501Y-121714285D02*
X130119739Y-121666666D01*
X130119739Y-121666666D02*
X130262596Y-121666666D01*
X130262596Y-121666666D02*
X130357834Y-121714285D01*
X130357834Y-121714285D02*
X130405453Y-121761904D01*
X130405453Y-121761904D02*
X130453072Y-121857142D01*
X130453072Y-121857142D02*
X130453072Y-122238094D01*
X130262596Y-120809523D02*
X130929263Y-120809523D01*
X129881644Y-121047618D02*
X130595929Y-121285713D01*
X130595929Y-121285713D02*
X130595929Y-120666666D01*
X126754819Y-121616666D02*
X126278628Y-121949999D01*
X126754819Y-122188094D02*
X125754819Y-122188094D01*
X125754819Y-122188094D02*
X125754819Y-121807142D01*
X125754819Y-121807142D02*
X125802438Y-121711904D01*
X125802438Y-121711904D02*
X125850057Y-121664285D01*
X125850057Y-121664285D02*
X125945295Y-121616666D01*
X125945295Y-121616666D02*
X126088152Y-121616666D01*
X126088152Y-121616666D02*
X126183390Y-121664285D01*
X126183390Y-121664285D02*
X126231009Y-121711904D01*
X126231009Y-121711904D02*
X126278628Y-121807142D01*
X126278628Y-121807142D02*
X126278628Y-122188094D01*
X125754819Y-120711904D02*
X125754819Y-121188094D01*
X125754819Y-121188094D02*
X126231009Y-121235713D01*
X126231009Y-121235713D02*
X126183390Y-121188094D01*
X126183390Y-121188094D02*
X126135771Y-121092856D01*
X126135771Y-121092856D02*
X126135771Y-120854761D01*
X126135771Y-120854761D02*
X126183390Y-120759523D01*
X126183390Y-120759523D02*
X126231009Y-120711904D01*
X126231009Y-120711904D02*
X126326247Y-120664285D01*
X126326247Y-120664285D02*
X126564342Y-120664285D01*
X126564342Y-120664285D02*
X126659580Y-120711904D01*
X126659580Y-120711904D02*
X126707200Y-120759523D01*
X126707200Y-120759523D02*
X126754819Y-120854761D01*
X126754819Y-120854761D02*
X126754819Y-121092856D01*
X126754819Y-121092856D02*
X126707200Y-121188094D01*
X126707200Y-121188094D02*
X126659580Y-121235713D01*
X149324819Y-96342857D02*
X148848628Y-96676190D01*
X149324819Y-96914285D02*
X148324819Y-96914285D01*
X148324819Y-96914285D02*
X148324819Y-96533333D01*
X148324819Y-96533333D02*
X148372438Y-96438095D01*
X148372438Y-96438095D02*
X148420057Y-96390476D01*
X148420057Y-96390476D02*
X148515295Y-96342857D01*
X148515295Y-96342857D02*
X148658152Y-96342857D01*
X148658152Y-96342857D02*
X148753390Y-96390476D01*
X148753390Y-96390476D02*
X148801009Y-96438095D01*
X148801009Y-96438095D02*
X148848628Y-96533333D01*
X148848628Y-96533333D02*
X148848628Y-96914285D01*
X149324819Y-95390476D02*
X149324819Y-95961904D01*
X149324819Y-95676190D02*
X148324819Y-95676190D01*
X148324819Y-95676190D02*
X148467676Y-95771428D01*
X148467676Y-95771428D02*
X148562914Y-95866666D01*
X148562914Y-95866666D02*
X148610533Y-95961904D01*
X148324819Y-94485714D02*
X148324819Y-94961904D01*
X148324819Y-94961904D02*
X148801009Y-95009523D01*
X148801009Y-95009523D02*
X148753390Y-94961904D01*
X148753390Y-94961904D02*
X148705771Y-94866666D01*
X148705771Y-94866666D02*
X148705771Y-94628571D01*
X148705771Y-94628571D02*
X148753390Y-94533333D01*
X148753390Y-94533333D02*
X148801009Y-94485714D01*
X148801009Y-94485714D02*
X148896247Y-94438095D01*
X148896247Y-94438095D02*
X149134342Y-94438095D01*
X149134342Y-94438095D02*
X149229580Y-94485714D01*
X149229580Y-94485714D02*
X149277200Y-94533333D01*
X149277200Y-94533333D02*
X149324819Y-94628571D01*
X149324819Y-94628571D02*
X149324819Y-94866666D01*
X149324819Y-94866666D02*
X149277200Y-94961904D01*
X149277200Y-94961904D02*
X149229580Y-95009523D01*
X128338095Y-66154819D02*
X128338095Y-66964342D01*
X128338095Y-66964342D02*
X128385714Y-67059580D01*
X128385714Y-67059580D02*
X128433333Y-67107200D01*
X128433333Y-67107200D02*
X128528571Y-67154819D01*
X128528571Y-67154819D02*
X128719047Y-67154819D01*
X128719047Y-67154819D02*
X128814285Y-67107200D01*
X128814285Y-67107200D02*
X128861904Y-67059580D01*
X128861904Y-67059580D02*
X128909523Y-66964342D01*
X128909523Y-66964342D02*
X128909523Y-66154819D01*
X129909523Y-67154819D02*
X129338095Y-67154819D01*
X129623809Y-67154819D02*
X129623809Y-66154819D01*
X129623809Y-66154819D02*
X129528571Y-66297676D01*
X129528571Y-66297676D02*
X129433333Y-66392914D01*
X129433333Y-66392914D02*
X129338095Y-66440533D01*
X140266666Y-142154819D02*
X140266666Y-142869104D01*
X140266666Y-142869104D02*
X140219047Y-143011961D01*
X140219047Y-143011961D02*
X140123809Y-143107200D01*
X140123809Y-143107200D02*
X139980952Y-143154819D01*
X139980952Y-143154819D02*
X139885714Y-143154819D01*
X141171428Y-142488152D02*
X141171428Y-143154819D01*
X140933333Y-142107200D02*
X140695238Y-142821485D01*
X140695238Y-142821485D02*
X141314285Y-142821485D01*
X150166666Y-132454819D02*
X150166666Y-133169104D01*
X150166666Y-133169104D02*
X150119047Y-133311961D01*
X150119047Y-133311961D02*
X150023809Y-133407200D01*
X150023809Y-133407200D02*
X149880952Y-133454819D01*
X149880952Y-133454819D02*
X149785714Y-133454819D01*
X150547619Y-132454819D02*
X151166666Y-132454819D01*
X151166666Y-132454819D02*
X150833333Y-132835771D01*
X150833333Y-132835771D02*
X150976190Y-132835771D01*
X150976190Y-132835771D02*
X151071428Y-132883390D01*
X151071428Y-132883390D02*
X151119047Y-132931009D01*
X151119047Y-132931009D02*
X151166666Y-133026247D01*
X151166666Y-133026247D02*
X151166666Y-133264342D01*
X151166666Y-133264342D02*
X151119047Y-133359580D01*
X151119047Y-133359580D02*
X151071428Y-133407200D01*
X151071428Y-133407200D02*
X150976190Y-133454819D01*
X150976190Y-133454819D02*
X150690476Y-133454819D01*
X150690476Y-133454819D02*
X150595238Y-133407200D01*
X150595238Y-133407200D02*
X150547619Y-133359580D01*
X128166666Y-132454819D02*
X128166666Y-133169104D01*
X128166666Y-133169104D02*
X128119047Y-133311961D01*
X128119047Y-133311961D02*
X128023809Y-133407200D01*
X128023809Y-133407200D02*
X127880952Y-133454819D01*
X127880952Y-133454819D02*
X127785714Y-133454819D01*
X128595238Y-132550057D02*
X128642857Y-132502438D01*
X128642857Y-132502438D02*
X128738095Y-132454819D01*
X128738095Y-132454819D02*
X128976190Y-132454819D01*
X128976190Y-132454819D02*
X129071428Y-132502438D01*
X129071428Y-132502438D02*
X129119047Y-132550057D01*
X129119047Y-132550057D02*
X129166666Y-132645295D01*
X129166666Y-132645295D02*
X129166666Y-132740533D01*
X129166666Y-132740533D02*
X129119047Y-132883390D01*
X129119047Y-132883390D02*
X128547619Y-133454819D01*
X128547619Y-133454819D02*
X129166666Y-133454819D01*
X149807142Y-123184819D02*
X149473809Y-122708628D01*
X149235714Y-123184819D02*
X149235714Y-122184819D01*
X149235714Y-122184819D02*
X149616666Y-122184819D01*
X149616666Y-122184819D02*
X149711904Y-122232438D01*
X149711904Y-122232438D02*
X149759523Y-122280057D01*
X149759523Y-122280057D02*
X149807142Y-122375295D01*
X149807142Y-122375295D02*
X149807142Y-122518152D01*
X149807142Y-122518152D02*
X149759523Y-122613390D01*
X149759523Y-122613390D02*
X149711904Y-122661009D01*
X149711904Y-122661009D02*
X149616666Y-122708628D01*
X149616666Y-122708628D02*
X149235714Y-122708628D01*
X150759523Y-123184819D02*
X150188095Y-123184819D01*
X150473809Y-123184819D02*
X150473809Y-122184819D01*
X150473809Y-122184819D02*
X150378571Y-122327676D01*
X150378571Y-122327676D02*
X150283333Y-122422914D01*
X150283333Y-122422914D02*
X150188095Y-122470533D01*
X151092857Y-122184819D02*
X151759523Y-122184819D01*
X151759523Y-122184819D02*
X151330952Y-123184819D01*
D14*
%TO.C,R16*%
X144372936Y-119990000D02*
X145827064Y-119990000D01*
X144372936Y-121810000D02*
X145827064Y-121810000D01*
%TO.C,D9*%
X151300000Y-113690000D02*
X149300000Y-113690000D01*
X151300000Y-113690000D02*
X151300000Y-117700000D01*
X149300000Y-113690000D02*
X149300000Y-117700000D01*
%TO.C,D8*%
X149750000Y-109040000D02*
X148050000Y-109040000D01*
X149750000Y-109040000D02*
X149750000Y-112300000D01*
X148050000Y-109040000D02*
X148050000Y-112300000D01*
%TO.C,R19*%
X132590000Y-105327064D02*
X132590000Y-103872936D01*
X134410000Y-105327064D02*
X134410000Y-103872936D01*
%TO.C,C10*%
X145784165Y-115960000D02*
X146015835Y-115960000D01*
X145784165Y-115240000D02*
X146015835Y-115240000D01*
%TO.C,C11*%
X134016665Y-92160000D02*
X134248335Y-92160000D01*
X134016665Y-91440000D02*
X134248335Y-91440000D01*
%TO.C,C12*%
X133916665Y-101860000D02*
X134148335Y-101860000D01*
X133916665Y-101140000D02*
X134148335Y-101140000D01*
%TO.C,C14*%
X145784165Y-112660000D02*
X146015835Y-112660000D01*
X145784165Y-111940000D02*
X146015835Y-111940000D01*
%TO.C,D10*%
X145558563Y-103920000D02*
G75*
G02*
X148790000Y-103764484I1671437J-1080000D01*
G01*
X146189039Y-103920000D02*
G75*
G02*
X148270961Y-103920000I1040961J-1080000D01*
G01*
X148270961Y-106080000D02*
G75*
G02*
X146189039Y-106080000I-1040961J1080000D01*
G01*
X148790000Y-106235516D02*
G75*
G02*
X145558563Y-106080000I-1560000J1235516D01*
G01*
X148790000Y-103920000D02*
X148790000Y-103764000D01*
X148790000Y-106236000D02*
X148790000Y-106080000D01*
%TO.C,J1*%
X144890000Y-57880000D02*
X132080000Y-57880000D01*
X132080000Y-55120000D02*
X132080000Y-57880000D01*
X144890000Y-55120000D02*
X144890000Y-57880000D01*
X144890000Y-55120000D02*
X132080000Y-55120000D01*
X146160000Y-55120000D02*
X147540000Y-55120000D01*
X147540000Y-55120000D02*
X147540000Y-56500000D01*
%TO.C,J5*%
X150620000Y-106020000D02*
X150620000Y-103370000D01*
X153380000Y-103370000D02*
X150620000Y-103370000D01*
X153380000Y-106020000D02*
X150620000Y-106020000D01*
X153380000Y-106020000D02*
X153380000Y-103370000D01*
X153380000Y-107290000D02*
X153380000Y-108670000D01*
X153380000Y-108670000D02*
X152000000Y-108670000D01*
%TO.C,R14*%
X133790000Y-63727064D02*
X133790000Y-62272936D01*
X131970000Y-63727064D02*
X131970000Y-62272936D01*
%TO.C,R13*%
X137100000Y-63727064D02*
X137100000Y-62272936D01*
X135280000Y-63727064D02*
X135280000Y-62272936D01*
%TO.C,R12*%
X140410000Y-63727064D02*
X140410000Y-62272936D01*
X138590000Y-63727064D02*
X138590000Y-62272936D01*
%TO.C,R11*%
X143720000Y-63727064D02*
X143720000Y-62272936D01*
X141900000Y-63727064D02*
X141900000Y-62272936D01*
%TO.C,R10*%
X147030000Y-63727064D02*
X147030000Y-62272936D01*
X145210000Y-63727064D02*
X145210000Y-62272936D01*
%TO.C,R6*%
X136090000Y-127322936D02*
X136090000Y-128777064D01*
X137910000Y-127322936D02*
X137910000Y-128777064D01*
%TO.C,R8*%
X127756667Y-127322936D02*
X127756667Y-128777064D01*
X129576667Y-127322936D02*
X129576667Y-128777064D01*
%TO.C,R7*%
X131923333Y-127322936D02*
X131923333Y-128777064D01*
X133743333Y-127322936D02*
X133743333Y-128777064D01*
%TO.C,R9*%
X123590000Y-127322936D02*
X123590000Y-128777064D01*
X125410000Y-127322936D02*
X125410000Y-128777064D01*
%TO.C,R1*%
X148090000Y-125822936D02*
X148090000Y-127277064D01*
X149910000Y-125822936D02*
X149910000Y-127277064D01*
%TO.C,R18*%
X134410000Y-95577064D02*
X134410000Y-94122936D01*
X132590000Y-95577064D02*
X132590000Y-94122936D01*
%TO.C,C8*%
X133716199Y-115485000D02*
X133193695Y-115485000D01*
X133716199Y-114015000D02*
X133193695Y-114015000D01*
%TO.C,D6*%
X139491529Y-120260000D02*
X139491529Y-117000000D01*
X137791529Y-120260000D02*
X137791529Y-117000000D01*
X137791529Y-120260000D02*
X139491529Y-120260000D01*
%TO.C,C13*%
X133723752Y-113196462D02*
X133201248Y-113196462D01*
X133723752Y-111726462D02*
X133201248Y-111726462D01*
%TO.C,C9*%
X133723752Y-110907924D02*
X133201248Y-110907924D01*
X133723752Y-109437924D02*
X133201248Y-109437924D01*
%TO.C,D7*%
X142441529Y-120260000D02*
X142441529Y-117000000D01*
X140741529Y-120260000D02*
X140741529Y-117000000D01*
X140741529Y-120260000D02*
X142441529Y-120260000D01*
D15*
%TO.C,SW4*%
X137800000Y-100805000D02*
X142300000Y-100805000D01*
X143000000Y-102650000D02*
X143000000Y-104950000D01*
X142300000Y-106795000D02*
X137700000Y-106795000D01*
X137005000Y-102650000D02*
X137005000Y-104950000D01*
X141755000Y-103800000D02*
G75*
G02*
X138245000Y-103800000I-1755000J0D01*
G01*
X138245000Y-103800000D02*
G75*
G02*
X141755000Y-103800000I1755000J0D01*
G01*
D11*
X135655000Y-101550000D02*
G75*
G02*
X135455000Y-101550000I-100000J0D01*
G01*
X135455000Y-101550000D02*
G75*
G02*
X135655000Y-101550000I100000J0D01*
G01*
D15*
%TO.C,SW3*%
X137800000Y-91005000D02*
X142300000Y-91005000D01*
X143000000Y-92850000D02*
X143000000Y-95150000D01*
X142300000Y-96995000D02*
X137700000Y-96995000D01*
X137005000Y-92850000D02*
X137005000Y-95150000D01*
X141755000Y-94000000D02*
G75*
G02*
X138245000Y-94000000I-1755000J0D01*
G01*
X138245000Y-94000000D02*
G75*
G02*
X141755000Y-94000000I1755000J0D01*
G01*
D11*
X135655000Y-91750000D02*
G75*
G02*
X135455000Y-91750000I-100000J0D01*
G01*
X135455000Y-91750000D02*
G75*
G02*
X135655000Y-91750000I100000J0D01*
G01*
D14*
%TO.C,U2*%
X138150000Y-109090000D02*
X141910000Y-109090000D01*
X138150000Y-115910000D02*
X141910000Y-115910000D01*
X141910000Y-109090000D02*
X141910000Y-110350000D01*
X141910000Y-115910000D02*
X141910000Y-114650000D01*
X136870000Y-109190000D02*
X136630000Y-108860000D01*
X137110000Y-108860000D01*
X136870000Y-109190000D01*
G36*
X136870000Y-109190000D02*
G01*
X136630000Y-108860000D01*
X137110000Y-108860000D01*
X136870000Y-109190000D01*
G37*
%TO.C,R2*%
X146410000Y-125822936D02*
X146410000Y-127277064D01*
X144590000Y-125822936D02*
X144590000Y-127277064D01*
%TO.C,R3*%
X131938888Y-122281160D02*
X131938888Y-120827032D01*
X133758888Y-122281160D02*
X133758888Y-120827032D01*
%TO.C,R4*%
X127764444Y-122227064D02*
X127764444Y-120772936D01*
X129584444Y-122227064D02*
X129584444Y-120772936D01*
%TO.C,R5*%
X123590000Y-122177064D02*
X123590000Y-120722936D01*
X125410000Y-122177064D02*
X125410000Y-120722936D01*
%TO.C,R15*%
X146500000Y-90040000D02*
X146500000Y-90810000D01*
X146500000Y-98120000D02*
X146500000Y-97350000D01*
X147870000Y-90810000D02*
X145130000Y-90810000D01*
X145130000Y-97350000D01*
X147870000Y-97350000D01*
X147870000Y-90810000D01*
%TO.C,U1*%
X148375000Y-68050000D02*
X147875000Y-68050000D01*
X147875000Y-67550000D01*
X148375000Y-68050000D01*
G36*
X148375000Y-68050000D02*
G01*
X147875000Y-68050000D01*
X147875000Y-67550000D01*
X148375000Y-68050000D01*
G37*
X128900000Y-86450000D02*
X129900000Y-86450000D01*
X128900000Y-86450000D02*
X128900000Y-84950000D01*
X154750000Y-86450000D02*
X148550000Y-86450000D01*
X128900000Y-68050000D02*
X128900000Y-69550000D01*
X129900000Y-68050000D02*
X128900000Y-68050000D01*
X154750000Y-68050000D02*
X154750000Y-86450000D01*
X154750000Y-68050000D02*
X148550000Y-68050000D01*
D11*
%TO.C,J4*%
X137460000Y-135162500D02*
G75*
G02*
X137260000Y-135162500I-100000J0D01*
G01*
X137260000Y-135162500D02*
G75*
G02*
X137460000Y-135162500I100000J0D01*
G01*
X145080000Y-138512500D02*
X145080000Y-139762500D01*
X136140000Y-138512500D02*
X136140000Y-139762500D01*
X145080000Y-143762500D02*
X145080000Y-142482500D01*
X136140000Y-142482500D02*
X136140000Y-143762500D01*
D14*
%TO.C,J3*%
X154380000Y-139420000D02*
X146540000Y-139420000D01*
X151730000Y-136770000D02*
X154380000Y-136770000D01*
X154380000Y-136770000D02*
X154380000Y-139420000D01*
X146540000Y-134120000D02*
X146540000Y-139420000D01*
X151730000Y-134120000D02*
X151730000Y-136770000D01*
X151730000Y-134120000D02*
X146540000Y-134120000D01*
X153000000Y-134120000D02*
X154380000Y-134120000D01*
X154380000Y-134120000D02*
X154380000Y-135500000D01*
%TO.C,J2*%
X134960000Y-134120000D02*
X134960000Y-135500000D01*
X133580000Y-134120000D02*
X134960000Y-134120000D01*
X132310000Y-134120000D02*
X122040000Y-134120000D01*
X132310000Y-134120000D02*
X132310000Y-136770000D01*
X122040000Y-134120000D02*
X122040000Y-139420000D01*
X134960000Y-136770000D02*
X134960000Y-139420000D01*
X132310000Y-136770000D02*
X134960000Y-136770000D01*
X134960000Y-139420000D02*
X122040000Y-139420000D01*
%TO.C,R17*%
X151177064Y-119990000D02*
X149722936Y-119990000D01*
X151177064Y-121810000D02*
X149722936Y-121810000D01*
%TD*%
%LPC*%
D16*
%TO.C,R16*%
X143550000Y-120900000D03*
X146650000Y-120900000D03*
%TD*%
D17*
%TO.C,D9*%
X150300000Y-114400000D03*
X150300000Y-117700000D03*
%TD*%
D18*
%TO.C,D8*%
X148900000Y-109800000D03*
X148900000Y-112300000D03*
%TD*%
D19*
%TO.C,R19*%
X133500000Y-106150000D03*
X133500000Y-103050000D03*
%TD*%
D20*
%TO.C,REF\u002A\u002A*%
X125200000Y-57000000D03*
%TD*%
D21*
%TO.C,C10*%
X146467500Y-115600000D03*
X145332500Y-115600000D03*
%TD*%
%TO.C,C11*%
X134700000Y-91800000D03*
X133565000Y-91800000D03*
%TD*%
%TO.C,C12*%
X134600000Y-101500000D03*
X133465000Y-101500000D03*
%TD*%
%TO.C,C14*%
X146467500Y-112300000D03*
X145332500Y-112300000D03*
%TD*%
D22*
%TO.C,D10*%
X145960000Y-105000000D03*
D23*
X148500000Y-105000000D03*
%TD*%
D24*
%TO.C,J1*%
X133460000Y-56500000D03*
X136000000Y-56500000D03*
X138540000Y-56500000D03*
X141080000Y-56500000D03*
X143620000Y-56500000D03*
D25*
X146160000Y-56500000D03*
%TD*%
D24*
%TO.C,J5*%
X152000000Y-104750000D03*
D25*
X152000000Y-107290000D03*
%TD*%
D19*
%TO.C,R14*%
X132880000Y-61450000D03*
X132880000Y-64550000D03*
%TD*%
%TO.C,R13*%
X136190000Y-61450000D03*
X136190000Y-64550000D03*
%TD*%
%TO.C,R12*%
X139500000Y-61450000D03*
X139500000Y-64550000D03*
%TD*%
%TO.C,R11*%
X142810000Y-61450000D03*
X142810000Y-64550000D03*
%TD*%
%TO.C,R10*%
X146120000Y-61450000D03*
X146120000Y-64550000D03*
%TD*%
D26*
%TO.C,R6*%
X137000000Y-129600000D03*
X137000000Y-126500000D03*
%TD*%
%TO.C,R8*%
X128666667Y-129600000D03*
X128666667Y-126500000D03*
%TD*%
%TO.C,R7*%
X132833333Y-129600000D03*
X132833333Y-126500000D03*
%TD*%
%TO.C,R9*%
X124500000Y-129600000D03*
X124500000Y-126500000D03*
%TD*%
%TO.C,R1*%
X149000000Y-128100000D03*
X149000000Y-125000000D03*
%TD*%
D19*
%TO.C,R18*%
X133500000Y-93300000D03*
X133500000Y-96400000D03*
%TD*%
D27*
%TO.C,C8*%
X134492447Y-114750000D03*
X132417447Y-114750000D03*
%TD*%
D28*
%TO.C,D6*%
X138641529Y-117000000D03*
X138641529Y-119500000D03*
%TD*%
D27*
%TO.C,C13*%
X134500000Y-112461462D03*
X132425000Y-112461462D03*
%TD*%
%TO.C,C9*%
X134500000Y-110172924D03*
X132425000Y-110172924D03*
%TD*%
D28*
%TO.C,D7*%
X141591529Y-117000000D03*
X141591529Y-119500000D03*
%TD*%
D29*
%TO.C,SW4*%
X136750000Y-106050000D03*
D30*
X136750000Y-101550000D03*
D29*
X143250000Y-106050000D03*
X143250000Y-101550000D03*
%TD*%
%TO.C,SW3*%
X136750000Y-96250000D03*
D30*
X136750000Y-91750000D03*
D29*
X143250000Y-96250000D03*
X143250000Y-91750000D03*
%TD*%
D31*
%TO.C,U2*%
X136850000Y-110200000D03*
X136850000Y-112500000D03*
D32*
X143150000Y-112500000D03*
D31*
X136850000Y-114800000D03*
%TD*%
D26*
%TO.C,R2*%
X145500000Y-125000000D03*
X145500000Y-128100000D03*
%TD*%
D19*
%TO.C,R3*%
X132848888Y-123104096D03*
X132848888Y-120004096D03*
%TD*%
%TO.C,R4*%
X128674444Y-123050000D03*
X128674444Y-119950000D03*
%TD*%
%TO.C,R5*%
X124500000Y-123000000D03*
X124500000Y-119900000D03*
%TD*%
D33*
%TO.C,R15*%
X146500000Y-89000000D03*
X146500000Y-99160000D03*
%TD*%
D34*
%TO.C,U1*%
X138690000Y-77150000D03*
X140090000Y-77150000D03*
X137990000Y-76450000D03*
X139390000Y-76450000D03*
X140790000Y-76450000D03*
X138690000Y-75750000D03*
D35*
X139390000Y-75750000D03*
D34*
X140090000Y-75750000D03*
X137990000Y-75050000D03*
X139390000Y-75050000D03*
X140790000Y-75050000D03*
X138690000Y-74350000D03*
X140090000Y-74350000D03*
D36*
X147110000Y-86000000D03*
X145840000Y-86000000D03*
X144570000Y-86000000D03*
X143300000Y-86000000D03*
X142030000Y-86000000D03*
X140760000Y-86000000D03*
X139490000Y-86000000D03*
X138220000Y-86000000D03*
X136950000Y-86000000D03*
X135680000Y-86000000D03*
X134410000Y-86000000D03*
X133140000Y-86000000D03*
X131870000Y-86000000D03*
X130600000Y-86000000D03*
D37*
X129350000Y-84235000D03*
X129350000Y-82965000D03*
X129350000Y-81695000D03*
X129350000Y-80425000D03*
X129350000Y-79155000D03*
X129350000Y-77885000D03*
X129350000Y-76615000D03*
X129350000Y-75345000D03*
X129350000Y-74075000D03*
X129350000Y-72805000D03*
X129350000Y-71535000D03*
X129350000Y-70265000D03*
D36*
X130600000Y-68500000D03*
X131870000Y-68500000D03*
X133140000Y-68500000D03*
X134410000Y-68500000D03*
X135680000Y-68500000D03*
X136950000Y-68500000D03*
X138220000Y-68500000D03*
X139490000Y-68500000D03*
X140760000Y-68500000D03*
X142030000Y-68500000D03*
X143300000Y-68500000D03*
X144570000Y-68500000D03*
X145840000Y-68500000D03*
X147110000Y-68500000D03*
%TD*%
D38*
%TO.C,J4*%
X138860000Y-136407500D03*
X139360000Y-136407500D03*
X139860000Y-136407500D03*
X142360000Y-136407500D03*
X141860000Y-136407500D03*
X141360000Y-136407500D03*
X140360000Y-136407500D03*
X140860000Y-136407500D03*
D39*
X143010000Y-136407500D03*
X138210000Y-136407500D03*
X143810000Y-136407500D03*
X137410000Y-136407500D03*
D40*
X137720000Y-137482500D03*
X143500000Y-137482500D03*
D41*
X144930000Y-136982500D03*
X136290000Y-136982500D03*
D42*
X144930000Y-141162500D03*
X136290000Y-141162500D03*
%TD*%
D24*
%TO.C,J3*%
X147920000Y-138040000D03*
X150460000Y-138040000D03*
X153000000Y-138040000D03*
X147920000Y-135500000D03*
X150460000Y-135500000D03*
D25*
X153000000Y-135500000D03*
%TD*%
%TO.C,J2*%
X133580000Y-135500000D03*
D24*
X131040000Y-135500000D03*
X128500000Y-135500000D03*
X125960000Y-135500000D03*
X123420000Y-135500000D03*
X133580000Y-138040000D03*
X131040000Y-138040000D03*
X128500000Y-138040000D03*
X125960000Y-138040000D03*
X123420000Y-138040000D03*
%TD*%
D43*
%TO.C,R17*%
X148900000Y-120900000D03*
X152000000Y-120900000D03*
%TD*%
%LPD*%
M02*
