%TF.GenerationSoftware,KiCad,Pcbnew,9.0.8-1.fc43*%
%TF.CreationDate,2026-04-30T12:50:00-05:00*%
%TF.ProjectId,AltWarriorsOfRock,416c7457-6172-4726-996f-72734f66526f,rev?*%
%TF.SameCoordinates,Original*%
%TF.FileFunction,Legend,Bot*%
%TF.FilePolarity,Positive*%
%FSLAX46Y46*%
G04 Gerber Fmt 4.6, Leading zero omitted, Abs format (unit mm)*
G04 Created by KiCad (PCBNEW 9.0.8-1.fc43) date 2026-04-30 12:50:00*
%MOMM*%
%LPD*%
G01*
G04 APERTURE LIST*
G04 Aperture macros list*
%AMRoundRect*
0 Rectangle with rounded corners*
0 $1 Rounding radius*
0 $2 $3 $4 $5 $6 $7 $8 $9 X,Y pos of 4 corners*
0 Add a 4 corners polygon primitive as box body*
4,1,4,$2,$3,$4,$5,$6,$7,$8,$9,$2,$3,0*
0 Add four circle primitives for the rounded corners*
1,1,$1+$1,$2,$3*
1,1,$1+$1,$4,$5*
1,1,$1+$1,$6,$7*
1,1,$1+$1,$8,$9*
0 Add four rect primitives between the rounded corners*
20,1,$1+$1,$2,$3,$4,$5,0*
20,1,$1+$1,$4,$5,$6,$7,0*
20,1,$1+$1,$6,$7,$8,$9,0*
20,1,$1+$1,$8,$9,$2,$3,0*%
G04 Aperture macros list end*
%ADD10C,1.700000*%
%ADD11R,1.700000X1.700000*%
%ADD12O,1.204000X2.004000*%
%ADD13O,1.204000X2.304000*%
%ADD14C,0.650000*%
%ADD15C,1.600000*%
%ADD16C,1.702000*%
%ADD17RoundRect,0.102000X-0.749000X-0.749000X0.749000X-0.749000X0.749000X0.749000X-0.749000X0.749000X0*%
%ADD18R,1.800000X1.800000*%
%ADD19C,1.800000*%
G04 APERTURE END LIST*
%LPC*%
D10*
%TO.C,J2*%
X123420000Y-138040000D03*
X125960000Y-138040000D03*
X128500000Y-138040000D03*
X131040000Y-138040000D03*
X133580000Y-138040000D03*
X123420000Y-135500000D03*
X125960000Y-135500000D03*
X128500000Y-135500000D03*
X131040000Y-135500000D03*
D11*
X133580000Y-135500000D03*
%TD*%
%TO.C,J3*%
X153000000Y-135500000D03*
D10*
X150460000Y-135500000D03*
X147920000Y-135500000D03*
X153000000Y-138040000D03*
X150460000Y-138040000D03*
X147920000Y-138040000D03*
%TD*%
D12*
%TO.C,J4*%
X136290000Y-141162500D03*
X144930000Y-141162500D03*
D13*
X136290000Y-136982500D03*
X144930000Y-136982500D03*
D14*
X143500000Y-137482500D03*
X137720000Y-137482500D03*
%TD*%
D15*
%TO.C,R24*%
X146500000Y-99160000D03*
X146500000Y-89000000D03*
%TD*%
D16*
%TO.C,SW3*%
X143250000Y-91750000D03*
X143250000Y-96250000D03*
D17*
X136750000Y-91750000D03*
D16*
X136750000Y-96250000D03*
%TD*%
%TO.C,SW4*%
X143250000Y-101550000D03*
X143250000Y-106050000D03*
D17*
X136750000Y-101550000D03*
D16*
X136750000Y-106050000D03*
%TD*%
D11*
%TO.C,J5*%
X152000000Y-107290000D03*
D10*
X152000000Y-104750000D03*
%TD*%
D11*
%TO.C,J1*%
X146160000Y-56500000D03*
D10*
X143620000Y-56500000D03*
X141080000Y-56500000D03*
X138540000Y-56500000D03*
X136000000Y-56500000D03*
X133460000Y-56500000D03*
%TD*%
D18*
%TO.C,D10*%
X148500000Y-105000000D03*
D19*
X145960000Y-105000000D03*
%TD*%
%LPD*%
M02*
