%TF.GenerationSoftware,KiCad,Pcbnew,9.0.8-1.fc43*%
%TF.CreationDate,2026-04-28T23:08:48-05:00*%
%TF.ProjectId,AltWarriorsOfRock,416c7457-6172-4726-996f-72734f66526f,rev?*%
%TF.SameCoordinates,Original*%
%TF.FileFunction,Copper,L1,Top*%
%TF.FilePolarity,Positive*%
%FSLAX46Y46*%
G04 Gerber Fmt 4.6, Leading zero omitted, Abs format (unit mm)*
G04 Created by KiCad (PCBNEW 9.0.8-1.fc43) date 2026-04-28 23:08:48*
%MOMM*%
%LPD*%
G01*
G04 APERTURE LIST*
G04 Aperture macros list*
%AMRoundRect*
0 Rectangle with rounded corners*
0 $1 Rounding radius*
0 $2 $3 $4 $5 $6 $7 $8 $9 X,Y pos of 4 corners*
0 Add a 4 corners polygon primitive as box body*
4,1,4,$2,$3,$4,$5,$6,$7,$8,$9,$2,$3,0*
0 Add four circle primitives for the rounded corners*
1,1,$1+$1,$2,$3*
1,1,$1+$1,$4,$5*
1,1,$1+$1,$6,$7*
1,1,$1+$1,$8,$9*
0 Add four rect primitives between the rounded corners*
20,1,$1+$1,$2,$3,$4,$5,0*
20,1,$1+$1,$4,$5,$6,$7,0*
20,1,$1+$1,$6,$7,$8,$9,0*
20,1,$1+$1,$8,$9,$2,$3,0*%
G04 Aperture macros list end*
%TA.AperFunction,ComponentPad*%
%ADD10O,1.800000X1.000000*%
%TD*%
%TA.AperFunction,ComponentPad*%
%ADD11O,2.100000X1.000000*%
%TD*%
%TA.AperFunction,SMDPad,CuDef*%
%ADD12R,1.150000X0.600000*%
%TD*%
%TA.AperFunction,SMDPad,CuDef*%
%ADD13R,1.150000X0.300000*%
%TD*%
%TA.AperFunction,ComponentPad*%
%ADD14RoundRect,0.190500X-0.444500X1.079500X-0.444500X-1.079500X0.444500X-1.079500X0.444500X1.079500X0*%
%TD*%
%TA.AperFunction,HeatsinkPad*%
%ADD15R,3.900000X3.900000*%
%TD*%
%TA.AperFunction,SMDPad,CuDef*%
%ADD16R,0.900000X1.500000*%
%TD*%
%TA.AperFunction,SMDPad,CuDef*%
%ADD17R,1.500000X0.900000*%
%TD*%
%TA.AperFunction,SMDPad,CuDef*%
%ADD18RoundRect,0.250000X0.625000X-0.400000X0.625000X0.400000X-0.625000X0.400000X-0.625000X-0.400000X0*%
%TD*%
%TA.AperFunction,ComponentPad*%
%ADD19C,1.700000*%
%TD*%
%TA.AperFunction,ComponentPad*%
%ADD20R,1.700000X1.700000*%
%TD*%
%TA.AperFunction,ComponentPad*%
%ADD21C,1.498000*%
%TD*%
%TA.AperFunction,ComponentPad*%
%ADD22R,1.498000X1.498000*%
%TD*%
%TA.AperFunction,SMDPad,CuDef*%
%ADD23RoundRect,0.375000X-0.375000X0.625000X-0.375000X-0.625000X0.375000X-0.625000X0.375000X0.625000X0*%
%TD*%
%TA.AperFunction,SMDPad,CuDef*%
%ADD24RoundRect,0.500000X-1.400000X0.500000X-1.400000X-0.500000X1.400000X-0.500000X1.400000X0.500000X0*%
%TD*%
%TA.AperFunction,ComponentPad*%
%ADD25C,1.600000*%
%TD*%
%TA.AperFunction,SMDPad,CuDef*%
%ADD26RoundRect,0.250000X-0.400000X-0.625000X0.400000X-0.625000X0.400000X0.625000X-0.400000X0.625000X0*%
%TD*%
%TA.AperFunction,ComponentPad*%
%ADD27R,1.800000X1.800000*%
%TD*%
%TA.AperFunction,ComponentPad*%
%ADD28C,1.800000*%
%TD*%
%TA.AperFunction,SMDPad,CuDef*%
%ADD29RoundRect,0.225000X0.375000X-0.225000X0.375000X0.225000X-0.375000X0.225000X-0.375000X-0.225000X0*%
%TD*%
%TA.AperFunction,SMDPad,CuDef*%
%ADD30RoundRect,0.250000X-0.250000X-0.250000X0.250000X-0.250000X0.250000X0.250000X-0.250000X0.250000X0*%
%TD*%
%TA.AperFunction,SMDPad,CuDef*%
%ADD31RoundRect,0.155000X-0.212500X-0.155000X0.212500X-0.155000X0.212500X0.155000X-0.212500X0.155000X0*%
%TD*%
%TA.AperFunction,SMDPad,CuDef*%
%ADD32RoundRect,0.250000X-0.337500X-0.475000X0.337500X-0.475000X0.337500X0.475000X-0.337500X0.475000X0*%
%TD*%
%TA.AperFunction,SMDPad,CuDef*%
%ADD33RoundRect,0.155000X-0.155000X0.212500X-0.155000X-0.212500X0.155000X-0.212500X0.155000X0.212500X0*%
%TD*%
%TA.AperFunction,SMDPad,CuDef*%
%ADD34RoundRect,0.155000X0.155000X-0.212500X0.155000X0.212500X-0.155000X0.212500X-0.155000X-0.212500X0*%
%TD*%
%TA.AperFunction,ViaPad*%
%ADD35C,0.600000*%
%TD*%
%TA.AperFunction,Conductor*%
%ADD36C,0.200000*%
%TD*%
%TA.AperFunction,Conductor*%
%ADD37C,0.400000*%
%TD*%
G04 APERTURE END LIST*
D10*
%TO.P,J4,SH3,SHELL_GND*%
%TO.N,DPad_COM*%
X154251554Y-124349931D03*
%TO.P,J4,SH4,SHELL_GND*%
X154251554Y-115709931D03*
D11*
%TO.P,J4,SH1,SHELL_GND*%
X150071554Y-124349931D03*
%TO.P,J4,SH2,SHELL_GND*%
X150071554Y-115709931D03*
D12*
%TO.P,J4,A1_B12,GND*%
X149496554Y-123229931D03*
%TO.P,J4,B1_A12,GND*%
X149496554Y-116829931D03*
%TO.P,J4,A4_B9,VBUS*%
%TO.N,VBUS*%
X149496554Y-122429931D03*
%TO.P,J4,B4_A9,VBUS*%
X149496554Y-117629931D03*
D13*
%TO.P,J4,A7,DN1*%
%TO.N,USB_DN*%
X149496554Y-119779931D03*
%TO.P,J4,A6,DP1*%
%TO.N,USB_DP*%
X149496554Y-120279931D03*
%TO.P,J4,B6,DP2*%
X149496554Y-119279931D03*
%TO.P,J4,A8,SBU1*%
%TO.N,unconnected-(J4-SBU1-PadA8)*%
X149496554Y-118779931D03*
%TO.P,J4,B5,CC2*%
%TO.N,Net-(J4-CC2)*%
X149496554Y-118279931D03*
%TO.P,J4,B7,DN2*%
%TO.N,USB_DN*%
X149496554Y-120779931D03*
%TO.P,J4,A5,CC1*%
%TO.N,Net-(J4-CC1)*%
X149496554Y-121279931D03*
%TO.P,J4,B8,SBU2*%
%TO.N,unconnected-(J4-SBU2-PadB8)*%
X149496554Y-121779931D03*
%TD*%
D14*
%TO.P,U1,41,GND*%
%TO.N,DPad_COM*%
X140690000Y-74900000D03*
X142090000Y-74900000D03*
D15*
X141390000Y-73500000D03*
D14*
X140690000Y-72100000D03*
X142090000Y-72100000D03*
D16*
%TO.P,U1,40,GND*%
X149110000Y-83750000D03*
%TO.P,U1,39,IO1*%
%TO.N,Wham_Signal*%
X147840000Y-83750000D03*
%TO.P,U1,38,IO2*%
%TO.N,unconnected-(U1-IO2-Pad38)*%
X146570000Y-83750000D03*
%TO.P,U1,37,TXD0*%
%TO.N,UART_TX*%
X145300000Y-83750000D03*
%TO.P,U1,36,RXD0*%
%TO.N,UART_RX*%
X144030000Y-83750000D03*
%TO.P,U1,35,IO42*%
%TO.N,unconnected-(U1-IO42-Pad35)*%
X142760000Y-83750000D03*
%TO.P,U1,34,IO41*%
%TO.N,unconnected-(U1-IO41-Pad34)*%
X141490000Y-83750000D03*
%TO.P,U1,33,IO40*%
%TO.N,unconnected-(U1-IO40-Pad33)*%
X140220000Y-83750000D03*
%TO.P,U1,32,IO39*%
%TO.N,unconnected-(U1-IO39-Pad32)*%
X138950000Y-83750000D03*
%TO.P,U1,31,IO38*%
%TO.N,Fret_R*%
X137680000Y-83750000D03*
%TO.P,U1,30,IO37*%
%TO.N,unconnected-(U1-IO37-Pad30)*%
X136410000Y-83750000D03*
%TO.P,U1,29,IO36*%
%TO.N,unconnected-(U1-IO36-Pad29)*%
X135140000Y-83750000D03*
%TO.P,U1,28,IO35*%
%TO.N,unconnected-(U1-IO35-Pad28)*%
X133870000Y-83750000D03*
%TO.P,U1,27,IO0*%
%TO.N,GPIO0*%
X132600000Y-83750000D03*
D17*
%TO.P,U1,26,IO45*%
%TO.N,unconnected-(U1-IO45-Pad26)*%
X131350000Y-81985000D03*
%TO.P,U1,25,IO48*%
%TO.N,unconnected-(U1-IO48-Pad25)*%
X131350000Y-80715000D03*
%TO.P,U1,24,IO47*%
%TO.N,Fret_G*%
X131350000Y-79445000D03*
%TO.P,U1,23,IO21*%
%TO.N,Fret_Y*%
X131350000Y-78175000D03*
%TO.P,U1,22,IO14*%
%TO.N,unconnected-(U1-IO14-Pad22)*%
X131350000Y-76905000D03*
%TO.P,U1,21,IO13*%
%TO.N,unconnected-(U1-IO13-Pad21)*%
X131350000Y-75635000D03*
%TO.P,U1,20,IO12*%
%TO.N,Strum_DOWN*%
X131350000Y-74365000D03*
%TO.P,U1,19,IO11*%
%TO.N,Strum_UP*%
X131350000Y-73095000D03*
%TO.P,U1,18,IO10*%
%TO.N,Misc_Start*%
X131350000Y-71825000D03*
%TO.P,U1,17,IO9*%
%TO.N,Misc_Back*%
X131350000Y-70555000D03*
%TO.P,U1,16,IO46*%
%TO.N,unconnected-(U1-IO46-Pad16)*%
X131350000Y-69285000D03*
%TO.P,U1,15,IO3*%
%TO.N,unconnected-(U1-IO3-Pad15)*%
X131350000Y-68015000D03*
D16*
%TO.P,U1,14,USB_D+*%
%TO.N,USB_DP*%
X132600000Y-66250000D03*
%TO.P,U1,13,USB_D-*%
%TO.N,USB_DN*%
X133870000Y-66250000D03*
%TO.P,U1,12,IO8*%
%TO.N,Misc_Guide*%
X135140000Y-66250000D03*
%TO.P,U1,11,IO18*%
%TO.N,Fret_B*%
X136410000Y-66250000D03*
%TO.P,U1,10,IO17*%
%TO.N,Fret_O*%
X137680000Y-66250000D03*
%TO.P,U1,9,IO16*%
%TO.N,unconnected-(U1-IO16-Pad9)*%
X138950000Y-66250000D03*
%TO.P,U1,8,IO15*%
%TO.N,unconnected-(U1-IO15-Pad8)*%
X140220000Y-66250000D03*
%TO.P,U1,7,IO7*%
%TO.N,DPad_UP*%
X141490000Y-66250000D03*
%TO.P,U1,6,IO6*%
%TO.N,DPad_DOWN*%
X142760000Y-66250000D03*
%TO.P,U1,5,IO5*%
%TO.N,DPad_LEFT*%
X144030000Y-66250000D03*
%TO.P,U1,4,IO4*%
%TO.N,DPad_RIGHT*%
X145300000Y-66250000D03*
%TO.P,U1,3,EN*%
%TO.N,ESP_EN*%
X146570000Y-66250000D03*
%TO.P,U1,2,3V3*%
%TO.N,Wham_3V3*%
X147840000Y-66250000D03*
%TO.P,U1,1,GND*%
%TO.N,DPad_COM*%
X149110000Y-66250000D03*
%TD*%
D18*
%TO.P,R8,2*%
%TO.N,DPad_DOWN*%
X130333333Y-120950000D03*
%TO.P,R8,1*%
%TO.N,Wham_3V3*%
X130333333Y-124050000D03*
%TD*%
%TO.P,R4,2*%
%TO.N,Fret_B*%
X145000000Y-59900000D03*
%TO.P,R4,1*%
%TO.N,Wham_3V3*%
X145000000Y-63000000D03*
%TD*%
%TO.P,R2,2*%
%TO.N,Fret_R*%
X138380000Y-59900000D03*
%TO.P,R2,1*%
%TO.N,Wham_3V3*%
X138380000Y-63000000D03*
%TD*%
D19*
%TO.P,J1,6,Pin_6*%
%TO.N,Fret_G*%
X135500000Y-57000000D03*
%TO.P,J1,5,Pin_5*%
%TO.N,Fret_R*%
X138040000Y-57000000D03*
%TO.P,J1,4,Pin_4*%
%TO.N,Fret_Y*%
X140580000Y-57000000D03*
%TO.P,J1,3,Pin_3*%
%TO.N,Fret_B*%
X143120000Y-57000000D03*
%TO.P,J1,2,Pin_2*%
%TO.N,Fret_O*%
X145660000Y-57000000D03*
D20*
%TO.P,J1,1,Pin_1*%
%TO.N,DPad_COM*%
X148200000Y-57000000D03*
%TD*%
D18*
%TO.P,R3,2*%
%TO.N,Fret_Y*%
X141690000Y-59900000D03*
%TO.P,R3,1*%
%TO.N,Wham_3V3*%
X141690000Y-63000000D03*
%TD*%
%TO.P,R5,2*%
%TO.N,Fret_O*%
X148310000Y-59900000D03*
%TO.P,R5,1*%
%TO.N,Wham_3V3*%
X148310000Y-63000000D03*
%TD*%
%TO.P,R1,2*%
%TO.N,Fret_G*%
X135070000Y-59900000D03*
%TO.P,R1,1*%
%TO.N,Wham_3V3*%
X135070000Y-63000000D03*
%TD*%
D21*
%TO.P,SW4,2*%
%TO.N,DPad_COM*%
X124250000Y-109250000D03*
%TO.P,SW4,4*%
%TO.N,ESP_EN*%
X124250000Y-104750000D03*
D22*
%TO.P,SW4,1*%
%TO.N,DPad_COM*%
X130750000Y-109250000D03*
D21*
%TO.P,SW4,3*%
%TO.N,ESP_EN*%
X130750000Y-104750000D03*
%TD*%
D23*
%TO.P,U2,1,GND*%
%TO.N,DPad_COM*%
X148800000Y-104350000D03*
%TO.P,U2,2,VO*%
%TO.N,Wham_3V3*%
X146500000Y-104350000D03*
D24*
X146500000Y-110650000D03*
D23*
%TO.P,U2,3,VI*%
%TO.N,+5V*%
X144200000Y-104350000D03*
%TD*%
D25*
%TO.P,R24,1*%
%TO.N,Wham_3V3*%
X144340000Y-100500000D03*
%TO.P,R24,2*%
%TO.N,Net-(D10-A)*%
X154500000Y-100500000D03*
%TD*%
D26*
%TO.P,R22,1*%
%TO.N,Wham_3V3*%
X123950000Y-100500000D03*
%TO.P,R22,2*%
%TO.N,GPIO0*%
X127050000Y-100500000D03*
%TD*%
%TO.P,R21,1*%
%TO.N,Net-(J4-CC2)*%
X151900000Y-113000000D03*
%TO.P,R21,2*%
%TO.N,DPad_COM*%
X155000000Y-113000000D03*
%TD*%
%TO.P,R20,1*%
%TO.N,Net-(J4-CC1)*%
X151450000Y-127500000D03*
%TO.P,R20,2*%
%TO.N,DPad_COM*%
X154550000Y-127500000D03*
%TD*%
D18*
%TO.P,R15,1*%
%TO.N,Wham_3V3*%
X138000000Y-133600000D03*
%TO.P,R15,2*%
%TO.N,Strum_DOWN*%
X138000000Y-130500000D03*
%TD*%
%TO.P,R14,1*%
%TO.N,Wham_3V3*%
X141500000Y-133600000D03*
%TO.P,R14,2*%
%TO.N,Strum_UP*%
X141500000Y-130500000D03*
%TD*%
%TO.P,R13,1*%
%TO.N,Wham_3V3*%
X132000000Y-131550000D03*
%TO.P,R13,2*%
%TO.N,Misc_Guide*%
X132000000Y-128450000D03*
%TD*%
%TO.P,R12,1*%
%TO.N,Wham_3V3*%
X128690000Y-131550000D03*
%TO.P,R12,2*%
%TO.N,Misc_Back*%
X128690000Y-128450000D03*
%TD*%
%TO.P,R11,1*%
%TO.N,Wham_3V3*%
X125380000Y-131550000D03*
%TO.P,R11,2*%
%TO.N,Misc_Start*%
X125380000Y-128450000D03*
%TD*%
%TO.P,R10,1*%
%TO.N,Wham_3V3*%
X140000000Y-124000000D03*
%TO.P,R10,2*%
%TO.N,DPad_RIGHT*%
X140000000Y-120900000D03*
%TD*%
%TO.P,R7,1*%
%TO.N,Wham_3V3*%
X135166667Y-124100000D03*
%TO.P,R7,2*%
%TO.N,DPad_LEFT*%
X135166667Y-121000000D03*
%TD*%
%TO.P,R6,1*%
%TO.N,Wham_3V3*%
X125500000Y-124000000D03*
%TO.P,R6,2*%
%TO.N,DPad_UP*%
X125500000Y-120900000D03*
%TD*%
D20*
%TO.P,J2,1,Pin_1*%
%TO.N,DPad_COM*%
X124760000Y-141040000D03*
D19*
%TO.P,J2,2,Pin_2*%
%TO.N,Misc_Start*%
X127300000Y-141040000D03*
%TO.P,J2,3,Pin_3*%
%TO.N,Misc_Back*%
X129840000Y-141040000D03*
%TO.P,J2,4,Pin_4*%
%TO.N,Misc_Guide*%
X132380000Y-141040000D03*
%TO.P,J2,5,Pin_5*%
%TO.N,DPad_COM*%
X134920000Y-141040000D03*
%TO.P,J2,6,Pin_6*%
%TO.N,Strum_DOWN*%
X137460000Y-141040000D03*
%TO.P,J2,7,Pin_7*%
%TO.N,Strum_UP*%
X140000000Y-141040000D03*
%TO.P,J2,8,Pin_8*%
%TO.N,Wham_3V3*%
X142540000Y-141040000D03*
%TO.P,J2,9,Pin_9*%
%TO.N,Wham_Signal*%
X145080000Y-141040000D03*
%TO.P,J2,10,Pin_10*%
%TO.N,DPad_COM*%
X147620000Y-141040000D03*
%TO.P,J2,11,Pin_11*%
X124760000Y-138500000D03*
%TO.P,J2,12,Pin_12*%
%TO.N,DPad_UP*%
X127300000Y-138500000D03*
%TO.P,J2,13,Pin_13*%
%TO.N,DPad_DOWN*%
X129840000Y-138500000D03*
%TO.P,J2,14,Pin_14*%
%TO.N,DPad_LEFT*%
X132380000Y-138500000D03*
%TO.P,J2,15,Pin_15*%
%TO.N,DPad_RIGHT*%
X134920000Y-138500000D03*
%TO.P,J2,16,Pin_16*%
%TO.N,unconnected-(J2-Pin_16-Pad16)*%
X137460000Y-138500000D03*
%TO.P,J2,17,Pin_17*%
%TO.N,unconnected-(J2-Pin_17-Pad17)*%
X140000000Y-138500000D03*
%TO.P,J2,18,Pin_18*%
%TO.N,unconnected-(J2-Pin_18-Pad18)*%
X142540000Y-138500000D03*
%TO.P,J2,19,Pin_19*%
%TO.N,UART_RX*%
X145080000Y-138500000D03*
%TO.P,J2,20,Pin_20*%
%TO.N,UART_TX*%
X147620000Y-138500000D03*
%TD*%
D27*
%TO.P,D10,1,K*%
%TO.N,DPad_COM*%
X151960000Y-106500000D03*
D28*
%TO.P,D10,2,A*%
%TO.N,Net-(D10-A)*%
X154500000Y-106500000D03*
%TD*%
D29*
%TO.P,D9,1,K*%
%TO.N,+5V*%
X145500000Y-117650000D03*
%TO.P,D9,2,A*%
%TO.N,VBUS*%
X145500000Y-114350000D03*
%TD*%
D30*
%TO.P,D8,1,A1*%
%TO.N,VBUS*%
X152250000Y-137400000D03*
%TO.P,D8,2,A2*%
%TO.N,DPad_COM*%
X154750000Y-137400000D03*
%TD*%
%TO.P,D7,1,A1*%
%TO.N,USB_DN*%
X152250000Y-134450000D03*
%TO.P,D7,2,A2*%
%TO.N,DPad_COM*%
X154750000Y-134450000D03*
%TD*%
%TO.P,D6,1,A1*%
%TO.N,USB_DP*%
X152250000Y-131500000D03*
%TO.P,D6,2,A2*%
%TO.N,DPad_COM*%
X154750000Y-131500000D03*
%TD*%
D31*
%TO.P,C14,1*%
%TO.N,Wham_3V3*%
X146865000Y-130000000D03*
%TO.P,C14,2*%
%TO.N,DPad_COM*%
X148000000Y-130000000D03*
%TD*%
D32*
%TO.P,C13,1*%
%TO.N,Wham_3V3*%
X146500000Y-133000000D03*
%TO.P,C13,2*%
%TO.N,DPad_COM*%
X148575000Y-133000000D03*
%TD*%
D33*
%TO.P,C12,1*%
%TO.N,ESP_EN*%
X132500000Y-106500000D03*
%TO.P,C12,2*%
%TO.N,DPad_COM*%
X132500000Y-107635000D03*
%TD*%
%TO.P,C11,1*%
%TO.N,GPIO0*%
X132500000Y-95000000D03*
%TO.P,C11,2*%
%TO.N,DPad_COM*%
X132500000Y-96135000D03*
%TD*%
D34*
%TO.P,C10,1*%
%TO.N,+5V*%
X148500000Y-114000000D03*
%TO.P,C10,2*%
%TO.N,DPad_COM*%
X148500000Y-112865000D03*
%TD*%
D32*
%TO.P,C9,1*%
%TO.N,+5V*%
X144425000Y-126000000D03*
%TO.P,C9,2*%
%TO.N,DPad_COM*%
X146500000Y-126000000D03*
%TD*%
%TO.P,C8,1*%
%TO.N,+5V*%
X144462500Y-121000000D03*
%TO.P,C8,2*%
%TO.N,DPad_COM*%
X146537500Y-121000000D03*
%TD*%
D21*
%TO.P,SW3,2*%
%TO.N,DPad_COM*%
X124250000Y-97750000D03*
%TO.P,SW3,4*%
%TO.N,GPIO0*%
X124250000Y-93250000D03*
D22*
%TO.P,SW3,1*%
%TO.N,DPad_COM*%
X130750000Y-97750000D03*
D21*
%TO.P,SW3,3*%
%TO.N,GPIO0*%
X130750000Y-93250000D03*
%TD*%
D26*
%TO.P,R9,1*%
%TO.N,Wham_3V3*%
X123950000Y-113000000D03*
%TO.P,R9,2*%
%TO.N,ESP_EN*%
X127050000Y-113000000D03*
%TD*%
D35*
%TO.N,VBUS*%
X145500000Y-119000000D03*
X148521554Y-122529931D03*
X145500000Y-116000000D03*
X147000000Y-119500000D03*
%TO.N,DPad_COM*%
X146830000Y-122500000D03*
%TO.N,Strum_DOWN*%
X132900000Y-122065687D03*
X133434313Y-126565687D03*
%TO.N,Strum_UP*%
X133500000Y-121500000D03*
X134000000Y-126000000D03*
%TO.N,Wham_3V3*%
X140000000Y-122500000D03*
X137500000Y-122500000D03*
X131000000Y-125500000D03*
%TO.N,Strum_UP*%
X138000000Y-128000000D03*
X132825735Y-71825735D03*
%TO.N,Strum_DOWN*%
X127500000Y-76500000D03*
X138000000Y-129000000D03*
%TO.N,DPad_COM*%
X149110000Y-81220000D03*
%TO.N,DPad_RIGHT*%
X140750000Y-79750000D03*
X140000000Y-85500000D03*
%TO.N,DPad_LEFT*%
X138280000Y-77500000D03*
X135520318Y-94982781D03*
%TO.N,Misc_Guide*%
X134434313Y-72434313D03*
X134910000Y-95500000D03*
%TO.N,DPad_DOWN*%
X138500000Y-69500000D03*
X135416636Y-72583364D03*
X134000000Y-93000000D03*
X136583364Y-71416636D03*
%TO.N,Misc_Back*%
X126536765Y-76536765D03*
X128000000Y-71500000D03*
%TO.N,Wham_Signal*%
X146454503Y-89000000D03*
%TO.N,Wham_3V3*%
X143750000Y-133000000D03*
%TO.N,DPad_COM*%
X148500000Y-90000000D03*
%TO.N,DPad_UP*%
X125600000Y-80748529D03*
X140000000Y-68000000D03*
%TO.N,USB_DN*%
X130575000Y-66500000D03*
%TO.N,USB_DP*%
X131425000Y-66500000D03*
X147704504Y-117720496D03*
%TO.N,USB_DN*%
X146854504Y-117720496D03*
%TO.N,Wham_3V3*%
X122544550Y-121000000D03*
X125500000Y-125500000D03*
X131500000Y-133000000D03*
X142000000Y-135500000D03*
%TO.N,Fret_G*%
X128900000Y-76565687D03*
%TO.N,Fret_Y*%
X129500000Y-76000000D03*
%TO.N,Fret_R*%
X136500000Y-67500000D03*
%TO.N,Fret_B*%
X141500000Y-64400000D03*
%TO.N,Fret_O*%
X142500000Y-64500000D03*
%TO.N,ESP_EN*%
X146500000Y-68000000D03*
X134500000Y-69000000D03*
X134000000Y-71500000D03*
%TO.N,GPIO0*%
X132200000Y-85500000D03*
%TD*%
D36*
%TO.N,USB_DN*%
X148220069Y-120779931D02*
X148220069Y-119971595D01*
X148220069Y-119971595D02*
X148436733Y-119754931D01*
%TO.N,DPad_RIGHT*%
X140750000Y-79750000D02*
X145300000Y-75200000D01*
X145300000Y-75200000D02*
X145300000Y-66250000D01*
%TO.N,DPad_LEFT*%
X143930000Y-67300000D02*
X144030000Y-67200000D01*
X138280000Y-77500000D02*
X138280000Y-72245686D01*
X138280000Y-72245686D02*
X143225686Y-67300000D01*
X143225686Y-67300000D02*
X143930000Y-67300000D01*
X144030000Y-67200000D02*
X144030000Y-66250000D01*
D37*
%TO.N,DPad_COM*%
X149110000Y-66250000D02*
X149585000Y-65775000D01*
X149585000Y-58385000D02*
X148200000Y-57000000D01*
X149585000Y-65775000D02*
X149585000Y-58385000D01*
%TO.N,VBUS*%
X145500000Y-119000000D02*
X146500000Y-119000000D01*
X145500000Y-114350000D02*
X145500000Y-116000000D01*
X146500000Y-119000000D02*
X147000000Y-119500000D01*
%TO.N,DPad_COM*%
X154251554Y-124349931D02*
X154251554Y-115709931D01*
D36*
%TO.N,Net-(J4-CC2)*%
X149496554Y-118279931D02*
X150386148Y-118279931D01*
X150386148Y-118279931D02*
X151900000Y-116766079D01*
X151900000Y-116766079D02*
X151900000Y-113000000D01*
%TO.N,Strum_DOWN*%
X132900000Y-126031374D02*
X132900000Y-122065687D01*
X133434313Y-126565687D02*
X132900000Y-126031374D01*
%TO.N,Strum_UP*%
X133500000Y-125500000D02*
X133500000Y-121500000D01*
X134000000Y-126000000D02*
X133500000Y-125500000D01*
D37*
%TO.N,Wham_3V3*%
X135166667Y-124100000D02*
X135900000Y-124100000D01*
X135900000Y-124100000D02*
X137500000Y-122500000D01*
X140000000Y-122500000D02*
X140000000Y-124000000D01*
X131000000Y-125500000D02*
X131000000Y-124716667D01*
X131000000Y-124716667D02*
X130333333Y-124050000D01*
D36*
%TO.N,Strum_UP*%
X141500000Y-130500000D02*
X140500000Y-130500000D01*
X140500000Y-130500000D02*
X138000000Y-128000000D01*
X132825735Y-71825735D02*
X132825735Y-72569265D01*
X132825735Y-72569265D02*
X132300000Y-73095000D01*
X132300000Y-73095000D02*
X131350000Y-73095000D01*
%TO.N,Strum_DOWN*%
X138000000Y-130500000D02*
X138000000Y-129000000D01*
X127500000Y-76500000D02*
X129635000Y-74365000D01*
X129635000Y-74365000D02*
X131350000Y-74365000D01*
%TO.N,DPad_RIGHT*%
X140000000Y-120900000D02*
X140000000Y-85500000D01*
%TO.N,DPad_LEFT*%
X135166667Y-121000000D02*
X135520318Y-120646349D01*
X135520318Y-120646349D02*
X135520318Y-94982781D01*
%TO.N,Misc_Guide*%
X134910000Y-95500000D02*
X134910000Y-109450744D01*
X134910000Y-109450744D02*
X132000000Y-112360744D01*
X132000000Y-112360744D02*
X132000000Y-128450000D01*
X134434313Y-72434313D02*
X135140000Y-71728626D01*
X135140000Y-71728626D02*
X135140000Y-66250000D01*
%TO.N,DPad_DOWN*%
X134000000Y-93000000D02*
X134000000Y-93302942D01*
X130333333Y-113461725D02*
X130333333Y-120950000D01*
X134000000Y-93302942D02*
X134310000Y-93612943D01*
X134310000Y-93612943D02*
X134310000Y-109485057D01*
X134310000Y-109485057D02*
X130333333Y-113461725D01*
%TO.N,DPad_UP*%
X141490000Y-67200000D02*
X141490000Y-66250000D01*
X140690000Y-68000000D02*
X141490000Y-67200000D01*
X140000000Y-68000000D02*
X140690000Y-68000000D01*
%TO.N,DPad_DOWN*%
X135416636Y-72583364D02*
X136583364Y-71416636D01*
X140460000Y-69500000D02*
X142760000Y-67200000D01*
X138500000Y-69500000D02*
X140460000Y-69500000D01*
X142760000Y-67200000D02*
X142760000Y-66250000D01*
%TO.N,Misc_Back*%
X128690000Y-128450000D02*
X128600000Y-128360000D01*
X128600000Y-114629372D02*
X133910000Y-109319371D01*
X128600000Y-128360000D02*
X128600000Y-114629372D01*
X133910000Y-109319371D02*
X133910000Y-93778628D01*
X126536765Y-86405393D02*
X126536765Y-76536765D01*
X133910000Y-93778628D02*
X126536765Y-86405393D01*
%TO.N,DPad_UP*%
X125600000Y-86034314D02*
X133510000Y-93944314D01*
X133510000Y-109153685D02*
X125500000Y-117163686D01*
X125600000Y-80748529D02*
X125600000Y-86034314D01*
X133510000Y-93944314D02*
X133510000Y-109153685D01*
X125500000Y-117163686D02*
X125500000Y-120900000D01*
%TO.N,Misc_Back*%
X128000000Y-71500000D02*
X128945000Y-70555000D01*
X128945000Y-70555000D02*
X131350000Y-70555000D01*
%TO.N,Wham_Signal*%
X146454503Y-89000000D02*
X147840000Y-87614503D01*
X147840000Y-87614503D02*
X147840000Y-83750000D01*
D37*
%TO.N,Wham_3V3*%
X143750000Y-133000000D02*
X146500000Y-133000000D01*
%TO.N,DPad_COM*%
X149110000Y-89390000D02*
X149110000Y-83750000D01*
X148500000Y-90000000D02*
X149110000Y-89390000D01*
D36*
%TO.N,Net-(J4-CC1)*%
X149496554Y-121279931D02*
X150321554Y-121279931D01*
X150321554Y-121279931D02*
X151450000Y-122408377D01*
X151450000Y-122408377D02*
X151450000Y-127500000D01*
%TO.N,Misc_Start*%
X125000000Y-77225000D02*
X130400000Y-71825000D01*
X130400000Y-71825000D02*
X131350000Y-71825000D01*
%TO.N,USB_DP*%
X131425000Y-66500000D02*
X131425000Y-66286397D01*
%TO.N,USB_DN*%
X131850000Y-65200000D02*
X133350000Y-65200000D01*
X133420000Y-65800000D02*
X133870000Y-66250000D01*
%TO.N,USB_DP*%
X131425000Y-66286397D02*
X131461397Y-66250000D01*
X131461397Y-66250000D02*
X132600000Y-66250000D01*
%TO.N,USB_DN*%
X130575000Y-66500000D02*
X131275000Y-65800000D01*
X133350000Y-65800000D02*
X133420000Y-65800000D01*
X131275000Y-65800000D02*
X131850000Y-65800000D01*
X131850000Y-65800000D02*
X131850000Y-65200000D01*
X133350000Y-65200000D02*
X133350000Y-65800000D01*
X149071554Y-119779931D02*
X149046554Y-119754931D01*
%TO.N,USB_DP*%
X149071554Y-119279931D02*
X149046554Y-119304931D01*
%TO.N,USB_DN*%
X149496554Y-119779931D02*
X149071554Y-119779931D01*
%TO.N,USB_DP*%
X149496554Y-119279931D02*
X149071554Y-119279931D01*
X147504505Y-117920495D02*
X147704504Y-117720496D01*
X149046554Y-119304931D02*
X148623129Y-119304931D01*
X147504505Y-118186307D02*
X147504505Y-117920495D01*
X148623129Y-119304931D02*
X147504505Y-118186307D01*
%TO.N,USB_DN*%
X148436733Y-119754931D02*
X147054503Y-118372701D01*
X147054503Y-118372701D02*
X147054503Y-117920495D01*
X147054503Y-117920495D02*
X146854504Y-117720496D01*
%TO.N,Misc_Start*%
X125380000Y-128450000D02*
X123600000Y-126670000D01*
X123600000Y-126670000D02*
X123600000Y-118498000D01*
X123600000Y-118498000D02*
X133110000Y-108988000D01*
X133110000Y-108988000D02*
X133110000Y-94110000D01*
X133110000Y-94110000D02*
X125000000Y-86000000D01*
X125000000Y-86000000D02*
X125000000Y-77225000D01*
%TO.N,DPad_UP*%
X127300000Y-138500000D02*
X133175000Y-132625000D01*
X128500000Y-130500000D02*
X127000000Y-129000000D01*
X133175000Y-132625000D02*
X133175000Y-130915256D01*
X133175000Y-130915256D02*
X132759744Y-130500000D01*
X127000000Y-128000000D02*
X124000000Y-125000000D01*
X132759744Y-130500000D02*
X128500000Y-130500000D01*
X124000000Y-125000000D02*
X124000000Y-122400000D01*
X127000000Y-129000000D02*
X127000000Y-128000000D01*
X124000000Y-122400000D02*
X125500000Y-120900000D01*
D37*
%TO.N,Wham_3V3*%
X122544550Y-121000000D02*
X122544550Y-121044550D01*
X147840000Y-66250000D02*
X147840000Y-63470000D01*
X147840000Y-63470000D02*
X148310000Y-63000000D01*
%TO.N,DPad_COM*%
X134920000Y-141040000D02*
X137064550Y-143184550D01*
X137064550Y-143184550D02*
X145815450Y-143184550D01*
X145815450Y-143184550D02*
X147620000Y-141380000D01*
X147620000Y-141380000D02*
X147620000Y-141040000D01*
D36*
%TO.N,DPad_LEFT*%
X132380000Y-138500000D02*
X134774999Y-136105001D01*
X134774999Y-136105001D02*
X134774999Y-125518076D01*
X134774999Y-125518076D02*
X133991667Y-124734744D01*
X133991667Y-124734744D02*
X133991667Y-122175000D01*
X133991667Y-122175000D02*
X135166667Y-121000000D01*
D37*
%TO.N,Wham_3V3*%
X125500000Y-125500000D02*
X125500000Y-124000000D01*
X128690000Y-131550000D02*
X132000000Y-131550000D01*
X125380000Y-131550000D02*
X128690000Y-131550000D01*
X142000000Y-135500000D02*
X142000000Y-134100000D01*
X142000000Y-134100000D02*
X141500000Y-133600000D01*
X131500000Y-133000000D02*
X131500000Y-132050000D01*
X131500000Y-132050000D02*
X132000000Y-131550000D01*
D36*
%TO.N,Fret_B*%
X141500000Y-64400000D02*
X137730000Y-64400000D01*
X137730000Y-64400000D02*
X136410000Y-65720000D01*
X136410000Y-65720000D02*
X136410000Y-66250000D01*
%TO.N,Fret_R*%
X136500000Y-67500000D02*
X137680000Y-68680000D01*
X137680000Y-68680000D02*
X137680000Y-83750000D01*
%TO.N,Fret_G*%
X128900000Y-77525000D02*
X130820000Y-79445000D01*
X130820000Y-79445000D02*
X131350000Y-79445000D01*
%TO.N,Fret_Y*%
X130400000Y-78175000D02*
X131350000Y-78175000D01*
X129500000Y-77275000D02*
X130400000Y-78175000D01*
D37*
%TO.N,DPad_COM*%
X154750000Y-131500000D02*
X154750000Y-127700000D01*
X154750000Y-127700000D02*
X154550000Y-127500000D01*
%TO.N,+5V*%
X144000000Y-116150000D02*
X144000000Y-119500000D01*
X144000000Y-119500000D02*
X144462500Y-119962500D01*
X144462500Y-119962500D02*
X144462500Y-121000000D01*
X148500000Y-114000000D02*
X147500000Y-114000000D01*
X144000000Y-116150000D02*
X144000000Y-111500000D01*
X147500000Y-114000000D02*
X146000000Y-112500000D01*
X146000000Y-112500000D02*
X145000000Y-112500000D01*
X145000000Y-112500000D02*
X144000000Y-111500000D01*
X145500000Y-117650000D02*
X144000000Y-116150000D01*
X144000000Y-111500000D02*
X144000000Y-104550000D01*
X144000000Y-104550000D02*
X144200000Y-104350000D01*
D36*
%TO.N,Fret_O*%
X142500000Y-64500000D02*
X142000000Y-65000000D01*
X142000000Y-65000000D02*
X137980000Y-65000000D01*
X137980000Y-65000000D02*
X137680000Y-65300000D01*
X137680000Y-65300000D02*
X137680000Y-66250000D01*
%TO.N,UART_TX*%
X145300000Y-83750000D02*
X145300000Y-97200000D01*
X145300000Y-97200000D02*
X143150000Y-99350000D01*
X143150000Y-99350000D02*
X143150000Y-134030000D01*
X143150000Y-134030000D02*
X147620000Y-138500000D01*
X147620000Y-138500000D02*
X147620000Y-138120000D01*
%TO.N,UART_RX*%
X145080000Y-138500000D02*
X142750000Y-136170000D01*
X142750000Y-136170000D02*
X142750000Y-96750000D01*
X142750000Y-96750000D02*
X144030000Y-95470000D01*
X144030000Y-95470000D02*
X144030000Y-83750000D01*
D37*
%TO.N,VBUS*%
X152250000Y-137400000D02*
X153150000Y-136500000D01*
X153150000Y-136500000D02*
X153150000Y-133826166D01*
X148521554Y-122529931D02*
X148621554Y-122429931D01*
X153150000Y-133826166D02*
X150500000Y-131176166D01*
X150500000Y-131176166D02*
X150500000Y-128501166D01*
X150500000Y-128501166D02*
X148521554Y-126522720D01*
X148521554Y-126522720D02*
X148521554Y-122529931D01*
X148621554Y-122429931D02*
X149496554Y-122429931D01*
D36*
%TO.N,USB_DN*%
X147500000Y-121500000D02*
X147500000Y-127500000D01*
X150000000Y-130000000D02*
X150000000Y-132500000D01*
X147500000Y-127500000D02*
X150000000Y-130000000D01*
X150000000Y-132500000D02*
X151950000Y-134450000D01*
X151950000Y-134450000D02*
X152250000Y-134450000D01*
X149496554Y-120779931D02*
X148220069Y-120779931D01*
X148220069Y-120779931D02*
X147500000Y-121500000D01*
%TO.N,USB_DP*%
X149496554Y-119279931D02*
X150321554Y-119279931D01*
X150321554Y-119279931D02*
X152400000Y-121358377D01*
X152400000Y-121358377D02*
X152400000Y-122358377D01*
X152250000Y-131500000D02*
X152400000Y-131350000D01*
X152400000Y-131350000D02*
X152400000Y-122358377D01*
X152400000Y-122358377D02*
X150321554Y-120279931D01*
X150321554Y-120279931D02*
X149496554Y-120279931D01*
D37*
%TO.N,DPad_COM*%
X148500000Y-133000000D02*
X148000000Y-132500000D01*
X148575000Y-133000000D02*
X148500000Y-133000000D01*
X148000000Y-132500000D02*
X148000000Y-130000000D01*
X148000000Y-130000000D02*
X148000000Y-129500000D01*
X148000000Y-129500000D02*
X146500000Y-128000000D01*
X146500000Y-128000000D02*
X146500000Y-126000000D01*
%TO.N,Wham_3V3*%
X146500000Y-133000000D02*
X146500000Y-130365000D01*
X146500000Y-130365000D02*
X146865000Y-130000000D01*
X138000000Y-133600000D02*
X141500000Y-133600000D01*
X142540000Y-141040000D02*
X144000000Y-142500000D01*
X146370000Y-141517767D02*
X146370000Y-140522233D01*
X144000000Y-142500000D02*
X145387767Y-142500000D01*
X147142233Y-139750000D02*
X148137767Y-139750000D01*
X145387767Y-142500000D02*
X146370000Y-141517767D01*
X146370000Y-140522233D02*
X147142233Y-139750000D01*
X149500000Y-136000000D02*
X146500000Y-133000000D01*
X148137767Y-139750000D02*
X149500000Y-138387767D01*
X149500000Y-138387767D02*
X149500000Y-136000000D01*
D36*
%TO.N,Fret_Y*%
X141690000Y-58110000D02*
X141690000Y-59900000D01*
%TO.N,Fret_G*%
X135500000Y-57000000D02*
X135500000Y-59470000D01*
%TO.N,Fret_O*%
X145660000Y-57000000D02*
X148310000Y-59650000D01*
%TO.N,Fret_B*%
X143120000Y-57000000D02*
X145000000Y-58880000D01*
%TO.N,Fret_Y*%
X140580000Y-57000000D02*
X141690000Y-58110000D01*
D37*
%TO.N,Wham_3V3*%
X138380000Y-63000000D02*
X141690000Y-63000000D01*
D36*
%TO.N,Fret_R*%
X138040000Y-59560000D02*
X138380000Y-59900000D01*
%TO.N,Fret_O*%
X148310000Y-59650000D02*
X148310000Y-59900000D01*
%TO.N,Fret_B*%
X145000000Y-58880000D02*
X145000000Y-59900000D01*
%TO.N,Fret_R*%
X138040000Y-57000000D02*
X138040000Y-59560000D01*
D37*
%TO.N,Wham_3V3*%
X145000000Y-63000000D02*
X148310000Y-63000000D01*
X135070000Y-63000000D02*
X138380000Y-63000000D01*
D36*
%TO.N,Fret_G*%
X135500000Y-59470000D02*
X135070000Y-59900000D01*
D37*
%TO.N,Wham_3V3*%
X141690000Y-63000000D02*
X145000000Y-63000000D01*
D36*
%TO.N,Strum_UP*%
X138610000Y-137610000D02*
X136500000Y-135500000D01*
X138610000Y-139650000D02*
X138610000Y-137610000D01*
X140000000Y-141040000D02*
X138610000Y-139650000D01*
X136500000Y-135500000D02*
X136500000Y-133290256D01*
X136500000Y-133290256D02*
X137140256Y-132650000D01*
X137140256Y-132650000D02*
X139350000Y-132650000D01*
X139350000Y-132650000D02*
X141500000Y-130500000D01*
%TO.N,Strum_DOWN*%
X137460000Y-141040000D02*
X136070000Y-139650000D01*
X136070000Y-139650000D02*
X136070000Y-132430000D01*
X136070000Y-132430000D02*
X138000000Y-130500000D01*
%TO.N,DPad_RIGHT*%
X134920000Y-138500000D02*
X134920000Y-136525686D01*
X135174999Y-125901412D02*
X140000000Y-121076411D01*
X134920000Y-136525686D02*
X135174999Y-136270686D01*
X135174999Y-136270686D02*
X135174999Y-125901412D01*
X140000000Y-121076411D02*
X140000000Y-120900000D01*
%TO.N,Misc_Guide*%
X132380000Y-141040000D02*
X130990000Y-139650000D01*
X130990000Y-139650000D02*
X130990000Y-136507058D01*
X132475430Y-128450000D02*
X132000000Y-128450000D01*
X130990000Y-136507058D02*
X134375000Y-133122055D01*
X134375000Y-133122055D02*
X134374999Y-130349569D01*
X134374999Y-130349569D02*
X132475430Y-128450000D01*
%TO.N,DPad_DOWN*%
X129840000Y-138500000D02*
X129840000Y-137091372D01*
X129840000Y-137091372D02*
X133975000Y-132956370D01*
X133975000Y-132956370D02*
X133974999Y-130515255D01*
X133159744Y-129700000D02*
X131000000Y-129700000D01*
X133974999Y-130515255D02*
X133159744Y-129700000D01*
X131000000Y-129700000D02*
X130500000Y-129200000D01*
X130500000Y-129200000D02*
X130500000Y-126026411D01*
X129000000Y-124526411D02*
X129000000Y-122283333D01*
X130500000Y-126026411D02*
X129000000Y-124526411D01*
X129000000Y-122283333D02*
X130333333Y-120950000D01*
%TO.N,Misc_Back*%
X129840000Y-141040000D02*
X128690000Y-139890000D01*
X128690000Y-139890000D02*
X128690000Y-137675686D01*
X128690000Y-137675686D02*
X133575000Y-132790685D01*
X133575000Y-132790685D02*
X133575000Y-130749570D01*
X133575000Y-130749570D02*
X132925429Y-130100000D01*
X132925429Y-130100000D02*
X130340000Y-130100000D01*
X130340000Y-130100000D02*
X128690000Y-128450000D01*
%TO.N,Misc_Start*%
X125380000Y-128450000D02*
X124205000Y-129625000D01*
X124205000Y-129625000D02*
X124205000Y-136318654D01*
X124205000Y-136318654D02*
X126000000Y-138113654D01*
X126000000Y-138113654D02*
X126000000Y-139740000D01*
X126000000Y-139740000D02*
X127300000Y-141040000D01*
D37*
%TO.N,Wham_3V3*%
X123950000Y-113000000D02*
X122544550Y-114405450D01*
X122544550Y-114405450D02*
X122544550Y-121000000D01*
%TO.N,DPad_COM*%
X130750000Y-109250000D02*
X130885000Y-109250000D01*
X130885000Y-109250000D02*
X132500000Y-107635000D01*
X124250000Y-109250000D02*
X130750000Y-109250000D01*
D36*
%TO.N,ESP_EN*%
X124250000Y-104750000D02*
X123201000Y-105799000D01*
X123201000Y-105799000D02*
X123201000Y-110201000D01*
X123201000Y-110201000D02*
X126000000Y-113000000D01*
X126000000Y-113000000D02*
X127050000Y-113000000D01*
D37*
%TO.N,Wham_3V3*%
X123950000Y-100500000D02*
X122544550Y-101905450D01*
X122544550Y-101905450D02*
X122544550Y-111594550D01*
X122544550Y-111594550D02*
X123950000Y-113000000D01*
%TO.N,DPad_COM*%
X130750000Y-97750000D02*
X130885000Y-97750000D01*
X130885000Y-97750000D02*
X132500000Y-96135000D01*
X124250000Y-97750000D02*
X130750000Y-97750000D01*
D36*
%TO.N,GPIO0*%
X125550000Y-99000000D02*
X124000000Y-99000000D01*
X127050000Y-100500000D02*
X125550000Y-99000000D01*
X124000000Y-99000000D02*
X123201000Y-98201000D01*
X123201000Y-98201000D02*
X123201000Y-94299000D01*
X123201000Y-94299000D02*
X124250000Y-93250000D01*
X130750000Y-93250000D02*
X132500000Y-95000000D01*
X124250000Y-93250000D02*
X130750000Y-93250000D01*
%TO.N,ESP_EN*%
X130750000Y-104750000D02*
X132500000Y-106500000D01*
X124250000Y-104750000D02*
X130750000Y-104750000D01*
%TO.N,Net-(D10-A)*%
X154500000Y-100500000D02*
X154500000Y-106500000D01*
D37*
%TO.N,Wham_3V3*%
X150000000Y-75000000D02*
X147840000Y-72840000D01*
X147840000Y-72840000D02*
X147840000Y-66250000D01*
X150000000Y-94840000D02*
X150000000Y-75000000D01*
X144340000Y-100500000D02*
X150000000Y-94840000D01*
X146500000Y-104350000D02*
X146500000Y-102660000D01*
X146500000Y-102660000D02*
X144340000Y-100500000D01*
X146500000Y-110650000D02*
X146500000Y-104350000D01*
%TO.N,DPad_COM*%
X151960000Y-106500000D02*
X149810000Y-104350000D01*
X149810000Y-104350000D02*
X148800000Y-104350000D01*
X155000000Y-113000000D02*
X155000000Y-109540000D01*
X155000000Y-109540000D02*
X151960000Y-106500000D01*
X154251554Y-115709931D02*
X154251554Y-113748446D01*
X154251554Y-113748446D02*
X155000000Y-113000000D01*
X148500000Y-112865000D02*
X148810000Y-112865000D01*
X148810000Y-112865000D02*
X150071554Y-114126554D01*
X150071554Y-114126554D02*
X150071554Y-115709931D01*
%TO.N,VBUS*%
X145500000Y-114350000D02*
X148779931Y-117629931D01*
%TO.N,+5V*%
X145500000Y-117650000D02*
X145350000Y-117650000D01*
%TO.N,DPad_COM*%
X146500000Y-126000000D02*
X146500000Y-121037500D01*
X146500000Y-121037500D02*
X146537500Y-121000000D01*
%TO.N,+5V*%
X144425000Y-126000000D02*
X144425000Y-121037500D01*
X144425000Y-121037500D02*
X144462500Y-121000000D01*
%TO.N,DPad_COM*%
X124760000Y-141040000D02*
X124760000Y-141760000D01*
X124760000Y-141760000D02*
X126184550Y-143184550D01*
X126184550Y-143184550D02*
X132775450Y-143184550D01*
X132775450Y-143184550D02*
X134920000Y-141040000D01*
X124760000Y-138500000D02*
X124760000Y-141040000D01*
X154750000Y-137400000D02*
X151110000Y-141040000D01*
X151110000Y-141040000D02*
X147620000Y-141040000D01*
X154750000Y-134450000D02*
X154750000Y-137400000D01*
X154750000Y-131500000D02*
X154750000Y-134450000D01*
X154550000Y-131300000D02*
X154750000Y-131500000D01*
X154251554Y-127201554D02*
X154550000Y-127500000D01*
X149496554Y-123229931D02*
X149496554Y-123774931D01*
X149496554Y-123774931D02*
X150071554Y-124349931D01*
X149496554Y-116829931D02*
X149496554Y-116284931D01*
X149496554Y-116284931D02*
X150071554Y-115709931D01*
X151960000Y-106990000D02*
X151960000Y-106500000D01*
X149110000Y-81220000D02*
X149110000Y-83750000D01*
X154251554Y-124349931D02*
X154251554Y-127201554D01*
D36*
%TO.N,Fret_Y*%
X129500000Y-76000000D02*
X129500000Y-77275000D01*
%TO.N,Fret_G*%
X128900000Y-76565687D02*
X128900000Y-77525000D01*
%TO.N,ESP_EN*%
X146500000Y-68000000D02*
X146500000Y-66320000D01*
X134000000Y-69500000D02*
X134500000Y-69000000D01*
X134000000Y-71500000D02*
X134000000Y-69500000D01*
X146500000Y-66320000D02*
X146570000Y-66250000D01*
%TO.N,GPIO0*%
X132200000Y-84150000D02*
X132600000Y-83750000D01*
X132200000Y-85500000D02*
X132200000Y-84150000D01*
D37*
%TO.N,VBUS*%
X148779931Y-117629931D02*
X149496554Y-117629931D01*
D36*
%TO.N,USB_DN*%
X149046554Y-119754931D02*
X148436733Y-119754931D01*
X148671554Y-119779931D02*
X149496554Y-119779931D01*
%TD*%
M02*
