%TF.GenerationSoftware,KiCad,Pcbnew,9.0.8-1.fc43*%
%TF.CreationDate,2026-04-30T12:50:00-05:00*%
%TF.ProjectId,AltWarriorsOfRock,416c7457-6172-4726-996f-72734f66526f,rev?*%
%TF.SameCoordinates,Original*%
%TF.FileFunction,Soldermask,Top*%
%TF.FilePolarity,Negative*%
%FSLAX46Y46*%
G04 Gerber Fmt 4.6, Leading zero omitted, Abs format (unit mm)*
G04 Created by KiCad (PCBNEW 9.0.8-1.fc43) date 2026-04-30 12:50:00*
%MOMM*%
%LPD*%
G01*
G04 APERTURE LIST*
G04 Aperture macros list*
%AMRoundRect*
0 Rectangle with rounded corners*
0 $1 Rounding radius*
0 $2 $3 $4 $5 $6 $7 $8 $9 X,Y pos of 4 corners*
0 Add a 4 corners polygon primitive as box body*
4,1,4,$2,$3,$4,$5,$6,$7,$8,$9,$2,$3,0*
0 Add four circle primitives for the rounded corners*
1,1,$1+$1,$2,$3*
1,1,$1+$1,$4,$5*
1,1,$1+$1,$6,$7*
1,1,$1+$1,$8,$9*
0 Add four rect primitives between the rounded corners*
20,1,$1+$1,$2,$3,$4,$5,0*
20,1,$1+$1,$4,$5,$6,$7,0*
20,1,$1+$1,$6,$7,$8,$9,0*
20,1,$1+$1,$8,$9,$2,$3,0*%
G04 Aperture macros list end*
%ADD10RoundRect,0.250000X0.400000X0.625000X-0.400000X0.625000X-0.400000X-0.625000X0.400000X-0.625000X0*%
%ADD11RoundRect,0.250000X-0.400000X-0.625000X0.400000X-0.625000X0.400000X0.625000X-0.400000X0.625000X0*%
%ADD12C,1.700000*%
%ADD13R,1.700000X1.700000*%
%ADD14O,1.204000X2.004000*%
%ADD15O,1.204000X2.304000*%
%ADD16RoundRect,0.102000X-0.300000X-0.575000X0.300000X-0.575000X0.300000X0.575000X-0.300000X0.575000X0*%
%ADD17RoundRect,0.102000X-0.150000X-0.575000X0.150000X-0.575000X0.150000X0.575000X-0.150000X0.575000X0*%
%ADD18R,0.900000X1.500000*%
%ADD19R,1.500000X0.900000*%
%ADD20C,0.600000*%
%ADD21R,3.900000X3.900000*%
%ADD22C,1.600000*%
%ADD23RoundRect,0.250000X0.625000X-0.400000X0.625000X0.400000X-0.625000X0.400000X-0.625000X-0.400000X0*%
%ADD24RoundRect,0.250000X-0.625000X0.400000X-0.625000X-0.400000X0.625000X-0.400000X0.625000X0.400000X0*%
%ADD25RoundRect,0.375000X-0.625000X-0.375000X0.625000X-0.375000X0.625000X0.375000X-0.625000X0.375000X0*%
%ADD26RoundRect,0.500000X-0.500000X-1.400000X0.500000X-1.400000X0.500000X1.400000X-0.500000X1.400000X0*%
%ADD27C,1.702000*%
%ADD28RoundRect,0.102000X-0.749000X-0.749000X0.749000X-0.749000X0.749000X0.749000X-0.749000X0.749000X0*%
%ADD29RoundRect,0.250000X0.250000X-0.250000X0.250000X0.250000X-0.250000X0.250000X-0.250000X-0.250000X0*%
%ADD30RoundRect,0.250000X0.337500X0.475000X-0.337500X0.475000X-0.337500X-0.475000X0.337500X-0.475000X0*%
%ADD31R,1.800000X1.800000*%
%ADD32C,1.800000*%
%ADD33RoundRect,0.225000X0.375000X-0.225000X0.375000X0.225000X-0.375000X0.225000X-0.375000X-0.225000X0*%
%ADD34RoundRect,0.155000X-0.212500X-0.155000X0.212500X-0.155000X0.212500X0.155000X-0.212500X0.155000X0*%
G04 APERTURE END LIST*
D10*
%TO.C,R21*%
X152000000Y-120900000D03*
X148900000Y-120900000D03*
%TD*%
D11*
%TO.C,R20*%
X143550000Y-120900000D03*
X146650000Y-120900000D03*
%TD*%
D12*
%TO.C,J2*%
X123420000Y-138040000D03*
X125960000Y-138040000D03*
X128500000Y-138040000D03*
X131040000Y-138040000D03*
X133580000Y-138040000D03*
X123420000Y-135500000D03*
X125960000Y-135500000D03*
X128500000Y-135500000D03*
X131040000Y-135500000D03*
D13*
X133580000Y-135500000D03*
%TD*%
%TO.C,J3*%
X153000000Y-135500000D03*
D12*
X150460000Y-135500000D03*
X147920000Y-135500000D03*
X153000000Y-138040000D03*
X150460000Y-138040000D03*
X147920000Y-138040000D03*
%TD*%
D14*
%TO.C,J4*%
X136290000Y-141162500D03*
X144930000Y-141162500D03*
D15*
X136290000Y-136982500D03*
X144930000Y-136982500D03*
D16*
X137410000Y-136407500D03*
X143810000Y-136407500D03*
X138210000Y-136407500D03*
X143010000Y-136407500D03*
D17*
X140860000Y-136407500D03*
X140360000Y-136407500D03*
X141360000Y-136407500D03*
X141860000Y-136407500D03*
X142360000Y-136407500D03*
X139860000Y-136407500D03*
X139360000Y-136407500D03*
X138860000Y-136407500D03*
%TD*%
D18*
%TO.C,U1*%
X147110000Y-68500000D03*
X145840000Y-68500000D03*
X144570000Y-68500000D03*
X143300000Y-68500000D03*
X142030000Y-68500000D03*
X140760000Y-68500000D03*
X139490000Y-68500000D03*
X138220000Y-68500000D03*
X136950000Y-68500000D03*
X135680000Y-68500000D03*
X134410000Y-68500000D03*
X133140000Y-68500000D03*
X131870000Y-68500000D03*
X130600000Y-68500000D03*
D19*
X129350000Y-70265000D03*
X129350000Y-71535000D03*
X129350000Y-72805000D03*
X129350000Y-74075000D03*
X129350000Y-75345000D03*
X129350000Y-76615000D03*
X129350000Y-77885000D03*
X129350000Y-79155000D03*
X129350000Y-80425000D03*
X129350000Y-81695000D03*
X129350000Y-82965000D03*
X129350000Y-84235000D03*
D18*
X130600000Y-86000000D03*
X131870000Y-86000000D03*
X133140000Y-86000000D03*
X134410000Y-86000000D03*
X135680000Y-86000000D03*
X136950000Y-86000000D03*
X138220000Y-86000000D03*
X139490000Y-86000000D03*
X140760000Y-86000000D03*
X142030000Y-86000000D03*
X143300000Y-86000000D03*
X144570000Y-86000000D03*
X145840000Y-86000000D03*
X147110000Y-86000000D03*
D20*
X140090000Y-74350000D03*
X138690000Y-74350000D03*
X140790000Y-75050000D03*
X139390000Y-75050000D03*
X137990000Y-75050000D03*
X140090000Y-75750000D03*
D21*
X139390000Y-75750000D03*
D20*
X138690000Y-75750000D03*
X140790000Y-76450000D03*
X139390000Y-76450000D03*
X137990000Y-76450000D03*
X140090000Y-77150000D03*
X138690000Y-77150000D03*
%TD*%
D22*
%TO.C,R24*%
X146500000Y-99160000D03*
X146500000Y-89000000D03*
%TD*%
D23*
%TO.C,R13*%
X124500000Y-119900000D03*
X124500000Y-123000000D03*
%TD*%
%TO.C,R12*%
X128674444Y-119950000D03*
X128674444Y-123050000D03*
%TD*%
%TO.C,R11*%
X132848888Y-120004096D03*
X132848888Y-123104096D03*
%TD*%
D24*
%TO.C,R14*%
X145500000Y-128100000D03*
X145500000Y-125000000D03*
%TD*%
D25*
%TO.C,U2*%
X136850000Y-114800000D03*
D26*
X143150000Y-112500000D03*
D25*
X136850000Y-112500000D03*
X136850000Y-110200000D03*
%TD*%
D27*
%TO.C,SW3*%
X143250000Y-91750000D03*
X143250000Y-96250000D03*
D28*
X136750000Y-91750000D03*
D27*
X136750000Y-96250000D03*
%TD*%
%TO.C,SW4*%
X143250000Y-101550000D03*
X143250000Y-106050000D03*
D28*
X136750000Y-101550000D03*
D27*
X136750000Y-106050000D03*
%TD*%
D29*
%TO.C,D7*%
X141591529Y-119500000D03*
X141591529Y-117000000D03*
%TD*%
D30*
%TO.C,C9*%
X132425000Y-110172924D03*
X134500000Y-110172924D03*
%TD*%
%TO.C,C13*%
X132425000Y-112461462D03*
X134500000Y-112461462D03*
%TD*%
D29*
%TO.C,D8*%
X147500000Y-118150000D03*
X147500000Y-115650000D03*
%TD*%
%TO.C,D6*%
X138641529Y-119500000D03*
X138641529Y-117000000D03*
%TD*%
D30*
%TO.C,C8*%
X132417447Y-114750000D03*
X134492447Y-114750000D03*
%TD*%
D23*
%TO.C,R22*%
X133500000Y-95350000D03*
X133500000Y-92250000D03*
%TD*%
%TO.C,R9*%
X133500000Y-105850000D03*
X133500000Y-102750000D03*
%TD*%
D24*
%TO.C,R15*%
X149000000Y-125000000D03*
X149000000Y-128100000D03*
%TD*%
%TO.C,R10*%
X124500000Y-126500000D03*
X124500000Y-129600000D03*
%TD*%
%TO.C,R8*%
X132833333Y-126500000D03*
X132833333Y-129600000D03*
%TD*%
%TO.C,R7*%
X128666667Y-126500000D03*
X128666667Y-129600000D03*
%TD*%
%TO.C,R6*%
X137000000Y-126500000D03*
X137000000Y-129600000D03*
%TD*%
D23*
%TO.C,R5*%
X146120000Y-64550000D03*
X146120000Y-61450000D03*
%TD*%
%TO.C,R4*%
X142810000Y-64550000D03*
X142810000Y-61450000D03*
%TD*%
%TO.C,R3*%
X139500000Y-64550000D03*
X139500000Y-61450000D03*
%TD*%
%TO.C,R2*%
X136190000Y-64550000D03*
X136190000Y-61450000D03*
%TD*%
%TO.C,R1*%
X132880000Y-64550000D03*
X132880000Y-61450000D03*
%TD*%
D13*
%TO.C,J5*%
X152000000Y-107290000D03*
D12*
X152000000Y-104750000D03*
%TD*%
D13*
%TO.C,J1*%
X146160000Y-56500000D03*
D12*
X143620000Y-56500000D03*
X141080000Y-56500000D03*
X138540000Y-56500000D03*
X136000000Y-56500000D03*
X133460000Y-56500000D03*
%TD*%
D31*
%TO.C,D10*%
X148500000Y-105000000D03*
D32*
X145960000Y-105000000D03*
%TD*%
D33*
%TO.C,D9*%
X147500000Y-113800000D03*
X147500000Y-110500000D03*
%TD*%
D34*
%TO.C,C14*%
X151432500Y-116350000D03*
X152567500Y-116350000D03*
%TD*%
%TO.C,C12*%
X151432500Y-114350000D03*
X152567500Y-114350000D03*
%TD*%
%TO.C,C11*%
X151432500Y-112350000D03*
X152567500Y-112350000D03*
%TD*%
%TO.C,C10*%
X151432500Y-118350000D03*
X152567500Y-118350000D03*
%TD*%
M02*
