M48
; DRILL file {KiCad 9.0.6-1.fc43} date 2026-02-03T23:27:18-0600
; FORMAT={-:-/ absolute / inch / decimal}
; #@! TF.CreationDate,2026-02-03T23:27:18-06:00
; #@! TF.GenerationSoftware,Kicad,Pcbnew,9.0.6-1.fc43
; #@! TF.FileFunction,Plated,1,2,PTH
FMAT,2
INCH
; #@! TA.AperFunction,Plated,PTH,ComponentDrill
T1C0.0276
; #@! TA.AperFunction,Plated,PTH,ComponentDrill
T2C0.0394
%
G90
G05
T1
X5.0Y-4.9484
X5.0Y-5.2484
X5.1244Y-4.9482
X5.1244Y-5.2482
X5.248Y-4.9484
X5.248Y-5.2484
X5.3543Y-2.4606
X5.3543Y-2.7606
X5.3737Y-4.9482
X5.3737Y-5.2482
X5.4783Y-2.4606
X5.4783Y-2.7606
X5.5118Y-4.9484
X5.5118Y-5.2484
X5.6024Y-2.4606
X5.6024Y-2.7606
X5.6358Y-4.9484
X5.6358Y-5.2484
X5.7264Y-2.4606
X5.7264Y-2.7606
X5.7598Y-4.9484
X5.7598Y-5.2484
X5.8504Y-2.4606
X5.8504Y-2.7606
X5.878Y-4.9484
X5.878Y-5.2484
X5.9961Y-4.9484
X5.9961Y-5.2484
T2
X5.0299Y-5.3937
X5.0299Y-5.4937
X5.0879Y-3.0886
X5.0879Y-3.1886
X5.0879Y-3.2886
X5.0879Y-3.3886
X5.0879Y-3.4886
X5.0879Y-3.5886
X5.0879Y-3.6886
X5.0879Y-3.7886
X5.0879Y-3.8886
X5.0879Y-3.9886
X5.0879Y-4.0886
X5.0879Y-4.1886
X5.1299Y-5.3937
X5.1299Y-5.4937
X5.2299Y-5.3937
X5.2299Y-5.4937
X5.3299Y-5.3937
X5.3299Y-5.4937
X5.3496Y-2.3031
X5.4299Y-5.3937
X5.4299Y-5.4937
X5.4496Y-2.3031
X5.5299Y-5.3937
X5.5299Y-5.4937
X5.5496Y-2.3031
X5.6299Y-5.3937
X5.6299Y-5.4937
X5.6496Y-2.3031
X5.7299Y-5.3937
X5.7299Y-5.4937
X5.7496Y-2.3031
X5.8299Y-5.3937
X5.8299Y-5.4937
X5.8496Y-2.3031
X5.8879Y-3.0886
X5.8879Y-3.1886
X5.8879Y-3.2886
X5.8879Y-3.3886
X5.8879Y-3.4886
X5.8879Y-3.5886
X5.8879Y-3.6886
X5.8879Y-3.7886
X5.8879Y-3.8886
X5.8879Y-3.9886
X5.8879Y-4.0886
X5.8879Y-4.1886
X5.8879Y-4.2886
X5.8879Y-4.3886
X5.8879Y-4.4886
X5.8879Y-4.5886
X5.9299Y-5.3937
X5.9299Y-5.4937
M30
