%TF.GenerationSoftware,KiCad,Pcbnew,9.0.8-1.fc43*%
%TF.CreationDate,2026-04-28T23:08:48-05:00*%
%TF.ProjectId,AltWarriorsOfRock,416c7457-6172-4726-996f-72734f66526f,rev?*%
%TF.SameCoordinates,Original*%
%TF.FileFunction,Copper,L2,Bot*%
%TF.FilePolarity,Positive*%
%FSLAX46Y46*%
G04 Gerber Fmt 4.6, Leading zero omitted, Abs format (unit mm)*
G04 Created by KiCad (PCBNEW 9.0.8-1.fc43) date 2026-04-28 23:08:48*
%MOMM*%
%LPD*%
G01*
G04 APERTURE LIST*
G04 Aperture macros list*
%AMRoundRect*
0 Rectangle with rounded corners*
0 $1 Rounding radius*
0 $2 $3 $4 $5 $6 $7 $8 $9 X,Y pos of 4 corners*
0 Add a 4 corners polygon primitive as box body*
4,1,4,$2,$3,$4,$5,$6,$7,$8,$9,$2,$3,0*
0 Add four circle primitives for the rounded corners*
1,1,$1+$1,$2,$3*
1,1,$1+$1,$4,$5*
1,1,$1+$1,$6,$7*
1,1,$1+$1,$8,$9*
0 Add four rect primitives between the rounded corners*
20,1,$1+$1,$2,$3,$4,$5,0*
20,1,$1+$1,$4,$5,$6,$7,0*
20,1,$1+$1,$6,$7,$8,$9,0*
20,1,$1+$1,$8,$9,$2,$3,0*%
G04 Aperture macros list end*
%TA.AperFunction,ComponentPad*%
%ADD10O,1.800000X1.000000*%
%TD*%
%TA.AperFunction,ComponentPad*%
%ADD11O,2.100000X1.000000*%
%TD*%
%TA.AperFunction,ComponentPad*%
%ADD12RoundRect,0.190500X-0.444500X1.079500X-0.444500X-1.079500X0.444500X-1.079500X0.444500X1.079500X0*%
%TD*%
%TA.AperFunction,ComponentPad*%
%ADD13C,1.700000*%
%TD*%
%TA.AperFunction,ComponentPad*%
%ADD14R,1.700000X1.700000*%
%TD*%
%TA.AperFunction,ComponentPad*%
%ADD15C,1.498000*%
%TD*%
%TA.AperFunction,ComponentPad*%
%ADD16R,1.498000X1.498000*%
%TD*%
%TA.AperFunction,ComponentPad*%
%ADD17C,1.600000*%
%TD*%
%TA.AperFunction,ComponentPad*%
%ADD18R,1.800000X1.800000*%
%TD*%
%TA.AperFunction,ComponentPad*%
%ADD19C,1.800000*%
%TD*%
%TA.AperFunction,ViaPad*%
%ADD20C,0.600000*%
%TD*%
%TA.AperFunction,Conductor*%
%ADD21C,0.400000*%
%TD*%
%TA.AperFunction,Conductor*%
%ADD22C,0.200000*%
%TD*%
G04 APERTURE END LIST*
D10*
%TO.P,J4,SH3,SHELL_GND*%
%TO.N,DPad_COM*%
X154251554Y-124349931D03*
%TO.P,J4,SH4,SHELL_GND*%
X154251554Y-115709931D03*
D11*
%TO.P,J4,SH1,SHELL_GND*%
X150071554Y-124349931D03*
%TO.P,J4,SH2,SHELL_GND*%
X150071554Y-115709931D03*
%TD*%
D12*
%TO.P,U1,41,GND*%
%TO.N,DPad_COM*%
X140690000Y-74900000D03*
X142090000Y-74900000D03*
X140690000Y-72100000D03*
X142090000Y-72100000D03*
%TD*%
D13*
%TO.P,J1,6,Pin_6*%
%TO.N,Fret_G*%
X135500000Y-57000000D03*
%TO.P,J1,5,Pin_5*%
%TO.N,Fret_R*%
X138040000Y-57000000D03*
%TO.P,J1,4,Pin_4*%
%TO.N,Fret_Y*%
X140580000Y-57000000D03*
%TO.P,J1,3,Pin_3*%
%TO.N,Fret_B*%
X143120000Y-57000000D03*
%TO.P,J1,2,Pin_2*%
%TO.N,Fret_O*%
X145660000Y-57000000D03*
D14*
%TO.P,J1,1,Pin_1*%
%TO.N,DPad_COM*%
X148200000Y-57000000D03*
%TD*%
D15*
%TO.P,SW4,2*%
%TO.N,DPad_COM*%
X124250000Y-109250000D03*
%TO.P,SW4,4*%
%TO.N,ESP_EN*%
X124250000Y-104750000D03*
D16*
%TO.P,SW4,1*%
%TO.N,DPad_COM*%
X130750000Y-109250000D03*
D15*
%TO.P,SW4,3*%
%TO.N,ESP_EN*%
X130750000Y-104750000D03*
%TD*%
D17*
%TO.P,R24,1*%
%TO.N,Wham_3V3*%
X144340000Y-100500000D03*
%TO.P,R24,2*%
%TO.N,Net-(D10-A)*%
X154500000Y-100500000D03*
%TD*%
D14*
%TO.P,J2,1,Pin_1*%
%TO.N,DPad_COM*%
X124760000Y-141040000D03*
D13*
%TO.P,J2,2,Pin_2*%
%TO.N,Misc_Start*%
X127300000Y-141040000D03*
%TO.P,J2,3,Pin_3*%
%TO.N,Misc_Back*%
X129840000Y-141040000D03*
%TO.P,J2,4,Pin_4*%
%TO.N,Misc_Guide*%
X132380000Y-141040000D03*
%TO.P,J2,5,Pin_5*%
%TO.N,DPad_COM*%
X134920000Y-141040000D03*
%TO.P,J2,6,Pin_6*%
%TO.N,Strum_DOWN*%
X137460000Y-141040000D03*
%TO.P,J2,7,Pin_7*%
%TO.N,Strum_UP*%
X140000000Y-141040000D03*
%TO.P,J2,8,Pin_8*%
%TO.N,Wham_3V3*%
X142540000Y-141040000D03*
%TO.P,J2,9,Pin_9*%
%TO.N,Wham_Signal*%
X145080000Y-141040000D03*
%TO.P,J2,10,Pin_10*%
%TO.N,DPad_COM*%
X147620000Y-141040000D03*
%TO.P,J2,11,Pin_11*%
X124760000Y-138500000D03*
%TO.P,J2,12,Pin_12*%
%TO.N,DPad_UP*%
X127300000Y-138500000D03*
%TO.P,J2,13,Pin_13*%
%TO.N,DPad_DOWN*%
X129840000Y-138500000D03*
%TO.P,J2,14,Pin_14*%
%TO.N,DPad_LEFT*%
X132380000Y-138500000D03*
%TO.P,J2,15,Pin_15*%
%TO.N,DPad_RIGHT*%
X134920000Y-138500000D03*
%TO.P,J2,16,Pin_16*%
%TO.N,unconnected-(J2-Pin_16-Pad16)*%
X137460000Y-138500000D03*
%TO.P,J2,17,Pin_17*%
%TO.N,unconnected-(J2-Pin_17-Pad17)*%
X140000000Y-138500000D03*
%TO.P,J2,18,Pin_18*%
%TO.N,unconnected-(J2-Pin_18-Pad18)*%
X142540000Y-138500000D03*
%TO.P,J2,19,Pin_19*%
%TO.N,UART_RX*%
X145080000Y-138500000D03*
%TO.P,J2,20,Pin_20*%
%TO.N,UART_TX*%
X147620000Y-138500000D03*
%TD*%
D18*
%TO.P,D10,1,K*%
%TO.N,DPad_COM*%
X151960000Y-106500000D03*
D19*
%TO.P,D10,2,A*%
%TO.N,Net-(D10-A)*%
X154500000Y-106500000D03*
%TD*%
D15*
%TO.P,SW3,2*%
%TO.N,DPad_COM*%
X124250000Y-97750000D03*
%TO.P,SW3,4*%
%TO.N,GPIO0*%
X124250000Y-93250000D03*
D16*
%TO.P,SW3,1*%
%TO.N,DPad_COM*%
X130750000Y-97750000D03*
D15*
%TO.P,SW3,3*%
%TO.N,GPIO0*%
X130750000Y-93250000D03*
%TD*%
D20*
%TO.N,VBUS*%
X145500000Y-119000000D03*
X148521554Y-122529931D03*
X145500000Y-116000000D03*
X147000000Y-119500000D03*
%TO.N,DPad_COM*%
X146830000Y-122500000D03*
%TO.N,Strum_DOWN*%
X132900000Y-122065687D03*
X133434313Y-126565687D03*
%TO.N,Strum_UP*%
X133500000Y-121500000D03*
X134000000Y-126000000D03*
%TO.N,Wham_3V3*%
X140000000Y-122500000D03*
X137500000Y-122500000D03*
X131000000Y-125500000D03*
%TO.N,Strum_UP*%
X138000000Y-128000000D03*
X132825735Y-71825735D03*
%TO.N,Strum_DOWN*%
X127500000Y-76500000D03*
X138000000Y-129000000D03*
%TO.N,DPad_COM*%
X149110000Y-81220000D03*
%TO.N,DPad_RIGHT*%
X140750000Y-79750000D03*
X140000000Y-85500000D03*
%TO.N,DPad_LEFT*%
X138280000Y-77500000D03*
X135520318Y-94982781D03*
%TO.N,Misc_Guide*%
X134434313Y-72434313D03*
X134910000Y-95500000D03*
%TO.N,DPad_DOWN*%
X138500000Y-69500000D03*
X135416636Y-72583364D03*
X134000000Y-93000000D03*
X136583364Y-71416636D03*
%TO.N,Misc_Back*%
X126536765Y-76536765D03*
X128000000Y-71500000D03*
%TO.N,Wham_Signal*%
X146454503Y-89000000D03*
%TO.N,Wham_3V3*%
X143750000Y-133000000D03*
%TO.N,DPad_COM*%
X148500000Y-90000000D03*
%TO.N,DPad_UP*%
X125600000Y-80748529D03*
X140000000Y-68000000D03*
%TO.N,USB_DN*%
X130575000Y-66500000D03*
%TO.N,USB_DP*%
X131425000Y-66500000D03*
X147704504Y-117720496D03*
%TO.N,USB_DN*%
X146854504Y-117720496D03*
%TO.N,Wham_3V3*%
X122544550Y-121000000D03*
X125500000Y-125500000D03*
X131500000Y-133000000D03*
X142000000Y-135500000D03*
%TO.N,Fret_G*%
X128900000Y-76565687D03*
%TO.N,Fret_Y*%
X129500000Y-76000000D03*
%TO.N,Fret_R*%
X136500000Y-67500000D03*
%TO.N,Fret_B*%
X141500000Y-64400000D03*
%TO.N,Fret_O*%
X142500000Y-64500000D03*
%TO.N,ESP_EN*%
X146500000Y-68000000D03*
X134500000Y-69000000D03*
X134000000Y-71500000D03*
%TO.N,GPIO0*%
X132200000Y-85500000D03*
%TD*%
D21*
%TO.N,DPad_COM*%
X124250000Y-97750000D02*
X123101000Y-96601000D01*
X123101000Y-96601000D02*
X123101000Y-67399000D01*
X123101000Y-67399000D02*
X136000000Y-54500000D01*
X136000000Y-54500000D02*
X145700000Y-54500000D01*
X145700000Y-54500000D02*
X148200000Y-57000000D01*
X142090000Y-72100000D02*
X143490000Y-72100000D01*
X143490000Y-72100000D02*
X149500000Y-66090000D01*
X142090000Y-72100000D02*
X142090000Y-74900000D01*
X140690000Y-72100000D02*
X142090000Y-72100000D01*
X140690000Y-74900000D02*
X140690000Y-72100000D01*
X142090000Y-74900000D02*
X140690000Y-74900000D01*
X149110000Y-81220000D02*
X148410000Y-81220000D01*
X148410000Y-81220000D02*
X142090000Y-74900000D01*
D22*
%TO.N,USB_DP*%
X136949980Y-73382930D02*
X147504505Y-83937455D01*
X131225001Y-66699999D02*
X131225001Y-66906803D01*
X131425000Y-66500000D02*
X131225001Y-66699999D01*
%TO.N,USB_DN*%
X147054503Y-117520497D02*
X146854504Y-117720496D01*
X147054503Y-84123821D02*
X147054503Y-117520497D01*
X136500000Y-73569318D02*
X147054503Y-84123821D01*
%TO.N,USB_DP*%
X131225001Y-66906803D02*
X136949980Y-72631782D01*
%TO.N,USB_DN*%
X136500000Y-72818198D02*
X136500000Y-73569318D01*
%TO.N,USB_DP*%
X147504505Y-83937455D02*
X147504505Y-117520497D01*
%TO.N,USB_DN*%
X130774999Y-66699999D02*
X130774999Y-67093197D01*
%TO.N,USB_DP*%
X136949980Y-72631782D02*
X136949980Y-73382930D01*
%TO.N,USB_DN*%
X130774999Y-67093197D02*
X136500000Y-72818198D01*
X130575000Y-66500000D02*
X130774999Y-66699999D01*
%TO.N,USB_DP*%
X147504505Y-117520497D02*
X147704504Y-117720496D01*
%TO.N,DPad_RIGHT*%
X140750000Y-79750000D02*
X140000000Y-80500000D01*
X140000000Y-80500000D02*
X140000000Y-85500000D01*
%TO.N,DPad_LEFT*%
X138280000Y-77500000D02*
X135520318Y-80259682D01*
X135520318Y-80259682D02*
X135520318Y-94982781D01*
D21*
%TO.N,DPad_COM*%
X148200000Y-57000000D02*
X149500000Y-58300000D01*
X149500000Y-58300000D02*
X149500000Y-66090000D01*
%TO.N,VBUS*%
X147000000Y-121008377D02*
X148521554Y-122529931D01*
X147000000Y-119500000D02*
X147000000Y-121008377D01*
X145500000Y-116000000D02*
X145500000Y-119000000D01*
%TO.N,DPad_COM*%
X150071554Y-124349931D02*
X148679931Y-124349931D01*
X148679931Y-124349931D02*
X146830000Y-122500000D01*
%TO.N,Wham_3V3*%
X131500000Y-133000000D02*
X131000000Y-132500000D01*
X131000000Y-125500000D02*
X131000000Y-132500000D01*
X131000000Y-125500000D02*
X134000000Y-122500000D01*
X134000000Y-122500000D02*
X137500000Y-122500000D01*
D22*
%TO.N,Strum_DOWN*%
X132900000Y-122065687D02*
X132900000Y-121900000D01*
X132900000Y-121900000D02*
X125299000Y-114299000D01*
X125299000Y-114299000D02*
X125299000Y-81296058D01*
X125299000Y-81296058D02*
X125000000Y-80997058D01*
X125000000Y-80997058D02*
X125000000Y-79000000D01*
X125000000Y-79000000D02*
X127500000Y-76500000D01*
%TO.N,Strum_UP*%
X133500000Y-121500000D02*
X126000000Y-114000000D01*
X126000000Y-114000000D02*
X126000000Y-88500000D01*
X126000000Y-88500000D02*
X130500000Y-84000000D01*
X130500000Y-84000000D02*
X130500000Y-74151470D01*
X130500000Y-74151470D02*
X132825735Y-71825735D01*
%TO.N,Strum_DOWN*%
X138000000Y-129000000D02*
X135868626Y-129000000D01*
X135868626Y-129000000D02*
X133434313Y-126565687D01*
%TO.N,Strum_UP*%
X138000000Y-128000000D02*
X136000000Y-128000000D01*
X136000000Y-128000000D02*
X134000000Y-126000000D01*
D21*
%TO.N,Wham_3V3*%
X140000000Y-122500000D02*
X144340000Y-118160000D01*
X144340000Y-118160000D02*
X144340000Y-100500000D01*
X137500000Y-122500000D02*
X140000000Y-122500000D01*
D22*
%TO.N,Misc_Guide*%
X134910000Y-95500000D02*
X134910000Y-95410000D01*
X134910000Y-95410000D02*
X133400000Y-93900000D01*
X133400000Y-93900000D02*
X133400000Y-73468626D01*
X133400000Y-73468626D02*
X134434313Y-72434313D01*
%TO.N,DPad_DOWN*%
X134000000Y-93000000D02*
X134000000Y-74000000D01*
X134000000Y-74000000D02*
X135416636Y-72583364D01*
%TO.N,DPad_UP*%
X130100000Y-75751471D02*
X130100000Y-76248529D01*
X129975000Y-75626471D02*
X130100000Y-75751471D01*
X134051471Y-65900000D02*
X130326471Y-65900000D01*
X136251471Y-68100000D02*
X134051471Y-65900000D01*
X140000000Y-68000000D02*
X139900000Y-68100000D01*
X139900000Y-68100000D02*
X136251471Y-68100000D01*
X130326471Y-65900000D02*
X129975000Y-66251471D01*
X129975000Y-66251471D02*
X129975000Y-75626471D01*
X130100000Y-76248529D02*
X125600000Y-80748529D01*
%TO.N,DPad_DOWN*%
X136583364Y-71416636D02*
X138500000Y-69500000D01*
%TO.N,Misc_Back*%
X126536765Y-76536765D02*
X126536765Y-72963235D01*
X126536765Y-72963235D02*
X128000000Y-71500000D01*
%TO.N,Wham_Signal*%
X145080000Y-141040000D02*
X146230000Y-139890000D01*
X146230000Y-139890000D02*
X146230000Y-89224503D01*
X146230000Y-89224503D02*
X146454503Y-89000000D01*
D21*
%TO.N,Wham_3V3*%
X142000000Y-134750000D02*
X143750000Y-133000000D01*
X142000000Y-135500000D02*
X142000000Y-134750000D01*
%TO.N,DPad_COM*%
X148500000Y-103040000D02*
X148500000Y-90000000D01*
X151960000Y-106500000D02*
X148500000Y-103040000D01*
%TO.N,Wham_3V3*%
X122544550Y-121000000D02*
X122544550Y-124044550D01*
X122544550Y-124044550D02*
X125500000Y-127000000D01*
%TO.N,DPad_COM*%
X155000000Y-125098377D02*
X155000000Y-137000000D01*
X154251554Y-124349931D02*
X155000000Y-125098377D01*
X155000000Y-137000000D02*
X150960000Y-141040000D01*
X150960000Y-141040000D02*
X147620000Y-141040000D01*
X124250000Y-97750000D02*
X123000000Y-99000000D01*
X123000000Y-99000000D02*
X123000000Y-108000000D01*
X123000000Y-108000000D02*
X124250000Y-109250000D01*
%TO.N,Wham_3V3*%
X125500000Y-127000000D02*
X125500000Y-125500000D01*
X131000000Y-132500000D02*
X125500000Y-127000000D01*
X134000000Y-135500000D02*
X131500000Y-133000000D01*
X142000000Y-135500000D02*
X134000000Y-135500000D01*
D22*
%TO.N,Fret_B*%
X141500000Y-64400000D02*
X141600000Y-64400000D01*
X141600000Y-64400000D02*
X143120000Y-62880000D01*
X143120000Y-62880000D02*
X143120000Y-57000000D01*
%TO.N,Fret_R*%
X136500000Y-64370000D02*
X136500000Y-67500000D01*
X138040000Y-62830000D02*
X136500000Y-64370000D01*
X138040000Y-57000000D02*
X138040000Y-62830000D01*
%TO.N,Fret_G*%
X128900000Y-76400000D02*
X129000000Y-76500000D01*
X128900000Y-63600000D02*
X128900000Y-76400000D01*
X135500000Y-57000000D02*
X128900000Y-63600000D01*
X129000000Y-76500000D02*
X128934313Y-76565687D01*
X128934313Y-76565687D02*
X128900000Y-76565687D01*
%TO.N,Fret_O*%
X142500000Y-64500000D02*
X145660000Y-61340000D01*
X145660000Y-61340000D02*
X145660000Y-57000000D01*
D21*
%TO.N,DPad_COM*%
X150071554Y-124349931D02*
X154251554Y-124349931D01*
X150071554Y-115709931D02*
X154251554Y-115709931D01*
D22*
%TO.N,Fret_Y*%
X140580000Y-57000000D02*
X139080000Y-55500000D01*
X139080000Y-55500000D02*
X137913654Y-55500000D01*
X137913654Y-55500000D02*
X136715000Y-56698654D01*
X136715000Y-57785000D02*
X129500000Y-65000000D01*
X136715000Y-56698654D02*
X136715000Y-57785000D01*
X129500000Y-65000000D02*
X129500000Y-76000000D01*
%TO.N,ESP_EN*%
X134500000Y-69000000D02*
X134600000Y-68900000D01*
X134600000Y-68900000D02*
X145600000Y-68900000D01*
X130750000Y-104750000D02*
X132800000Y-102700000D01*
X132800000Y-102700000D02*
X132800000Y-72700000D01*
X132800000Y-72700000D02*
X134000000Y-71500000D01*
X145600000Y-68900000D02*
X146500000Y-68000000D01*
%TO.N,GPIO0*%
X130750000Y-93250000D02*
X132200000Y-91800000D01*
X132200000Y-91800000D02*
X132200000Y-85500000D01*
%TD*%
M02*
