%TF.GenerationSoftware,KiCad,Pcbnew,9.0.8-1.fc43*%
%TF.CreationDate,2026-04-28T23:08:48-05:00*%
%TF.ProjectId,AltWarriorsOfRock,416c7457-6172-4726-996f-72734f66526f,rev?*%
%TF.SameCoordinates,Original*%
%TF.FileFunction,Soldermask,Bot*%
%TF.FilePolarity,Negative*%
%FSLAX46Y46*%
G04 Gerber Fmt 4.6, Leading zero omitted, Abs format (unit mm)*
G04 Created by KiCad (PCBNEW 9.0.8-1.fc43) date 2026-04-28 23:08:48*
%MOMM*%
%LPD*%
G01*
G04 APERTURE LIST*
G04 Aperture macros list*
%AMRoundRect*
0 Rectangle with rounded corners*
0 $1 Rounding radius*
0 $2 $3 $4 $5 $6 $7 $8 $9 X,Y pos of 4 corners*
0 Add a 4 corners polygon primitive as box body*
4,1,4,$2,$3,$4,$5,$6,$7,$8,$9,$2,$3,0*
0 Add four circle primitives for the rounded corners*
1,1,$1+$1,$2,$3*
1,1,$1+$1,$4,$5*
1,1,$1+$1,$6,$7*
1,1,$1+$1,$8,$9*
0 Add four rect primitives between the rounded corners*
20,1,$1+$1,$2,$3,$4,$5,0*
20,1,$1+$1,$4,$5,$6,$7,0*
20,1,$1+$1,$6,$7,$8,$9,0*
20,1,$1+$1,$8,$9,$2,$3,0*%
G04 Aperture macros list end*
%ADD10O,2.004000X1.204000*%
%ADD11O,2.304000X1.204000*%
%ADD12C,0.650000*%
%ADD13RoundRect,0.190500X-0.444500X1.079500X-0.444500X-1.079500X0.444500X-1.079500X0.444500X1.079500X0*%
%ADD14C,1.700000*%
%ADD15R,1.700000X1.700000*%
%ADD16C,1.702000*%
%ADD17RoundRect,0.102000X0.749000X0.749000X-0.749000X0.749000X-0.749000X-0.749000X0.749000X-0.749000X0*%
%ADD18C,1.600000*%
%ADD19R,1.800000X1.800000*%
%ADD20C,1.800000*%
G04 APERTURE END LIST*
D10*
%TO.C,J4*%
X154251554Y-124349931D03*
X154251554Y-115709931D03*
D11*
X150071554Y-124349931D03*
X150071554Y-115709931D03*
D12*
X150571554Y-117139931D03*
X150571554Y-122919931D03*
%TD*%
D13*
%TO.C,U1*%
X140690000Y-74900000D03*
X142090000Y-74900000D03*
X140690000Y-72100000D03*
X142090000Y-72100000D03*
%TD*%
D14*
%TO.C,J1*%
X135500000Y-57000000D03*
X138040000Y-57000000D03*
X140580000Y-57000000D03*
X143120000Y-57000000D03*
X145660000Y-57000000D03*
D15*
X148200000Y-57000000D03*
%TD*%
D16*
%TO.C,SW4*%
X124250000Y-109250000D03*
X124250000Y-104750000D03*
D17*
X130750000Y-109250000D03*
D16*
X130750000Y-104750000D03*
%TD*%
D18*
%TO.C,R24*%
X144340000Y-100500000D03*
X154500000Y-100500000D03*
%TD*%
D15*
%TO.C,J2*%
X124760000Y-141040000D03*
D14*
X127300000Y-141040000D03*
X129840000Y-141040000D03*
X132380000Y-141040000D03*
X134920000Y-141040000D03*
X137460000Y-141040000D03*
X140000000Y-141040000D03*
X142540000Y-141040000D03*
X145080000Y-141040000D03*
X147620000Y-141040000D03*
X124760000Y-138500000D03*
X127300000Y-138500000D03*
X129840000Y-138500000D03*
X132380000Y-138500000D03*
X134920000Y-138500000D03*
X137460000Y-138500000D03*
X140000000Y-138500000D03*
X142540000Y-138500000D03*
X145080000Y-138500000D03*
X147620000Y-138500000D03*
%TD*%
D19*
%TO.C,D10*%
X151960000Y-106500000D03*
D20*
X154500000Y-106500000D03*
%TD*%
D16*
%TO.C,SW3*%
X124250000Y-97750000D03*
X124250000Y-93250000D03*
D17*
X130750000Y-97750000D03*
D16*
X130750000Y-93250000D03*
%TD*%
M02*
