M48
; DRILL file {KiCad 9.0.8-1.fc43} date 2026-04-28T23:08:48-0500
; FORMAT={-:-/ absolute / inch / decimal}
; #@! TF.CreationDate,2026-04-28T23:08:48-05:00
; #@! TF.GenerationSoftware,Kicad,Pcbnew,9.0.8-1.fc43
; #@! TF.FileFunction,Plated,1,2,PTH
FMAT,2
INCH
; #@! TA.AperFunction,Plated,PTH,ViaDrill
T1C0.0118
; #@! TA.AperFunction,Plated,PTH,ComponentDrill
T2C0.0236
; #@! TA.AperFunction,Plated,PTH,ComponentDrill
T3C0.0315
; #@! TA.AperFunction,Plated,PTH,ComponentDrill
T4C0.0354
; #@! TA.AperFunction,Plated,PTH,ComponentDrill
T5C0.0390
; #@! TA.AperFunction,Plated,PTH,ComponentDrill
T6C0.0394
%
G90
G05
T1
X4.8246Y-4.7638
X4.9409Y-4.9409
X4.9449Y-3.1791
X4.9818Y-3.0133
X5.0197Y-3.0118
X5.0394Y-2.815
X5.0748Y-3.0144
X5.0984Y-2.9921
X5.1407Y-2.6181
X5.1575Y-4.9409
X5.1742Y-2.6181
X5.1772Y-5.2362
X5.2047Y-3.3661
X5.2294Y-2.8278
X5.2323Y-4.8057
X5.2533Y-4.9829
X5.2559Y-4.7835
X5.2756Y-2.815
X5.2756Y-3.6614
X5.2756Y-4.9606
X5.2927Y-2.8517
X5.2953Y-2.7165
X5.3114Y-3.7598
X5.3314Y-2.8576
X5.3354Y-3.7395
X5.374Y-2.6575
X5.3773Y-2.8117
X5.4134Y-4.8228
X5.4331Y-5.0394
X5.4331Y-5.0787
X5.4441Y-3.0512
X5.4528Y-2.7362
X5.5118Y-2.6772
X5.5118Y-3.3661
X5.5118Y-4.8228
X5.5413Y-3.1398
X5.5709Y-2.5354
X5.5906Y-5.3346
X5.6102Y-2.5394
X5.6594Y-5.2362
X5.7283Y-4.5669
X5.7283Y-4.685
X5.7659Y-3.5039
X5.7677Y-2.6772
X5.7807Y-4.8228
X5.7817Y-4.6347
X5.7874Y-4.7047
X5.8151Y-4.6347
X5.8465Y-3.5433
X5.8473Y-4.824
X5.8705Y-3.1976
T3
X5.539Y-2.8386
X5.539Y-2.9488
X5.5941Y-2.8386
X5.5941Y-2.9488
X5.6827Y-3.9567
X6.0827Y-3.9567
T4
X5.9827Y-4.1929
X6.0827Y-4.1929
T5
X4.8917Y-3.6713
X4.8917Y-3.8484
X4.8917Y-4.124
X4.8917Y-4.3012
X5.1476Y-3.6713
X5.1476Y-3.8484
X5.1476Y-4.124
X5.1476Y-4.3012
T6
X4.9118Y-5.4528
X4.9118Y-5.5528
X5.0118Y-5.4528
X5.0118Y-5.5528
X5.1118Y-5.4528
X5.1118Y-5.5528
X5.2118Y-5.4528
X5.2118Y-5.5528
X5.3118Y-5.4528
X5.3118Y-5.5528
X5.3346Y-2.2441
X5.4118Y-5.4528
X5.4118Y-5.5528
X5.4346Y-2.2441
X5.5118Y-5.4528
X5.5118Y-5.5528
X5.5346Y-2.2441
X5.6118Y-5.4528
X5.6118Y-5.5528
X5.6346Y-2.2441
X5.7118Y-5.4528
X5.7118Y-5.5528
X5.7346Y-2.2441
X5.8118Y-5.4528
X5.8118Y-5.5528
X5.8346Y-2.2441
T2
G00X5.8867Y-4.5555
M15
G01X5.93Y-4.5555
M16
G05
G00X5.8867Y-4.8957
M15
G01X5.93Y-4.8957
M16
G05
G00X6.0571Y-4.5555
M15
G01X6.0886Y-4.5555
M16
G05
G00X6.0571Y-4.8957
M15
G01X6.0886Y-4.8957
M16
G05
M30
