%TF.GenerationSoftware,KiCad,Pcbnew,9.0.8-1.fc43*%
%TF.CreationDate,2026-05-01T18:24:24-05:00*%
%TF.ProjectId,AltWarriorsOfRock,416c7457-6172-4726-996f-72734f66526f,rev?*%
%TF.SameCoordinates,Original*%
%TF.FileFunction,Copper,L1,Top*%
%TF.FilePolarity,Positive*%
%FSLAX46Y46*%
G04 Gerber Fmt 4.6, Leading zero omitted, Abs format (unit mm)*
G04 Created by KiCad (PCBNEW 9.0.8-1.fc43) date 2026-05-01 18:24:24*
%MOMM*%
%LPD*%
G01*
G04 APERTURE LIST*
G04 Aperture macros list*
%AMRoundRect*
0 Rectangle with rounded corners*
0 $1 Rounding radius*
0 $2 $3 $4 $5 $6 $7 $8 $9 X,Y pos of 4 corners*
0 Add a 4 corners polygon primitive as box body*
4,1,4,$2,$3,$4,$5,$6,$7,$8,$9,$2,$3,0*
0 Add four circle primitives for the rounded corners*
1,1,$1+$1,$2,$3*
1,1,$1+$1,$4,$5*
1,1,$1+$1,$6,$7*
1,1,$1+$1,$8,$9*
0 Add four rect primitives between the rounded corners*
20,1,$1+$1,$2,$3,$4,$5,0*
20,1,$1+$1,$4,$5,$6,$7,0*
20,1,$1+$1,$6,$7,$8,$9,0*
20,1,$1+$1,$8,$9,$2,$3,0*%
G04 Aperture macros list end*
%TA.AperFunction,SMDPad,CuDef*%
%ADD10RoundRect,0.250000X-0.400000X-0.625000X0.400000X-0.625000X0.400000X0.625000X-0.400000X0.625000X0*%
%TD*%
%TA.AperFunction,SMDPad,CuDef*%
%ADD11RoundRect,0.225000X-0.375000X0.225000X-0.375000X-0.225000X0.375000X-0.225000X0.375000X0.225000X0*%
%TD*%
%TA.AperFunction,SMDPad,CuDef*%
%ADD12RoundRect,0.250000X-0.250000X0.250000X-0.250000X-0.250000X0.250000X-0.250000X0.250000X0.250000X0*%
%TD*%
%TA.AperFunction,SMDPad,CuDef*%
%ADD13RoundRect,0.250000X0.625000X-0.400000X0.625000X0.400000X-0.625000X0.400000X-0.625000X-0.400000X0*%
%TD*%
%TA.AperFunction,SMDPad,CuDef*%
%ADD14RoundRect,0.155000X-0.212500X-0.155000X0.212500X-0.155000X0.212500X0.155000X-0.212500X0.155000X0*%
%TD*%
%TA.AperFunction,ComponentPad*%
%ADD15C,1.800000*%
%TD*%
%TA.AperFunction,ComponentPad*%
%ADD16R,1.800000X1.800000*%
%TD*%
%TA.AperFunction,ComponentPad*%
%ADD17C,1.700000*%
%TD*%
%TA.AperFunction,ComponentPad*%
%ADD18R,1.700000X1.700000*%
%TD*%
%TA.AperFunction,SMDPad,CuDef*%
%ADD19RoundRect,0.250000X-0.625000X0.400000X-0.625000X-0.400000X0.625000X-0.400000X0.625000X0.400000X0*%
%TD*%
%TA.AperFunction,SMDPad,CuDef*%
%ADD20RoundRect,0.250000X0.337500X0.475000X-0.337500X0.475000X-0.337500X-0.475000X0.337500X-0.475000X0*%
%TD*%
%TA.AperFunction,SMDPad,CuDef*%
%ADD21RoundRect,0.250000X0.250000X-0.250000X0.250000X0.250000X-0.250000X0.250000X-0.250000X-0.250000X0*%
%TD*%
%TA.AperFunction,ComponentPad*%
%ADD22C,1.498000*%
%TD*%
%TA.AperFunction,ComponentPad*%
%ADD23R,1.498000X1.498000*%
%TD*%
%TA.AperFunction,SMDPad,CuDef*%
%ADD24RoundRect,0.375000X-0.625000X-0.375000X0.625000X-0.375000X0.625000X0.375000X-0.625000X0.375000X0*%
%TD*%
%TA.AperFunction,SMDPad,CuDef*%
%ADD25RoundRect,0.500000X-0.500000X-1.400000X0.500000X-1.400000X0.500000X1.400000X-0.500000X1.400000X0*%
%TD*%
%TA.AperFunction,ComponentPad*%
%ADD26C,1.600000*%
%TD*%
%TA.AperFunction,HeatsinkPad*%
%ADD27C,0.600000*%
%TD*%
%TA.AperFunction,HeatsinkPad*%
%ADD28R,3.900000X3.900000*%
%TD*%
%TA.AperFunction,SMDPad,CuDef*%
%ADD29R,0.900000X1.500000*%
%TD*%
%TA.AperFunction,SMDPad,CuDef*%
%ADD30R,1.500000X0.900000*%
%TD*%
%TA.AperFunction,SMDPad,CuDef*%
%ADD31R,0.300000X1.150000*%
%TD*%
%TA.AperFunction,SMDPad,CuDef*%
%ADD32R,0.600000X1.150000*%
%TD*%
%TA.AperFunction,ComponentPad*%
%ADD33O,1.000000X2.100000*%
%TD*%
%TA.AperFunction,ComponentPad*%
%ADD34O,1.000000X1.800000*%
%TD*%
%TA.AperFunction,SMDPad,CuDef*%
%ADD35RoundRect,0.250000X0.400000X0.625000X-0.400000X0.625000X-0.400000X-0.625000X0.400000X-0.625000X0*%
%TD*%
%TA.AperFunction,ViaPad*%
%ADD36C,0.600000*%
%TD*%
%TA.AperFunction,Conductor*%
%ADD37C,1.000000*%
%TD*%
%TA.AperFunction,Conductor*%
%ADD38C,0.200000*%
%TD*%
%TA.AperFunction,Conductor*%
%ADD39C,0.600000*%
%TD*%
%TA.AperFunction,Conductor*%
%ADD40C,0.400000*%
%TD*%
G04 APERTURE END LIST*
D10*
%TO.P,R16,1*%
%TO.N,Net-(J4-CC1)*%
X143550000Y-120900000D03*
%TO.P,R16,2*%
%TO.N,DPad_COM*%
X146650000Y-120900000D03*
%TD*%
D11*
%TO.P,D9,1,K*%
%TO.N,+5V*%
X150300000Y-114400000D03*
%TO.P,D9,2,A*%
%TO.N,VBUS*%
X150300000Y-117700000D03*
%TD*%
D12*
%TO.P,D8,1,A1*%
%TO.N,VBUS*%
X148900000Y-109800000D03*
%TO.P,D8,2,A2*%
%TO.N,DPad_COM*%
X148900000Y-112300000D03*
%TD*%
D13*
%TO.P,R19,1*%
%TO.N,Wham_3V3*%
X133500000Y-106150000D03*
%TO.P,R19,2*%
%TO.N,ESP_EN*%
X133500000Y-103050000D03*
%TD*%
D14*
%TO.P,C10,2*%
%TO.N,DPad_COM*%
X146467500Y-115600000D03*
%TO.P,C10,1*%
%TO.N,+5V*%
X145332500Y-115600000D03*
%TD*%
%TO.P,C11,2*%
%TO.N,DPad_COM*%
X134700000Y-91800000D03*
%TO.P,C11,1*%
%TO.N,GPIO0*%
X133565000Y-91800000D03*
%TD*%
%TO.P,C12,2*%
%TO.N,DPad_COM*%
X134600000Y-101500000D03*
%TO.P,C12,1*%
%TO.N,ESP_EN*%
X133465000Y-101500000D03*
%TD*%
%TO.P,C14,2*%
%TO.N,DPad_COM*%
X146467500Y-112300000D03*
%TO.P,C14,1*%
%TO.N,Wham_3V3*%
X145332500Y-112300000D03*
%TD*%
D15*
%TO.P,D10,2,A*%
%TO.N,Net-(D10-A)*%
X145960000Y-105000000D03*
D16*
%TO.P,D10,1,K*%
%TO.N,DPad_COM*%
X148500000Y-105000000D03*
%TD*%
D17*
%TO.P,J1,6,Pin_6*%
%TO.N,Fret_G*%
X133460000Y-56500000D03*
%TO.P,J1,5,Pin_5*%
%TO.N,Fret_R*%
X136000000Y-56500000D03*
%TO.P,J1,4,Pin_4*%
%TO.N,Fret_Y*%
X138540000Y-56500000D03*
%TO.P,J1,3,Pin_3*%
%TO.N,Fret_B*%
X141080000Y-56500000D03*
%TO.P,J1,2,Pin_2*%
%TO.N,Fret_O*%
X143620000Y-56500000D03*
D18*
%TO.P,J1,1,Pin_1*%
%TO.N,DPad_COM*%
X146160000Y-56500000D03*
%TD*%
D17*
%TO.P,J5,2,Pin_2*%
%TO.N,UART_TX*%
X152000000Y-104750000D03*
D18*
%TO.P,J5,1,Pin_1*%
%TO.N,UART_RX*%
X152000000Y-107290000D03*
%TD*%
D13*
%TO.P,R14,2*%
%TO.N,Fret_G*%
X132880000Y-61450000D03*
%TO.P,R14,1*%
%TO.N,Wham_3V3*%
X132880000Y-64550000D03*
%TD*%
%TO.P,R13,2*%
%TO.N,Fret_R*%
X136190000Y-61450000D03*
%TO.P,R13,1*%
%TO.N,Wham_3V3*%
X136190000Y-64550000D03*
%TD*%
%TO.P,R12,2*%
%TO.N,Fret_Y*%
X139500000Y-61450000D03*
%TO.P,R12,1*%
%TO.N,Wham_3V3*%
X139500000Y-64550000D03*
%TD*%
%TO.P,R11,2*%
%TO.N,Fret_B*%
X142810000Y-61450000D03*
%TO.P,R11,1*%
%TO.N,Wham_3V3*%
X142810000Y-64550000D03*
%TD*%
%TO.P,R10,2*%
%TO.N,Fret_O*%
X146120000Y-61450000D03*
%TO.P,R10,1*%
%TO.N,Wham_3V3*%
X146120000Y-64550000D03*
%TD*%
D19*
%TO.P,R6,2*%
%TO.N,DPad_RIGHT*%
X137000000Y-129600000D03*
%TO.P,R6,1*%
%TO.N,Wham_3V3*%
X137000000Y-126500000D03*
%TD*%
%TO.P,R8,2*%
%TO.N,DPad_DOWN*%
X128666667Y-129600000D03*
%TO.P,R8,1*%
%TO.N,Wham_3V3*%
X128666667Y-126500000D03*
%TD*%
%TO.P,R7,2*%
%TO.N,DPad_LEFT*%
X132833333Y-129600000D03*
%TO.P,R7,1*%
%TO.N,Wham_3V3*%
X132833333Y-126500000D03*
%TD*%
%TO.P,R9,2*%
%TO.N,DPad_UP*%
X124500000Y-129600000D03*
%TO.P,R9,1*%
%TO.N,Wham_3V3*%
X124500000Y-126500000D03*
%TD*%
%TO.P,R1,2*%
%TO.N,Strum_DOWN*%
X149000000Y-128100000D03*
%TO.P,R1,1*%
%TO.N,Wham_3V3*%
X149000000Y-125000000D03*
%TD*%
D13*
%TO.P,R18,2*%
%TO.N,GPIO0*%
X133500000Y-93300000D03*
%TO.P,R18,1*%
%TO.N,Wham_3V3*%
X133500000Y-96400000D03*
%TD*%
D20*
%TO.P,C8,1*%
%TO.N,+5V*%
X134492447Y-114750000D03*
%TO.P,C8,2*%
%TO.N,DPad_COM*%
X132417447Y-114750000D03*
%TD*%
D21*
%TO.P,D6,2,A2*%
%TO.N,DPad_COM*%
X138641529Y-117000000D03*
%TO.P,D6,1,A1*%
%TO.N,USB_DP*%
X138641529Y-119500000D03*
%TD*%
D20*
%TO.P,C13,1*%
%TO.N,Wham_3V3*%
X134500000Y-112461462D03*
%TO.P,C13,2*%
%TO.N,DPad_COM*%
X132425000Y-112461462D03*
%TD*%
%TO.P,C9,1*%
%TO.N,+5V*%
X134500000Y-110172924D03*
%TO.P,C9,2*%
%TO.N,DPad_COM*%
X132425000Y-110172924D03*
%TD*%
D21*
%TO.P,D7,2,A2*%
%TO.N,DPad_COM*%
X141591529Y-117000000D03*
%TO.P,D7,1,A1*%
%TO.N,USB_DN*%
X141591529Y-119500000D03*
%TD*%
D22*
%TO.P,SW4,3*%
%TO.N,ESP_EN*%
X136750000Y-106050000D03*
D23*
%TO.P,SW4,1*%
%TO.N,DPad_COM*%
X136750000Y-101550000D03*
D22*
%TO.P,SW4,4*%
%TO.N,ESP_EN*%
X143250000Y-106050000D03*
%TO.P,SW4,2*%
%TO.N,DPad_COM*%
X143250000Y-101550000D03*
%TD*%
%TO.P,SW3,3*%
%TO.N,GPIO0*%
X136750000Y-96250000D03*
D23*
%TO.P,SW3,1*%
%TO.N,DPad_COM*%
X136750000Y-91750000D03*
D22*
%TO.P,SW3,4*%
%TO.N,GPIO0*%
X143250000Y-96250000D03*
%TO.P,SW3,2*%
%TO.N,DPad_COM*%
X143250000Y-91750000D03*
%TD*%
D24*
%TO.P,U2,1,GND*%
%TO.N,DPad_COM*%
X136850000Y-110200000D03*
%TO.P,U2,2,VO*%
%TO.N,Wham_3V3*%
X136850000Y-112500000D03*
D25*
X143150000Y-112500000D03*
D24*
%TO.P,U2,3,VI*%
%TO.N,+5V*%
X136850000Y-114800000D03*
%TD*%
D19*
%TO.P,R2,1*%
%TO.N,Wham_3V3*%
X145500000Y-125000000D03*
%TO.P,R2,2*%
%TO.N,Strum_UP*%
X145500000Y-128100000D03*
%TD*%
D13*
%TO.P,R3,1*%
%TO.N,Wham_3V3*%
X132848888Y-123104096D03*
%TO.P,R3,2*%
%TO.N,Misc_Start*%
X132848888Y-120004096D03*
%TD*%
%TO.P,R4,1*%
%TO.N,Wham_3V3*%
X128674444Y-123050000D03*
%TO.P,R4,2*%
%TO.N,Misc_Back*%
X128674444Y-119950000D03*
%TD*%
%TO.P,R5,1*%
%TO.N,Wham_3V3*%
X124500000Y-123000000D03*
%TO.P,R5,2*%
%TO.N,Misc_Guide*%
X124500000Y-119900000D03*
%TD*%
D26*
%TO.P,R15,1*%
%TO.N,Wham_3V3*%
X146500000Y-89000000D03*
%TO.P,R15,2*%
%TO.N,Net-(D10-A)*%
X146500000Y-99160000D03*
%TD*%
D27*
%TO.P,U1,41,GND*%
%TO.N,DPad_COM*%
X138690000Y-77150000D03*
X140090000Y-77150000D03*
X137990000Y-76450000D03*
X139390000Y-76450000D03*
X140790000Y-76450000D03*
X138690000Y-75750000D03*
D28*
X139390000Y-75750000D03*
D27*
X140090000Y-75750000D03*
X137990000Y-75050000D03*
X139390000Y-75050000D03*
X140790000Y-75050000D03*
X138690000Y-74350000D03*
X140090000Y-74350000D03*
D29*
%TO.P,U1,40,GND*%
X147110000Y-86000000D03*
%TO.P,U1,39,IO1*%
%TO.N,Wham_Signal*%
X145840000Y-86000000D03*
%TO.P,U1,38,IO2*%
%TO.N,unconnected-(U1-IO2-Pad38)*%
X144570000Y-86000000D03*
%TO.P,U1,37,TXD0*%
%TO.N,UART_TX*%
X143300000Y-86000000D03*
%TO.P,U1,36,RXD0*%
%TO.N,UART_RX*%
X142030000Y-86000000D03*
%TO.P,U1,35,IO42*%
%TO.N,unconnected-(U1-IO42-Pad35)*%
X140760000Y-86000000D03*
%TO.P,U1,34,IO41*%
%TO.N,unconnected-(U1-IO41-Pad34)*%
X139490000Y-86000000D03*
%TO.P,U1,33,IO40*%
%TO.N,unconnected-(U1-IO40-Pad33)*%
X138220000Y-86000000D03*
%TO.P,U1,32,IO39*%
%TO.N,unconnected-(U1-IO39-Pad32)*%
X136950000Y-86000000D03*
%TO.P,U1,31,IO38*%
%TO.N,Fret_R*%
X135680000Y-86000000D03*
%TO.P,U1,30,IO37*%
%TO.N,unconnected-(U1-IO37-Pad30)*%
X134410000Y-86000000D03*
%TO.P,U1,29,IO36*%
%TO.N,unconnected-(U1-IO36-Pad29)*%
X133140000Y-86000000D03*
%TO.P,U1,28,IO35*%
%TO.N,unconnected-(U1-IO35-Pad28)*%
X131870000Y-86000000D03*
%TO.P,U1,27,IO0*%
%TO.N,GPIO0*%
X130600000Y-86000000D03*
D30*
%TO.P,U1,26,IO45*%
%TO.N,unconnected-(U1-IO45-Pad26)*%
X129350000Y-84235000D03*
%TO.P,U1,25,IO48*%
%TO.N,unconnected-(U1-IO48-Pad25)*%
X129350000Y-82965000D03*
%TO.P,U1,24,IO47*%
%TO.N,Fret_G*%
X129350000Y-81695000D03*
%TO.P,U1,23,IO21*%
%TO.N,Fret_Y*%
X129350000Y-80425000D03*
%TO.P,U1,22,IO14*%
%TO.N,unconnected-(U1-IO14-Pad22)*%
X129350000Y-79155000D03*
%TO.P,U1,21,IO13*%
%TO.N,unconnected-(U1-IO13-Pad21)*%
X129350000Y-77885000D03*
%TO.P,U1,20,IO12*%
%TO.N,Strum_DOWN*%
X129350000Y-76615000D03*
%TO.P,U1,19,IO11*%
%TO.N,Strum_UP*%
X129350000Y-75345000D03*
%TO.P,U1,18,IO10*%
%TO.N,Misc_Start*%
X129350000Y-74075000D03*
%TO.P,U1,17,IO9*%
%TO.N,Misc_Back*%
X129350000Y-72805000D03*
%TO.P,U1,16,IO46*%
%TO.N,unconnected-(U1-IO46-Pad16)*%
X129350000Y-71535000D03*
%TO.P,U1,15,IO3*%
%TO.N,unconnected-(U1-IO3-Pad15)*%
X129350000Y-70265000D03*
D29*
%TO.P,U1,14,USB_D+*%
%TO.N,USB_DP*%
X130600000Y-68500000D03*
%TO.P,U1,13,USB_D-*%
%TO.N,USB_DN*%
X131870000Y-68500000D03*
%TO.P,U1,12,IO8*%
%TO.N,Misc_Guide*%
X133140000Y-68500000D03*
%TO.P,U1,11,IO18*%
%TO.N,Fret_B*%
X134410000Y-68500000D03*
%TO.P,U1,10,IO17*%
%TO.N,Fret_O*%
X135680000Y-68500000D03*
%TO.P,U1,9,IO16*%
%TO.N,unconnected-(U1-IO16-Pad9)*%
X136950000Y-68500000D03*
%TO.P,U1,8,IO15*%
%TO.N,unconnected-(U1-IO15-Pad8)*%
X138220000Y-68500000D03*
%TO.P,U1,7,IO7*%
%TO.N,DPad_RIGHT*%
X139490000Y-68500000D03*
%TO.P,U1,6,IO6*%
%TO.N,DPad_LEFT*%
X140760000Y-68500000D03*
%TO.P,U1,5,IO5*%
%TO.N,DPad_DOWN*%
X142030000Y-68500000D03*
%TO.P,U1,4,IO4*%
%TO.N,DPad_UP*%
X143300000Y-68500000D03*
%TO.P,U1,3,EN*%
%TO.N,ESP_EN*%
X144570000Y-68500000D03*
%TO.P,U1,2,3V3*%
%TO.N,Wham_3V3*%
X145840000Y-68500000D03*
%TO.P,U1,1,GND*%
%TO.N,DPad_COM*%
X147110000Y-68500000D03*
%TD*%
D31*
%TO.P,J4,B8,SBU2*%
%TO.N,unconnected-(J4-SBU2-PadB8)*%
X138860000Y-136407500D03*
%TO.P,J4,A5,CC1*%
%TO.N,Net-(J4-CC1)*%
X139360000Y-136407500D03*
%TO.P,J4,B7,DN2*%
%TO.N,USB_DN*%
X139860000Y-136407500D03*
%TO.P,J4,B5,CC2*%
%TO.N,Net-(J4-CC2)*%
X142360000Y-136407500D03*
%TO.P,J4,A8,SBU1*%
%TO.N,unconnected-(J4-SBU1-PadA8)*%
X141860000Y-136407500D03*
%TO.P,J4,B6,DP2*%
%TO.N,USB_DP*%
X141360000Y-136407500D03*
%TO.P,J4,A6,DP1*%
X140360000Y-136407500D03*
%TO.P,J4,A7,DN1*%
%TO.N,USB_DN*%
X140860000Y-136407500D03*
D32*
%TO.P,J4,B4_A9,VBUS*%
%TO.N,VBUS*%
X143010000Y-136407500D03*
%TO.P,J4,A4_B9,VBUS*%
X138210000Y-136407500D03*
%TO.P,J4,B1_A12,GND*%
%TO.N,DPad_COM*%
X143810000Y-136407500D03*
%TO.P,J4,A1_B12,GND*%
X137410000Y-136407500D03*
D33*
%TO.P,J4,SH2,SHELL_GND*%
X144930000Y-136982500D03*
%TO.P,J4,SH1,SHELL_GND*%
X136290000Y-136982500D03*
D34*
%TO.P,J4,SH4,SHELL_GND*%
X144930000Y-141162500D03*
%TO.P,J4,SH3,SHELL_GND*%
X136290000Y-141162500D03*
%TD*%
D17*
%TO.P,J3,6,Pin_6*%
%TO.N,DPad_COM*%
X147920000Y-138040000D03*
%TO.P,J3,5,Pin_5*%
%TO.N,Wham_Signal*%
X150460000Y-138040000D03*
%TO.P,J3,4,Pin_4*%
%TO.N,Wham_3V3*%
X153000000Y-138040000D03*
%TO.P,J3,3,Pin_3*%
%TO.N,Strum_UP*%
X147920000Y-135500000D03*
%TO.P,J3,2,Pin_2*%
%TO.N,Strum_DOWN*%
X150460000Y-135500000D03*
D18*
%TO.P,J3,1,Pin_1*%
%TO.N,DPad_COM*%
X153000000Y-135500000D03*
%TD*%
%TO.P,J2,1,Pin_1*%
%TO.N,DPad_COM*%
X133580000Y-135500000D03*
D17*
%TO.P,J2,2,Pin_2*%
%TO.N,Misc_Start*%
X131040000Y-135500000D03*
%TO.P,J2,3,Pin_3*%
%TO.N,Misc_Back*%
X128500000Y-135500000D03*
%TO.P,J2,4,Pin_4*%
%TO.N,Misc_Guide*%
X125960000Y-135500000D03*
%TO.P,J2,5,Pin_5*%
%TO.N,unconnected-(J2-Pin_5-Pad5)*%
X123420000Y-135500000D03*
%TO.P,J2,6,Pin_6*%
%TO.N,DPad_RIGHT*%
X133580000Y-138040000D03*
%TO.P,J2,7,Pin_7*%
%TO.N,DPad_LEFT*%
X131040000Y-138040000D03*
%TO.P,J2,8,Pin_8*%
%TO.N,DPad_DOWN*%
X128500000Y-138040000D03*
%TO.P,J2,9,Pin_9*%
%TO.N,DPad_UP*%
X125960000Y-138040000D03*
%TO.P,J2,10,Pin_10*%
%TO.N,DPad_COM*%
X123420000Y-138040000D03*
%TD*%
D35*
%TO.P,R17,2*%
%TO.N,DPad_COM*%
X148900000Y-120900000D03*
%TO.P,R17,1*%
%TO.N,Net-(J4-CC2)*%
X152000000Y-120900000D03*
%TD*%
D36*
%TO.N,Wham_3V3*%
X145000000Y-72200000D03*
%TO.N,+5V*%
X148200000Y-114400000D03*
X144200000Y-115400000D03*
%TO.N,VBUS*%
X148000000Y-118300000D03*
X143000000Y-134500000D03*
X138200000Y-134500000D03*
%TO.N,Wham_3V3*%
X147300000Y-125000000D03*
X139084999Y-124700000D03*
X143900000Y-128400000D03*
X137000000Y-124700000D03*
X133000000Y-124700000D03*
X128500000Y-124700000D03*
X124500000Y-124700000D03*
X141300000Y-114200000D03*
%TO.N,DPad_COM*%
X150800000Y-112300000D03*
%TO.N,ESP_EN*%
X133500000Y-99700000D03*
%TO.N,USB_DN*%
X136300521Y-79949479D03*
%TO.N,USB_DP*%
X135699479Y-80550521D03*
%TO.N,USB_DN*%
X140535000Y-119500000D03*
%TO.N,USB_DP*%
X139685000Y-119500000D03*
%TO.N,UART_TX*%
X143500000Y-87500000D03*
%TO.N,UART_RX*%
X142000000Y-87500000D03*
%TO.N,Fret_O*%
X136000000Y-67300000D03*
%TO.N,Strum_DOWN*%
X130600002Y-78000000D03*
%TO.N,Strum_UP*%
X131200002Y-79000000D03*
X139218235Y-122566764D03*
%TO.N,Strum_DOWN*%
X138500000Y-121000000D03*
%TO.N,Misc_Guide*%
X124500000Y-118500000D03*
%TO.N,Misc_Back*%
X127500000Y-74000000D03*
X127600000Y-121500000D03*
%TO.N,Misc_Guide*%
X132500000Y-70000000D03*
%TO.N,Misc_Start*%
X125100000Y-112000000D03*
X127000000Y-76500000D03*
%TO.N,ESP_EN*%
X133708365Y-76791636D03*
%TO.N,Wham_Signal*%
X146000000Y-87000000D03*
%TO.N,Fret_G*%
X124300000Y-75000000D03*
%TO.N,Fret_Y*%
X125000000Y-74000000D03*
%TO.N,Fret_B*%
X142500000Y-63400000D03*
X136000000Y-69750002D03*
%TO.N,Fret_R*%
X135000000Y-84000000D03*
%TO.N,USB_DP*%
X139685000Y-128018289D03*
X140535000Y-130000000D03*
%TO.N,USB_DN*%
X139685000Y-130000000D03*
%TO.N,Net-(J4-CC2)*%
X151500000Y-122500000D03*
X143450000Y-132050000D03*
%TO.N,USB_DP*%
X141535000Y-138000000D03*
%TO.N,USB_DN*%
X140675000Y-139825000D03*
%TD*%
D37*
%TO.N,DPad_COM*%
X140090000Y-77150000D02*
X147100000Y-84160000D01*
X147100000Y-84160000D02*
X147100000Y-85990000D01*
X147110000Y-68500000D02*
X147100000Y-68490000D01*
X147100000Y-68490000D02*
X147100000Y-66400000D01*
X147100000Y-66400000D02*
X147695000Y-65805000D01*
X147695000Y-65805000D02*
X147695000Y-58035000D01*
X147695000Y-58035000D02*
X146160000Y-56500000D01*
%TO.N,Wham_3V3*%
X145840000Y-68500000D02*
X145840000Y-64830000D01*
X145840000Y-64830000D02*
X146120000Y-64550000D01*
X145000000Y-72200000D02*
X145840000Y-71360000D01*
X145840000Y-71360000D02*
X145840000Y-68500000D01*
%TO.N,DPad_COM*%
X147110000Y-68500000D02*
X147110000Y-72690000D01*
X147110000Y-72690000D02*
X144050000Y-75750000D01*
X144050000Y-75750000D02*
X140090000Y-75750000D01*
D38*
%TO.N,Net-(J4-CC1)*%
X143550000Y-120900000D02*
X143050000Y-120400000D01*
X143050000Y-120400000D02*
X138251471Y-120400000D01*
X138251471Y-120400000D02*
X137900000Y-120751471D01*
X137900000Y-120751471D02*
X137900000Y-124900000D01*
X137900000Y-124900000D02*
X139000000Y-126000000D01*
X139000000Y-126000000D02*
X139000000Y-135222500D01*
X139000000Y-135222500D02*
X139360000Y-135582500D01*
X139360000Y-135582500D02*
X139360000Y-136407500D01*
D37*
%TO.N,Wham_3V3*%
X142810000Y-64550000D02*
X146120000Y-64550000D01*
X139500000Y-64550000D02*
X142810000Y-64550000D01*
X136190000Y-64550000D02*
X139500000Y-64550000D01*
X132880000Y-64550000D02*
X136190000Y-64550000D01*
X133500000Y-96400000D02*
X134799000Y-97699000D01*
X134799000Y-97699000D02*
X143850196Y-97699000D01*
X143850196Y-97699000D02*
X146500000Y-95049196D01*
X146500000Y-95049196D02*
X146500000Y-89000000D01*
X133500000Y-106150000D02*
X131925000Y-104575000D01*
X131925000Y-104575000D02*
X131925000Y-97975000D01*
X131925000Y-97975000D02*
X133500000Y-96400000D01*
X143150000Y-112500000D02*
X139400000Y-108750000D01*
X134550000Y-106150000D02*
X133500000Y-106150000D01*
X139400000Y-108750000D02*
X137150000Y-108750000D01*
X137150000Y-108750000D02*
X134550000Y-106150000D01*
X143150000Y-112500000D02*
X145067500Y-112500000D01*
X145067500Y-112500000D02*
X145267500Y-112300000D01*
X136850000Y-112500000D02*
X143150000Y-112500000D01*
X134500000Y-112461462D02*
X136811462Y-112461462D01*
X136811462Y-112461462D02*
X136850000Y-112500000D01*
%TO.N,+5V*%
X150300000Y-114400000D02*
X148200000Y-114400000D01*
X137450000Y-115400000D02*
X144200000Y-115400000D01*
X144200000Y-115400000D02*
X145132500Y-115400000D01*
X145132500Y-115400000D02*
X145267500Y-115535000D01*
X145267500Y-115535000D02*
X145267500Y-115548892D01*
X136850000Y-114800000D02*
X137450000Y-115400000D01*
X134492447Y-114750000D02*
X136800000Y-114750000D01*
X136800000Y-114750000D02*
X136850000Y-114800000D01*
%TO.N,DPad_COM*%
X144930000Y-141162500D02*
X144930000Y-136982500D01*
X136290000Y-141162500D02*
X144930000Y-141162500D01*
X136290000Y-136982500D02*
X136290000Y-141162500D01*
%TO.N,Wham_3V3*%
X153000000Y-138040000D02*
X151450000Y-139590000D01*
X151450000Y-139590000D02*
X147277968Y-139590000D01*
X147277968Y-139590000D02*
X146144315Y-138456347D01*
X146144315Y-138456347D02*
X146144315Y-134855685D01*
X146144315Y-134855685D02*
X144474570Y-133185940D01*
X144474570Y-133185940D02*
X144474570Y-129450000D01*
X144474570Y-129450000D02*
X143900000Y-128875430D01*
X143900000Y-128875430D02*
X143900000Y-128400000D01*
X143900000Y-128400000D02*
X143900000Y-128379900D01*
X143900000Y-128379900D02*
X140220100Y-124700000D01*
X140220100Y-124700000D02*
X139084999Y-124700000D01*
D38*
%TO.N,Net-(J4-CC2)*%
X143450000Y-132050000D02*
X142360000Y-133140000D01*
X142360000Y-133140000D02*
X142360000Y-136407500D01*
D37*
%TO.N,VBUS*%
X148000000Y-118300000D02*
X149700000Y-118300000D01*
X149700000Y-118300000D02*
X150300000Y-117700000D01*
D39*
X138210000Y-136407500D02*
X138210000Y-134510000D01*
X138210000Y-134510000D02*
X138200000Y-134500000D01*
X143000000Y-134500000D02*
X143010000Y-134510000D01*
X143010000Y-134510000D02*
X143010000Y-136407500D01*
D37*
%TO.N,Wham_3V3*%
X147300000Y-125000000D02*
X149000000Y-125000000D01*
X147300000Y-125000000D02*
X145500000Y-125000000D01*
X133000000Y-124700000D02*
X133000000Y-123255208D01*
X133000000Y-123255208D02*
X132848888Y-123104096D01*
X137000000Y-124700000D02*
X137000000Y-126500000D01*
X133000000Y-124700000D02*
X133000000Y-126333333D01*
X133000000Y-126333333D02*
X132833333Y-126500000D01*
X124500000Y-124700000D02*
X124500000Y-126500000D01*
X128500000Y-124700000D02*
X128500000Y-123224444D01*
X128500000Y-123224444D02*
X128674444Y-123050000D01*
X124500000Y-123000000D02*
X124500000Y-124700000D01*
X128500000Y-126333333D02*
X128666667Y-126500000D01*
X128500000Y-124700000D02*
X128500000Y-126333333D01*
X143150000Y-112500000D02*
X143000000Y-112500000D01*
X143000000Y-112500000D02*
X141300000Y-114200000D01*
%TO.N,DPad_COM*%
X148500000Y-105000000D02*
X146467500Y-107032500D01*
X146467500Y-107032500D02*
X146467500Y-112300000D01*
%TO.N,VBUS*%
X148900000Y-109800000D02*
X149997056Y-109800000D01*
X149997056Y-109800000D02*
X152000000Y-111802944D01*
X152000000Y-111802944D02*
X152000000Y-116000000D01*
X152000000Y-116000000D02*
X150300000Y-117700000D01*
%TO.N,DPad_COM*%
X146650000Y-120900000D02*
X146650000Y-118136552D01*
X146650000Y-118136552D02*
X145513448Y-117000000D01*
X150800000Y-112300000D02*
X148900000Y-112300000D01*
X146467500Y-112300000D02*
X148900000Y-112300000D01*
X141591529Y-117000000D02*
X145513448Y-117000000D01*
X145513448Y-117000000D02*
X146467500Y-116045948D01*
X146467500Y-116045948D02*
X146467500Y-115600000D01*
D40*
%TO.N,Wham_3V3*%
X143350000Y-112300000D02*
X143150000Y-112500000D01*
D37*
%TO.N,DPad_COM*%
X146467500Y-112300000D02*
X146467500Y-115600000D01*
D38*
%TO.N,GPIO0*%
X133565000Y-91800000D02*
X130600000Y-88835000D01*
X130600000Y-88835000D02*
X130600000Y-86000000D01*
X133500000Y-93300000D02*
X133500000Y-91865000D01*
X133500000Y-91865000D02*
X133565000Y-91800000D01*
X136750000Y-96250000D02*
X136450000Y-96250000D01*
X136450000Y-96250000D02*
X133500000Y-93300000D01*
D37*
%TO.N,DPad_COM*%
X146650000Y-120900000D02*
X148900000Y-120900000D01*
X146500000Y-120750000D02*
X146650000Y-120900000D01*
X138641529Y-117000000D02*
X141591529Y-117000000D01*
X132417447Y-114750000D02*
X132417447Y-115475000D01*
X132417447Y-115475000D02*
X133942447Y-117000000D01*
X133942447Y-117000000D02*
X138641529Y-117000000D01*
X132425000Y-112461462D02*
X132425000Y-114742447D01*
X132425000Y-114742447D02*
X132417447Y-114750000D01*
X132425000Y-110172924D02*
X132425000Y-112461462D01*
X132425000Y-110172924D02*
X132425000Y-109447924D01*
X132425000Y-109447924D02*
X133125000Y-108747924D01*
X133125000Y-108747924D02*
X135397924Y-108747924D01*
X135397924Y-108747924D02*
X136850000Y-110200000D01*
X143250000Y-101550000D02*
X143250000Y-100288679D01*
X143250000Y-100288679D02*
X145878679Y-97660000D01*
X147121321Y-97660000D02*
X148100000Y-98638679D01*
X145878679Y-97660000D02*
X147121321Y-97660000D01*
X148100000Y-98638679D02*
X148100000Y-104600000D01*
X148100000Y-104600000D02*
X148500000Y-105000000D01*
X136750000Y-101550000D02*
X143250000Y-101550000D01*
X134600000Y-101500000D02*
X136700000Y-101500000D01*
X136700000Y-101500000D02*
X136750000Y-101550000D01*
D38*
X143250000Y-91750000D02*
X143250000Y-90690755D01*
X143250000Y-90690755D02*
X147110000Y-86830755D01*
X147110000Y-86830755D02*
X147110000Y-86000000D01*
D37*
X136750000Y-91750000D02*
X143250000Y-91750000D01*
X134700000Y-91800000D02*
X136700000Y-91800000D01*
X136700000Y-91800000D02*
X136750000Y-91750000D01*
D38*
%TO.N,ESP_EN*%
X133465000Y-99735000D02*
X133500000Y-99700000D01*
X133465000Y-101500000D02*
X133465000Y-99735000D01*
X133500000Y-103050000D02*
X133750000Y-103050000D01*
X133750000Y-103050000D02*
X136750000Y-106050000D01*
X133465000Y-101500000D02*
X133465000Y-103015000D01*
X133465000Y-103015000D02*
X133500000Y-103050000D01*
%TO.N,USB_DN*%
X140685000Y-138000000D02*
X140884999Y-137800001D01*
X140675000Y-139825000D02*
X140685000Y-139815000D01*
X140685000Y-139815000D02*
X140685000Y-138000000D01*
X140884999Y-137800001D02*
X140884999Y-136432499D01*
X140884999Y-136432499D02*
X140860000Y-136407500D01*
%TO.N,USB_DP*%
X140535000Y-130000000D02*
X140335000Y-130200000D01*
X140360000Y-135544999D02*
X140360000Y-136407500D01*
X140335000Y-135519999D02*
X140360000Y-135544999D01*
X140335000Y-130200000D02*
X140335000Y-135519999D01*
%TO.N,Strum_DOWN*%
X149000000Y-128100000D02*
X146850000Y-125950000D01*
X146850000Y-125950000D02*
X143450000Y-125950000D01*
%TO.N,Strum_UP*%
X144751471Y-128100000D02*
X139218235Y-122566764D01*
X145500000Y-128100000D02*
X144751471Y-128100000D01*
%TO.N,Strum_DOWN*%
X143450000Y-125950000D02*
X138500000Y-121000000D01*
%TO.N,USB_DN*%
X131460000Y-70035001D02*
X131870000Y-69625001D01*
X131870000Y-69625001D02*
X131870000Y-68500000D01*
X131460000Y-75391801D02*
X131460000Y-70035001D01*
X136017678Y-79949479D02*
X131460000Y-75391801D01*
%TO.N,USB_DP*%
X130600000Y-69625001D02*
X130600000Y-68500000D01*
%TO.N,USB_DN*%
X136300521Y-79949479D02*
X136017678Y-79949479D01*
%TO.N,USB_DP*%
X131010000Y-70035001D02*
X130600000Y-69625001D01*
X135699479Y-80267678D02*
X131010000Y-75578199D01*
X131010000Y-75578199D02*
X131010000Y-70035001D01*
X135699479Y-80550521D02*
X135699479Y-80267678D01*
X139685000Y-119500000D02*
X138641529Y-119500000D01*
%TO.N,USB_DN*%
X140535000Y-119500000D02*
X141591529Y-119500000D01*
%TO.N,Fret_G*%
X132880000Y-57080000D02*
X133460000Y-56500000D01*
X132880000Y-61450000D02*
X132880000Y-57080000D01*
%TO.N,Fret_R*%
X136190000Y-56690000D02*
X136000000Y-56500000D01*
X136190000Y-61450000D02*
X136190000Y-56690000D01*
%TO.N,Fret_Y*%
X139500000Y-57460000D02*
X138540000Y-56500000D01*
X139500000Y-61450000D02*
X139500000Y-57460000D01*
%TO.N,Fret_B*%
X142810000Y-58230000D02*
X141080000Y-56500000D01*
X142810000Y-61450000D02*
X142810000Y-58230000D01*
%TO.N,Fret_O*%
X146120000Y-61450000D02*
X146120000Y-59000000D01*
D40*
%TO.N,DPad_COM*%
X148500000Y-105000000D02*
X148400000Y-104900000D01*
%TO.N,Net-(D10-A)*%
X146500000Y-104460000D02*
X145960000Y-105000000D01*
X146500000Y-99160000D02*
X146500000Y-104460000D01*
D38*
%TO.N,UART_TX*%
X143500000Y-87500000D02*
X143500000Y-86200000D01*
X143500000Y-86200000D02*
X143300000Y-86000000D01*
%TO.N,UART_RX*%
X142000000Y-86030000D02*
X142030000Y-86000000D01*
X142000000Y-87500000D02*
X142000000Y-86030000D01*
%TO.N,ESP_EN*%
X143250000Y-106050000D02*
X136750000Y-106050000D01*
%TO.N,GPIO0*%
X136750000Y-96250000D02*
X143250000Y-96250000D01*
%TO.N,Misc_Back*%
X129849444Y-121125000D02*
X128674444Y-119950000D01*
X129849444Y-134150556D02*
X129849444Y-121125000D01*
D40*
%TO.N,Wham_3V3*%
X146120000Y-68220000D02*
X145840000Y-68500000D01*
%TO.N,DPad_COM*%
X147395000Y-68215000D02*
X147110000Y-68500000D01*
D38*
%TO.N,Fret_O*%
X136000000Y-68820000D02*
X135680000Y-68500000D01*
%TO.N,DPad_DOWN*%
X127000000Y-119500000D02*
X122900000Y-115400000D01*
X140380000Y-65900000D02*
X142030000Y-67550000D01*
X128666667Y-129600000D02*
X127000000Y-127933333D01*
X127000000Y-127933333D02*
X127000000Y-119500000D01*
X122900000Y-115400000D02*
X122900000Y-71834315D01*
X122900000Y-71834315D02*
X128834315Y-65900000D01*
X128834315Y-65900000D02*
X140380000Y-65900000D01*
X142030000Y-67550000D02*
X142030000Y-68500000D01*
%TO.N,Fret_O*%
X136000000Y-68180000D02*
X135680000Y-68500000D01*
X136000000Y-67300000D02*
X136000000Y-68180000D01*
X146120000Y-59000000D02*
X143620000Y-56500000D01*
%TO.N,Strum_DOWN*%
X130600002Y-77335002D02*
X129880000Y-76615000D01*
X130600002Y-78000000D02*
X130600002Y-77335002D01*
X129880000Y-76615000D02*
X129350000Y-76615000D01*
%TO.N,Strum_UP*%
X129880000Y-75345000D02*
X129350000Y-75345000D01*
X131200002Y-79000000D02*
X131200002Y-76665002D01*
X131200002Y-76665002D02*
X129880000Y-75345000D01*
%TO.N,DPad_UP*%
X143300000Y-67970000D02*
X143300000Y-68500000D01*
X140830000Y-65500000D02*
X143300000Y-67970000D01*
X128668630Y-65500000D02*
X140830000Y-65500000D01*
X122500000Y-71668630D02*
X128668630Y-65500000D01*
X122500000Y-127500000D02*
X122500000Y-71668630D01*
X124500000Y-129500000D02*
X122500000Y-127500000D01*
X124500000Y-129600000D02*
X124500000Y-129500000D01*
%TO.N,DPad_RIGHT*%
X139490000Y-67550000D02*
X139490000Y-68500000D01*
X138640000Y-66700000D02*
X139490000Y-67550000D01*
X129165687Y-66700000D02*
X138640000Y-66700000D01*
X123700000Y-72165687D02*
X129165687Y-66700000D01*
X123700000Y-108950000D02*
X123700000Y-72165687D01*
X134500000Y-119750000D02*
X123700000Y-108950000D01*
X134500000Y-127100000D02*
X134500000Y-119750000D01*
X137000000Y-129600000D02*
X134500000Y-127100000D01*
%TO.N,DPad_LEFT*%
X140760000Y-67970000D02*
X140760000Y-68500000D01*
X139090000Y-66300000D02*
X140760000Y-67970000D01*
X129000001Y-66300000D02*
X139090000Y-66300000D01*
X123300000Y-72000001D02*
X129000001Y-66300000D01*
X123300000Y-111800000D02*
X123300000Y-72000001D01*
X130500000Y-127266667D02*
X130500000Y-119000000D01*
X130500000Y-119000000D02*
X123300000Y-111800000D01*
X132833333Y-129600000D02*
X130500000Y-127266667D01*
%TO.N,Wham_Signal*%
X145500000Y-86340000D02*
X145840000Y-86000000D01*
%TO.N,Misc_Guide*%
X124500000Y-119900000D02*
X124500000Y-118500000D01*
X133000000Y-68640000D02*
X133140000Y-68500000D01*
%TO.N,Misc_Back*%
X128695000Y-72805000D02*
X129350000Y-72805000D01*
X127500000Y-74000000D02*
X128695000Y-72805000D01*
X128500000Y-120124444D02*
X128674444Y-119950000D01*
X128500000Y-121024444D02*
X128500000Y-120124444D01*
X128024444Y-121500000D02*
X128500000Y-121024444D01*
X127600000Y-121500000D02*
X128024444Y-121500000D01*
%TO.N,Misc_Guide*%
X133140000Y-69360000D02*
X133140000Y-68500000D01*
X132500000Y-70000000D02*
X133140000Y-69360000D01*
%TO.N,Misc_Start*%
X128400000Y-74075000D02*
X129350000Y-74075000D01*
X127000000Y-75475000D02*
X128400000Y-74075000D01*
X127000000Y-76500000D02*
X127000000Y-75475000D01*
X132848888Y-119748888D02*
X125100000Y-112000000D01*
X132848888Y-120004096D02*
X132848888Y-119748888D01*
%TO.N,ESP_EN*%
X144570000Y-68930000D02*
X144570000Y-68500000D01*
X141500000Y-72000000D02*
X144570000Y-68930000D01*
X138500000Y-72000000D02*
X141500000Y-72000000D01*
X137000000Y-73500001D02*
X138500000Y-72000000D01*
X133708365Y-76791636D02*
X137000000Y-73500001D01*
%TO.N,Wham_Signal*%
X146000000Y-86160000D02*
X145840000Y-86000000D01*
X146000000Y-87000000D02*
X146000000Y-86160000D01*
%TO.N,Fret_G*%
X124300000Y-77175000D02*
X128820000Y-81695000D01*
X124300000Y-75000000D02*
X124300000Y-77175000D01*
X128820000Y-81695000D02*
X129350000Y-81695000D01*
%TO.N,Fret_Y*%
X125000000Y-77025000D02*
X125000000Y-74000000D01*
X128400000Y-80425000D02*
X125000000Y-77025000D01*
X129350000Y-80425000D02*
X128400000Y-80425000D01*
%TO.N,Fret_B*%
X136000000Y-69750002D02*
X135130002Y-69750002D01*
X142810000Y-63090000D02*
X142500000Y-63400000D01*
X134410000Y-69030000D02*
X134410000Y-68500000D01*
X142810000Y-61450000D02*
X142810000Y-63090000D01*
X135130002Y-69750002D02*
X134410000Y-69030000D01*
%TO.N,Fret_R*%
X135680000Y-84680000D02*
X135680000Y-86000000D01*
X135000000Y-84000000D02*
X135680000Y-84680000D01*
D40*
%TO.N,DPad_COM*%
X144930000Y-141430000D02*
X145000000Y-141500000D01*
X144930000Y-141162500D02*
X144930000Y-141430000D01*
D38*
%TO.N,USB_DP*%
X140310001Y-136357501D02*
X140360000Y-136407500D01*
X140535000Y-128868289D02*
X139685000Y-128018289D01*
X140535000Y-130000000D02*
X140535000Y-128868289D01*
%TO.N,USB_DN*%
X139860000Y-135544999D02*
X139860000Y-136407500D01*
X139885000Y-135519999D02*
X139860000Y-135544999D01*
X139885000Y-130200000D02*
X139885000Y-135519999D01*
X139685000Y-130000000D02*
X139885000Y-130200000D01*
%TO.N,USB_DP*%
X141360000Y-136407500D02*
X141335001Y-136432499D01*
%TO.N,DPad_UP*%
X124810000Y-129910000D02*
X124500000Y-129600000D01*
X124810000Y-136890000D02*
X124810000Y-129910000D01*
X125960000Y-138040000D02*
X124810000Y-136890000D01*
%TO.N,DPad_DOWN*%
X127350000Y-130916667D02*
X128666667Y-129600000D01*
X127350000Y-136890000D02*
X127350000Y-130916667D01*
X128500000Y-138040000D02*
X127350000Y-136890000D01*
%TO.N,DPad_LEFT*%
X132833333Y-132080321D02*
X132833333Y-129600000D01*
X129890000Y-135023654D02*
X132833333Y-132080321D01*
X129890000Y-136890000D02*
X129890000Y-135023654D01*
X131040000Y-138040000D02*
X129890000Y-136890000D01*
%TO.N,Misc_Start*%
X134023888Y-132516112D02*
X131040000Y-135500000D01*
X134023888Y-121179096D02*
X134023888Y-132516112D01*
X132848888Y-120004096D02*
X134023888Y-121179096D01*
%TO.N,Misc_Back*%
X128500000Y-135500000D02*
X129849444Y-134150556D01*
%TO.N,Misc_Guide*%
X124500000Y-121000000D02*
X124500000Y-119900000D01*
X125960000Y-122460000D02*
X124500000Y-121000000D01*
X125960000Y-135500000D02*
X125960000Y-122460000D01*
%TO.N,Strum_UP*%
X145500000Y-133080000D02*
X147920000Y-135500000D01*
X145500000Y-128100000D02*
X145500000Y-133080000D01*
%TO.N,Strum_DOWN*%
X149000000Y-134040000D02*
X150460000Y-135500000D01*
X149000000Y-128100000D02*
X149000000Y-134040000D01*
%TO.N,DPad_RIGHT*%
X134730000Y-131870000D02*
X137000000Y-129600000D01*
X134730000Y-136890000D02*
X134730000Y-131870000D01*
X133580000Y-138040000D02*
X134730000Y-136890000D01*
D40*
%TO.N,DPad_COM*%
X136290000Y-136982500D02*
X136290000Y-137532500D01*
X136865000Y-136407500D02*
X136290000Y-136982500D01*
X137410000Y-136407500D02*
X136865000Y-136407500D01*
X144355000Y-136407500D02*
X144930000Y-136982500D01*
X143810000Y-136407500D02*
X144355000Y-136407500D01*
X136290000Y-141162500D02*
X136290000Y-141047500D01*
%TO.N,VBUS*%
X142960000Y-136357500D02*
X143010000Y-136407500D01*
D38*
%TO.N,USB_DP*%
X141335001Y-137800001D02*
X141535000Y-138000000D01*
X141335001Y-136432499D02*
X141335001Y-137800001D01*
%TO.N,Net-(J4-CC2)*%
X152000000Y-122000000D02*
X151500000Y-122500000D01*
X152000000Y-120900000D02*
X152000000Y-122000000D01*
D40*
%TO.N,DPad_COM*%
X137171967Y-110521967D02*
X136850000Y-110200000D01*
%TO.N,+5V*%
X134500000Y-110172924D02*
X133512500Y-111160424D01*
X133512500Y-111160424D02*
X133512500Y-113770053D01*
X133512500Y-113770053D02*
X134492447Y-114750000D01*
%TO.N,VBUS*%
X138181289Y-136378789D02*
X138210000Y-136407500D01*
%TD*%
M02*
