%TF.GenerationSoftware,KiCad,Pcbnew,9.0.6-1.fc43*%
%TF.CreationDate,2026-02-03T23:27:18-06:00*%
%TF.ProjectId,AltWarriorsOfRock,416c7457-6172-4726-996f-72734f66526f,rev?*%
%TF.SameCoordinates,Original*%
%TF.FileFunction,Soldermask,Bot*%
%TF.FilePolarity,Negative*%
%FSLAX46Y46*%
G04 Gerber Fmt 4.6, Leading zero omitted, Abs format (unit mm)*
G04 Created by KiCad (PCBNEW 9.0.6-1.fc43) date 2026-02-03 23:27:18*
%MOMM*%
%LPD*%
G01*
G04 APERTURE LIST*
G04 Aperture macros list*
%AMRoundRect*
0 Rectangle with rounded corners*
0 $1 Rounding radius*
0 $2 $3 $4 $5 $6 $7 $8 $9 X,Y pos of 4 corners*
0 Add a 4 corners polygon primitive as box body*
4,1,4,$2,$3,$4,$5,$6,$7,$8,$9,$2,$3,0*
0 Add four circle primitives for the rounded corners*
1,1,$1+$1,$2,$3*
1,1,$1+$1,$4,$5*
1,1,$1+$1,$6,$7*
1,1,$1+$1,$8,$9*
0 Add four rect primitives between the rounded corners*
20,1,$1+$1,$2,$3,$4,$5,0*
20,1,$1+$1,$4,$5,$6,$7,0*
20,1,$1+$1,$6,$7,$8,$9,0*
20,1,$1+$1,$8,$9,$2,$3,0*%
G04 Aperture macros list end*
%ADD10C,1.400000*%
%ADD11RoundRect,0.250000X1.050000X0.550000X-1.050000X0.550000X-1.050000X-0.550000X1.050000X-0.550000X0*%
%ADD12O,2.600000X1.600000*%
%ADD13R,1.700000X1.700000*%
%ADD14C,1.700000*%
G04 APERTURE END LIST*
D10*
%TO.C,R12*%
X143150000Y-133310000D03*
X143150000Y-125690000D03*
%TD*%
%TO.C,R1*%
X136000000Y-70120000D03*
X136000000Y-62500000D03*
%TD*%
%TO.C,R8*%
X133300000Y-133310000D03*
X133300000Y-125690000D03*
%TD*%
D11*
%TO.C,A1*%
X149252500Y-116550000D03*
D12*
X149252500Y-114010000D03*
X149252500Y-111470000D03*
X149252500Y-108930000D03*
X149252500Y-106390000D03*
X149252500Y-103850000D03*
X149252500Y-101310000D03*
X149252500Y-98770000D03*
X149252500Y-96230000D03*
X149252500Y-93690000D03*
X149252500Y-91150000D03*
X149252500Y-88610000D03*
X149252500Y-86070000D03*
X149252500Y-83530000D03*
X149252500Y-80990000D03*
X149252500Y-78450000D03*
X129532500Y-78450000D03*
X129532500Y-80990000D03*
X129532500Y-83530000D03*
X129532500Y-86070000D03*
X129532500Y-88610000D03*
X129532500Y-91150000D03*
X129532500Y-93690000D03*
X129532500Y-96230000D03*
X129532500Y-98770000D03*
X129532500Y-101310000D03*
X129532500Y-103850000D03*
X129532500Y-106390000D03*
%TD*%
D10*
%TO.C,R11*%
X140000000Y-133310000D03*
X140000000Y-125690000D03*
%TD*%
%TO.C,R10*%
X127000000Y-133310000D03*
X127000000Y-125690000D03*
%TD*%
%TO.C,R2*%
X139150000Y-70120000D03*
X139150000Y-62500000D03*
%TD*%
%TO.C,R14*%
X152300000Y-133310000D03*
X152300000Y-125690000D03*
%TD*%
%TO.C,R7*%
X130159444Y-133305442D03*
X130159444Y-125685442D03*
%TD*%
%TO.C,R3*%
X142300000Y-70120000D03*
X142300000Y-62500000D03*
%TD*%
%TO.C,R4*%
X145450000Y-70120000D03*
X145450000Y-62500000D03*
%TD*%
%TO.C,R6*%
X136492203Y-133305442D03*
X136492203Y-125685442D03*
%TD*%
%TO.C,R13*%
X146300000Y-133310000D03*
X146300000Y-125690000D03*
%TD*%
%TO.C,R5*%
X148600000Y-70120000D03*
X148600000Y-62500000D03*
%TD*%
%TO.C,R15*%
X149300000Y-133310000D03*
X149300000Y-125690000D03*
%TD*%
D13*
%TO.C,J1*%
X148580000Y-58500000D03*
D14*
X146040000Y-58500000D03*
X143500000Y-58500000D03*
X140960000Y-58500000D03*
X138420000Y-58500000D03*
X135880000Y-58500000D03*
%TD*%
D13*
%TO.C,J2*%
X127760000Y-137000000D03*
D14*
X130300000Y-137000000D03*
X132840000Y-137000000D03*
X135380000Y-137000000D03*
X137920000Y-137000000D03*
X140460000Y-137000000D03*
X143000000Y-137000000D03*
X145540000Y-137000000D03*
X148080000Y-137000000D03*
X150620000Y-137000000D03*
X127760000Y-139540000D03*
X130300000Y-139540000D03*
X132840000Y-139540000D03*
X135380000Y-139540000D03*
X137920000Y-139540000D03*
X140460000Y-139540000D03*
X143000000Y-139540000D03*
X145540000Y-139540000D03*
X148080000Y-139540000D03*
X150620000Y-139540000D03*
%TD*%
M02*
