M48
; DRILL file {KiCad 9.0.8-1.fc43} date 2026-05-01T18:24:24-0500
; FORMAT={-:-/ absolute / inch / decimal}
; #@! TF.CreationDate,2026-05-01T18:24:24-05:00
; #@! TF.GenerationSoftware,Kicad,Pcbnew,9.0.8-1.fc43
; #@! TF.FileFunction,Plated,1,2,PTH
FMAT,2
INCH
; #@! TA.AperFunction,Plated,PTH,ViaDrill
T1C0.0118
; #@! TA.AperFunction,Plated,PTH,ComponentDrill
T2C0.0118
; #@! TA.AperFunction,Plated,PTH,ComponentDrill
T3C0.0236
; #@! TA.AperFunction,Plated,PTH,ComponentDrill
T4C0.0315
; #@! TA.AperFunction,Plated,PTH,ComponentDrill
T5C0.0354
; #@! TA.AperFunction,Plated,PTH,ComponentDrill
T6C0.0390
; #@! TA.AperFunction,Plated,PTH,ComponentDrill
T7C0.0394
%
G90
G05
T1
X4.8937Y-2.9528
X4.9016Y-4.6654
X4.9016Y-4.9094
X4.9213Y-2.9134
X4.9252Y-4.4094
X5.0Y-3.0118
X5.0197Y-2.9134
X5.0236Y-4.7835
X5.0591Y-4.9094
X5.1417Y-3.0709
X5.1654Y-3.1102
X5.2165Y-2.7559
X5.2362Y-4.9094
X5.2559Y-3.9252
X5.2641Y-3.0233
X5.315Y-3.3071
X5.3425Y-3.1713
X5.3543Y-2.6496
X5.3543Y-2.7461
X5.3662Y-3.1476
X5.3937Y-4.9094
X5.4409Y-5.2953
X5.4528Y-4.7638
X5.4758Y-4.9094
X5.481Y-4.8255
X5.4994Y-4.7047
X5.4994Y-5.0401
X5.4994Y-5.1181
X5.5329Y-4.7047
X5.5329Y-5.1181
X5.5384Y-5.5049
X5.563Y-4.4961
X5.5722Y-5.4331
X5.5906Y-3.4449
X5.6102Y-2.4961
X5.6299Y-5.2953
X5.6476Y-5.1988
X5.6496Y-3.4449
X5.6654Y-5.0551
X5.6772Y-4.5433
X5.7087Y-2.8425
X5.748Y-3.4252
X5.7992Y-4.9213
X5.8268Y-4.6575
X5.8346Y-4.5039
X5.937Y-4.4213
X5.9646Y-4.8228
T2
X5.4327Y-2.9547
X5.4327Y-3.0098
X5.4602Y-2.9272
X5.4602Y-2.9823
X5.4602Y-3.0374
X5.4878Y-2.9547
X5.4878Y-3.0098
X5.5154Y-2.9272
X5.5154Y-2.9823
X5.5154Y-3.0374
X5.5429Y-2.9547
X5.5429Y-3.0098
T4
X5.7677Y-3.5039
X5.7677Y-3.9039
T5
X5.7465Y-4.1339
X5.8465Y-4.1339
T6
X5.3839Y-3.6122
X5.3839Y-3.7894
X5.3839Y-3.998
X5.3839Y-4.1752
X5.6398Y-3.6122
X5.6398Y-3.7894
X5.6398Y-3.998
X5.6398Y-4.1752
T7
X4.8591Y-5.3346
X4.8591Y-5.4346
X4.9591Y-5.3346
X4.9591Y-5.4346
X5.0591Y-5.3346
X5.0591Y-5.4346
X5.1591Y-5.3346
X5.1591Y-5.4346
X5.2543Y-2.2244
X5.2591Y-5.3346
X5.2591Y-5.4346
X5.3543Y-2.2244
X5.4543Y-2.2244
X5.5543Y-2.2244
X5.6543Y-2.2244
X5.7543Y-2.2244
X5.8236Y-5.3346
X5.8236Y-5.4346
X5.9236Y-5.3346
X5.9236Y-5.4346
X5.9843Y-4.124
X5.9843Y-4.224
X6.0236Y-5.3346
X6.0236Y-5.4346
T3
G00X5.3657Y-5.3714
M15
G01X5.3657Y-5.4147
M16
G05
G00X5.3657Y-5.5418
M15
G01X5.3657Y-5.5733
M16
G05
G00X5.7059Y-5.3714
M15
G01X5.7059Y-5.4147
M16
G05
G00X5.7059Y-5.5418
M15
G01X5.7059Y-5.5733
M16
G05
M30
