%TF.GenerationSoftware,KiCad,Pcbnew,9.0.8-1.fc43*%
%TF.CreationDate,2026-05-01T18:24:24-05:00*%
%TF.ProjectId,AltWarriorsOfRock,416c7457-6172-4726-996f-72734f66526f,rev?*%
%TF.SameCoordinates,Original*%
%TF.FileFunction,Copper,L2,Bot*%
%TF.FilePolarity,Positive*%
%FSLAX46Y46*%
G04 Gerber Fmt 4.6, Leading zero omitted, Abs format (unit mm)*
G04 Created by KiCad (PCBNEW 9.0.8-1.fc43) date 2026-05-01 18:24:24*
%MOMM*%
%LPD*%
G01*
G04 APERTURE LIST*
%TA.AperFunction,ComponentPad*%
%ADD10C,1.800000*%
%TD*%
%TA.AperFunction,ComponentPad*%
%ADD11R,1.800000X1.800000*%
%TD*%
%TA.AperFunction,ComponentPad*%
%ADD12C,1.700000*%
%TD*%
%TA.AperFunction,ComponentPad*%
%ADD13R,1.700000X1.700000*%
%TD*%
%TA.AperFunction,ComponentPad*%
%ADD14C,1.498000*%
%TD*%
%TA.AperFunction,ComponentPad*%
%ADD15R,1.498000X1.498000*%
%TD*%
%TA.AperFunction,ComponentPad*%
%ADD16C,1.600000*%
%TD*%
%TA.AperFunction,HeatsinkPad*%
%ADD17C,0.600000*%
%TD*%
%TA.AperFunction,ComponentPad*%
%ADD18O,1.000000X2.100000*%
%TD*%
%TA.AperFunction,ComponentPad*%
%ADD19O,1.000000X1.800000*%
%TD*%
%TA.AperFunction,ViaPad*%
%ADD20C,0.600000*%
%TD*%
%TA.AperFunction,Conductor*%
%ADD21C,1.000000*%
%TD*%
%TA.AperFunction,Conductor*%
%ADD22C,0.200000*%
%TD*%
%TA.AperFunction,Conductor*%
%ADD23C,0.400000*%
%TD*%
%TA.AperFunction,Conductor*%
%ADD24C,0.600000*%
%TD*%
G04 APERTURE END LIST*
D10*
%TO.P,D10,2,A*%
%TO.N,Net-(D10-A)*%
X145960000Y-105000000D03*
D11*
%TO.P,D10,1,K*%
%TO.N,DPad_COM*%
X148500000Y-105000000D03*
%TD*%
D12*
%TO.P,J1,6,Pin_6*%
%TO.N,Fret_G*%
X133460000Y-56500000D03*
%TO.P,J1,5,Pin_5*%
%TO.N,Fret_R*%
X136000000Y-56500000D03*
%TO.P,J1,4,Pin_4*%
%TO.N,Fret_Y*%
X138540000Y-56500000D03*
%TO.P,J1,3,Pin_3*%
%TO.N,Fret_B*%
X141080000Y-56500000D03*
%TO.P,J1,2,Pin_2*%
%TO.N,Fret_O*%
X143620000Y-56500000D03*
D13*
%TO.P,J1,1,Pin_1*%
%TO.N,DPad_COM*%
X146160000Y-56500000D03*
%TD*%
D12*
%TO.P,J5,2,Pin_2*%
%TO.N,UART_TX*%
X152000000Y-104750000D03*
D13*
%TO.P,J5,1,Pin_1*%
%TO.N,UART_RX*%
X152000000Y-107290000D03*
%TD*%
D14*
%TO.P,SW4,3*%
%TO.N,ESP_EN*%
X136750000Y-106050000D03*
D15*
%TO.P,SW4,1*%
%TO.N,DPad_COM*%
X136750000Y-101550000D03*
D14*
%TO.P,SW4,4*%
%TO.N,ESP_EN*%
X143250000Y-106050000D03*
%TO.P,SW4,2*%
%TO.N,DPad_COM*%
X143250000Y-101550000D03*
%TD*%
%TO.P,SW3,3*%
%TO.N,GPIO0*%
X136750000Y-96250000D03*
D15*
%TO.P,SW3,1*%
%TO.N,DPad_COM*%
X136750000Y-91750000D03*
D14*
%TO.P,SW3,4*%
%TO.N,GPIO0*%
X143250000Y-96250000D03*
%TO.P,SW3,2*%
%TO.N,DPad_COM*%
X143250000Y-91750000D03*
%TD*%
D16*
%TO.P,R15,1*%
%TO.N,Wham_3V3*%
X146500000Y-89000000D03*
%TO.P,R15,2*%
%TO.N,Net-(D10-A)*%
X146500000Y-99160000D03*
%TD*%
D17*
%TO.P,U1,41,GND*%
%TO.N,DPad_COM*%
X138690000Y-77150000D03*
X140090000Y-77150000D03*
X137990000Y-76450000D03*
X139390000Y-76450000D03*
X140790000Y-76450000D03*
X138690000Y-75750000D03*
X140090000Y-75750000D03*
X137990000Y-75050000D03*
X139390000Y-75050000D03*
X140790000Y-75050000D03*
X138690000Y-74350000D03*
X140090000Y-74350000D03*
%TD*%
D18*
%TO.P,J4,SH2,SHELL_GND*%
%TO.N,DPad_COM*%
X144930000Y-136982500D03*
%TO.P,J4,SH1,SHELL_GND*%
X136290000Y-136982500D03*
D19*
%TO.P,J4,SH4,SHELL_GND*%
X144930000Y-141162500D03*
%TO.P,J4,SH3,SHELL_GND*%
X136290000Y-141162500D03*
%TD*%
D12*
%TO.P,J3,6,Pin_6*%
%TO.N,DPad_COM*%
X147920000Y-138040000D03*
%TO.P,J3,5,Pin_5*%
%TO.N,Wham_Signal*%
X150460000Y-138040000D03*
%TO.P,J3,4,Pin_4*%
%TO.N,Wham_3V3*%
X153000000Y-138040000D03*
%TO.P,J3,3,Pin_3*%
%TO.N,Strum_UP*%
X147920000Y-135500000D03*
%TO.P,J3,2,Pin_2*%
%TO.N,Strum_DOWN*%
X150460000Y-135500000D03*
D13*
%TO.P,J3,1,Pin_1*%
%TO.N,DPad_COM*%
X153000000Y-135500000D03*
%TD*%
%TO.P,J2,1,Pin_1*%
%TO.N,DPad_COM*%
X133580000Y-135500000D03*
D12*
%TO.P,J2,2,Pin_2*%
%TO.N,Misc_Start*%
X131040000Y-135500000D03*
%TO.P,J2,3,Pin_3*%
%TO.N,Misc_Back*%
X128500000Y-135500000D03*
%TO.P,J2,4,Pin_4*%
%TO.N,Misc_Guide*%
X125960000Y-135500000D03*
%TO.P,J2,5,Pin_5*%
%TO.N,unconnected-(J2-Pin_5-Pad5)*%
X123420000Y-135500000D03*
%TO.P,J2,6,Pin_6*%
%TO.N,DPad_RIGHT*%
X133580000Y-138040000D03*
%TO.P,J2,7,Pin_7*%
%TO.N,DPad_LEFT*%
X131040000Y-138040000D03*
%TO.P,J2,8,Pin_8*%
%TO.N,DPad_DOWN*%
X128500000Y-138040000D03*
%TO.P,J2,9,Pin_9*%
%TO.N,DPad_UP*%
X125960000Y-138040000D03*
%TO.P,J2,10,Pin_10*%
%TO.N,DPad_COM*%
X123420000Y-138040000D03*
%TD*%
D20*
%TO.N,Wham_3V3*%
X145000000Y-72200000D03*
%TO.N,+5V*%
X148200000Y-114400000D03*
X144200000Y-115400000D03*
%TO.N,VBUS*%
X148000000Y-118300000D03*
X143000000Y-134500000D03*
X138200000Y-134500000D03*
%TO.N,Wham_3V3*%
X147300000Y-125000000D03*
X139084999Y-124700000D03*
X143900000Y-128400000D03*
X137000000Y-124700000D03*
X133000000Y-124700000D03*
X128500000Y-124700000D03*
X124500000Y-124700000D03*
X141300000Y-114200000D03*
%TO.N,DPad_COM*%
X150800000Y-112300000D03*
%TO.N,ESP_EN*%
X133500000Y-99700000D03*
%TO.N,USB_DN*%
X136300521Y-79949479D03*
%TO.N,USB_DP*%
X135699479Y-80550521D03*
%TO.N,USB_DN*%
X140535000Y-119500000D03*
%TO.N,USB_DP*%
X139685000Y-119500000D03*
%TO.N,UART_TX*%
X143500000Y-87500000D03*
%TO.N,UART_RX*%
X142000000Y-87500000D03*
%TO.N,Fret_O*%
X136000000Y-67300000D03*
%TO.N,Strum_DOWN*%
X130600002Y-78000000D03*
%TO.N,Strum_UP*%
X131200002Y-79000000D03*
X139218235Y-122566764D03*
%TO.N,Strum_DOWN*%
X138500000Y-121000000D03*
%TO.N,Misc_Guide*%
X124500000Y-118500000D03*
%TO.N,Misc_Back*%
X127500000Y-74000000D03*
X127600000Y-121500000D03*
%TO.N,Misc_Guide*%
X132500000Y-70000000D03*
%TO.N,Misc_Start*%
X125100000Y-112000000D03*
X127000000Y-76500000D03*
%TO.N,ESP_EN*%
X133708365Y-76791636D03*
%TO.N,Wham_Signal*%
X146000000Y-87000000D03*
%TO.N,Fret_G*%
X124300000Y-75000000D03*
%TO.N,Fret_Y*%
X125000000Y-74000000D03*
%TO.N,Fret_B*%
X142500000Y-63400000D03*
X136000000Y-69750002D03*
%TO.N,Fret_R*%
X135000000Y-84000000D03*
%TO.N,USB_DP*%
X139685000Y-128018289D03*
X140535000Y-130000000D03*
%TO.N,USB_DN*%
X139685000Y-130000000D03*
%TO.N,Net-(J4-CC2)*%
X151500000Y-122500000D03*
X143450000Y-132050000D03*
%TO.N,USB_DP*%
X141535000Y-138000000D03*
%TO.N,USB_DN*%
X140675000Y-139825000D03*
%TD*%
D21*
%TO.N,Wham_3V3*%
X145000000Y-87500000D02*
X145000000Y-72200000D01*
X146500000Y-89000000D02*
X145000000Y-87500000D01*
%TO.N,+5V*%
X145200000Y-114400000D02*
X144200000Y-115400000D01*
X148200000Y-114400000D02*
X145200000Y-114400000D01*
%TO.N,VBUS*%
X148000000Y-118300000D02*
X142200000Y-124100000D01*
X142200000Y-124100000D02*
X142200000Y-133700000D01*
X142200000Y-133700000D02*
X143000000Y-134500000D01*
%TO.N,Wham_3V3*%
X143900000Y-128400000D02*
X147300000Y-125000000D01*
D22*
%TO.N,Net-(J4-CC2)*%
X143450000Y-132050000D02*
X151500000Y-124000000D01*
X151500000Y-124000000D02*
X151500000Y-122500000D01*
D21*
%TO.N,Wham_3V3*%
X149800000Y-122500000D02*
X147300000Y-125000000D01*
X149800000Y-122500000D02*
X149800000Y-117285786D01*
X149800000Y-117285786D02*
X149214214Y-116700000D01*
X149214214Y-116700000D02*
X143685786Y-116700000D01*
X141300000Y-114314214D02*
X141300000Y-114200000D01*
X143685786Y-116700000D02*
X141300000Y-114314214D01*
X137000000Y-124700000D02*
X139084999Y-124700000D01*
X133000000Y-124700000D02*
X137000000Y-124700000D01*
X128500000Y-124700000D02*
X133000000Y-124700000D01*
X124500000Y-124700000D02*
X128500000Y-124700000D01*
%TO.N,DPad_COM*%
X152500000Y-114000000D02*
X150800000Y-112300000D01*
X153000000Y-135500000D02*
X152500000Y-135000000D01*
X152500000Y-135000000D02*
X152500000Y-114000000D01*
X147920000Y-138040000D02*
X147920000Y-138172500D01*
X147920000Y-138172500D02*
X144930000Y-141162500D01*
X153000000Y-135500000D02*
X151450000Y-133950000D01*
X151450000Y-133950000D02*
X147277968Y-133950000D01*
X147277968Y-133950000D02*
X144930000Y-136297968D01*
X144930000Y-136297968D02*
X144930000Y-136982500D01*
X133580000Y-135500000D02*
X134807500Y-135500000D01*
X134807500Y-135500000D02*
X136290000Y-136982500D01*
X123420000Y-138040000D02*
X126542500Y-141162500D01*
X126542500Y-141162500D02*
X136290000Y-141162500D01*
X136750000Y-91750000D02*
X135301000Y-93199000D01*
X135301000Y-93199000D02*
X135301000Y-100101000D01*
X135301000Y-100101000D02*
X136750000Y-101550000D01*
D22*
%TO.N,USB_DN*%
X139884999Y-130199999D02*
X139685000Y-130000000D01*
X139884999Y-131311392D02*
X139884999Y-130199999D01*
X140685000Y-137786397D02*
X138448582Y-135549979D01*
X138448582Y-135549979D02*
X137746372Y-135549979D01*
X137746372Y-135549979D02*
X137131309Y-134934916D01*
X137131309Y-134934916D02*
X137131309Y-134065082D01*
X137131309Y-134065082D02*
X139884999Y-131311392D01*
X140675000Y-139825000D02*
X140685000Y-139815000D01*
X140685000Y-139815000D02*
X140685000Y-137786397D01*
%TO.N,Wham_Signal*%
X153166346Y-139500000D02*
X151920000Y-139500000D01*
X154150000Y-138516346D02*
X153166346Y-139500000D01*
X153500000Y-104623654D02*
X153500000Y-124500000D01*
X151920000Y-139500000D02*
X150460000Y-138040000D01*
X148558578Y-101350000D02*
X150226346Y-101350000D01*
X147600000Y-100391422D02*
X148558578Y-101350000D01*
X153500000Y-124500000D02*
X154150000Y-125150000D01*
X147600000Y-88100000D02*
X147600000Y-100391422D01*
X154150000Y-125150000D02*
X154150000Y-138516346D01*
X150226346Y-101350000D02*
X153500000Y-104623654D01*
X146500000Y-87000000D02*
X147600000Y-88100000D01*
X146000000Y-87000000D02*
X146500000Y-87000000D01*
%TO.N,UART_TX*%
X152000000Y-104750000D02*
X150534365Y-104750000D01*
X150534365Y-104750000D02*
X144299000Y-98514635D01*
X144299000Y-98514635D02*
X144299000Y-88299000D01*
X144299000Y-88299000D02*
X143500000Y-87500000D01*
%TO.N,UART_RX*%
X152000000Y-107290000D02*
X148390000Y-107290000D01*
X148390000Y-107290000D02*
X147300000Y-106200000D01*
X147300000Y-106200000D02*
X147300000Y-103800000D01*
X147300000Y-103800000D02*
X142000000Y-98500000D01*
X142000000Y-98500000D02*
X142000000Y-87500000D01*
%TO.N,Fret_O*%
X143500000Y-59800000D02*
X136000000Y-67300000D01*
X143500000Y-56620000D02*
X143500000Y-59800000D01*
X143620000Y-56500000D02*
X143500000Y-56620000D01*
%TO.N,Strum_UP*%
X131200002Y-112851473D02*
X131200002Y-79000000D01*
X139218235Y-122566764D02*
X139218235Y-120869706D01*
X139218235Y-120869706D02*
X131200002Y-112851473D01*
%TO.N,Strum_DOWN*%
X130600002Y-113100002D02*
X130600002Y-78000000D01*
X138500000Y-121000000D02*
X130600002Y-113100002D01*
%TO.N,Misc_Back*%
X123900000Y-77600000D02*
X127500000Y-74000000D01*
X123900000Y-118748529D02*
X123900000Y-77600000D01*
X123900000Y-118748529D02*
X126651471Y-121500000D01*
X126651471Y-121500000D02*
X127600000Y-121500000D01*
%TO.N,Misc_Guide*%
X124500000Y-78000000D02*
X132500000Y-70000000D01*
X124500000Y-118500000D02*
X124500000Y-78000000D01*
%TO.N,Misc_Start*%
X125100000Y-78400000D02*
X127000000Y-76500000D01*
X125100000Y-112000000D02*
X125100000Y-78400000D01*
D23*
%TO.N,DPad_COM*%
X143250000Y-91750000D02*
X142800000Y-91300000D01*
D22*
X142900000Y-91400000D02*
X143250000Y-91750000D01*
%TO.N,Fret_B*%
X142500000Y-63400000D02*
X142350002Y-63400000D01*
%TO.N,Fret_G*%
X132500000Y-56500000D02*
X133460000Y-56500000D01*
X124300000Y-64700000D02*
X132500000Y-56500000D01*
X124300000Y-75000000D02*
X124300000Y-64700000D01*
%TO.N,Fret_R*%
X136000000Y-56500000D02*
X135000000Y-57500000D01*
X135000000Y-57500000D02*
X135000000Y-84000000D01*
%TO.N,USB_DN*%
X136300521Y-80232322D02*
X136300521Y-79949479D01*
X140535000Y-119500000D02*
X140335000Y-119300000D01*
X140335000Y-84266801D02*
X136300521Y-80232322D01*
%TO.N,USB_DP*%
X135982322Y-80550521D02*
X135699479Y-80550521D01*
X139885000Y-84453199D02*
X135982322Y-80550521D01*
X139885000Y-119300000D02*
X139885000Y-84453199D01*
X139685000Y-119500000D02*
X139885000Y-119300000D01*
%TO.N,USB_DN*%
X140535000Y-119500000D02*
X140335001Y-119699999D01*
%TO.N,USB_DP*%
X139685000Y-119500000D02*
X139884999Y-119699999D01*
%TO.N,USB_DN*%
X140335001Y-119699999D02*
X140335001Y-127818290D01*
%TO.N,USB_DP*%
X139884999Y-127818290D02*
X139685000Y-128018289D01*
X139884999Y-119699999D02*
X139884999Y-127818290D01*
D23*
%TO.N,DPad_COM*%
X153000000Y-135500000D02*
X152510050Y-135500000D01*
D22*
%TO.N,USB_DP*%
X141535000Y-138000000D02*
X138634999Y-135099999D01*
X137932760Y-135099999D02*
X137581289Y-134748528D01*
X140335001Y-131497758D02*
X140335001Y-130199999D01*
X137581289Y-134748528D02*
X137581289Y-134251470D01*
X137581289Y-134251470D02*
X140335001Y-131497758D01*
X140335001Y-130199999D02*
X140535000Y-130000000D01*
X138634999Y-135099999D02*
X137932760Y-135099999D01*
%TO.N,USB_DN*%
X139685000Y-128868289D02*
X139685000Y-130000000D01*
X140335001Y-128218288D02*
X139685000Y-128868289D01*
X140335001Y-127818290D02*
X140335001Y-128218288D01*
%TO.N,Fret_Y*%
X125000000Y-66586346D02*
X125000000Y-74000000D01*
X134850000Y-56736346D02*
X125000000Y-66586346D01*
X134850000Y-56023654D02*
X134850000Y-56736346D01*
X135873654Y-55000000D02*
X134850000Y-56023654D01*
X137040000Y-55000000D02*
X135873654Y-55000000D01*
X138540000Y-56500000D02*
X137040000Y-55000000D01*
%TO.N,ESP_EN*%
X133500000Y-77000001D02*
X133500000Y-99700000D01*
X133708365Y-76791636D02*
X133500000Y-77000001D01*
%TO.N,USB_DN*%
X140335000Y-119300000D02*
X140335000Y-84266801D01*
D24*
%TO.N,VBUS*%
X138200000Y-134500000D02*
X143000000Y-134500000D01*
D22*
%TO.N,Fret_B*%
X142350002Y-63400000D02*
X136000000Y-69750002D01*
%TD*%
M02*
